<?xml version="1.0" encoding="utf-8"?>
<!-- Generator: Adobe Illustrator 16.0.0, SVG Export Plug-In . SVG Version: 6.00 Build 0)  -->
<!DOCTYPE svg PUBLIC "-//W3C//DTD SVG 1.1//EN" "http://www.w3.org/Graphics/SVG/1.1/DTD/svg11.dtd">
<svg version="1.1" id="Layer_1" xmlns="http://www.w3.org/2000/svg" xmlns:xlink="http://www.w3.org/1999/xlink" x="0px" y="0px"
	 width="90px" height="90px" viewBox="252.64 375.945 90 90" enable-background="new 252.64 375.945 90 90" xml:space="preserve">
<title>Product Icons</title>
<path fill="#FFFFFF" stroke="#FFFFFF" stroke-miterlimit="10" d="M334.779,443.184c-0.387-0.003-0.766-0.094-1.111-0.266
	c-1.164-0.628-1.6-2.078-0.977-3.244c10.414-19.196,3.297-43.202-15.898-53.618c-5.418-2.938-11.443-4.571-17.604-4.766
	c-1.3-0.048-2.313-1.141-2.266-2.44c0-0.001,0-0.002,0-0.003c-0.002-1.276,1.031-2.313,2.307-2.314c0.045,0,0.092,0.001,0.137,0.004
	c24.521,0.954,43.625,21.604,42.672,46.125c-0.258,6.657-2.01,13.17-5.125,19.057C336.548,442.581,335.714,443.153,334.779,443.184z
	"/>
<polygon fill="#FFFFFF" stroke="#FFFFFF" stroke-miterlimit="10" points="341.578,442.518 328.914,448.96 329.669,434.787 "/>
<path fill="#FFFFFF" stroke="#FFFFFF" stroke-miterlimit="10" d="M297.723,465.4c-24.539,0.046-44.469-19.812-44.515-44.349
	c-0.017-8.934,2.66-17.664,7.681-25.053c0.761-1.092,2.263-1.361,3.355-0.6c1.092,0.761,1.36,2.262,0.599,3.354
	c-10.604,15.716-8.593,36.743,4.799,50.164c7.787,7.835,18.513,12.028,29.547,11.552c1.291,0.021,2.354,1.023,2.445,2.312
	c0.049,1.3-0.963,2.394-2.264,2.443c-0.002,0.001-0.004,0.001-0.004,0.001L297.723,465.4z"/>
<polygon fill="#FFFFFF" stroke="#FFFFFF" stroke-miterlimit="10" points="256.312,394.531 269.642,389.644 267.198,403.639 "/>
<g>
	<g>
		<path fill="#FFFFFF" d="M302.91,417.839h-2.391v-9.56h2.391c1.318,0,2.39,1.072,2.39,2.39c0,1.32,1.07,2.39,2.391,2.39
			c1.319,0,2.39-1.07,2.39-2.39c0-3.954-3.217-7.17-7.17-7.17h-2.391v-2.39c0-1.32-1.069-2.39-2.39-2.39s-2.39,1.07-2.39,2.39v2.39
			h-2.39c-3.954,0-7.17,3.216-7.17,7.17v4.78c0,3.953,3.216,7.169,7.17,7.169h2.39v9.561h-2.39c-1.318,0-2.391-1.072-2.391-2.39
			c0-1.32-1.07-2.391-2.39-2.391c-1.32,0-2.39,1.07-2.39,2.391c0,3.953,3.216,7.17,7.17,7.17h2.39v2.39
			c0,1.319,1.07,2.391,2.39,2.391s2.39-1.071,2.39-2.391v-2.39h2.391c3.953,0,7.17-3.217,7.17-7.17v-4.78
			C310.08,421.055,306.863,417.839,302.91,417.839z M295.739,417.839h-2.39c-1.318,0-2.391-1.072-2.391-2.39v-4.78
			c0-1.318,1.072-2.39,2.391-2.39h2.39V417.839z M305.299,429.79c0,1.317-1.071,2.39-2.39,2.39h-2.391v-9.561h2.391
			c1.318,0,2.39,1.073,2.39,2.391V429.79z"/>
	</g>
</g>
</svg>
