<?xml version="1.0" encoding="utf-8"?>
<!-- Generator: Adobe Illustrator 16.0.0, SVG Export Plug-In . SVG Version: 6.00 Build 0)  -->
<!DOCTYPE svg PUBLIC "-//W3C//DTD SVG 1.1//EN" "http://www.w3.org/Graphics/SVG/1.1/DTD/svg11.dtd">
<svg version="1.1" xmlns="http://www.w3.org/2000/svg" xmlns:xlink="http://www.w3.org/1999/xlink" x="0px" y="0px" width="105px"
	 height="105px" viewBox="97.5 -30.5 105 105" enable-background="new 97.5 -30.5 105 105" xml:space="preserve">
<g id="Capa_1">
	
		<image display="none" overflow="visible" width="105" height="105" xlink:href="CB2E8450.png"  transform="matrix(1 0 0 1 97.5 -30.5)">
	</image>
</g>
<g id="Layer_2" display="none">
	<g display="inline">
		<g>
			<path fill="#212529" d="M116.257-22.242h-1.365c-0.185-0.785-0.496-1.535-0.921-2.22l0.965-0.965
				c0.113-0.114,0.113-0.297,0-0.411l-2.052-2.053c-0.113-0.114-0.297-0.114-0.411,0l-0.965,0.965
				c-0.686-0.425-1.435-0.736-2.22-0.92v-1.364c0-0.16-0.13-0.291-0.29-0.291h-2.904c-0.161,0-0.29,0.13-0.29,0.291v1.364
				c-0.785,0.185-1.534,0.496-2.22,0.921l-0.965-0.966c-0.114-0.114-0.297-0.114-0.411,0l-2.053,2.053
				c-0.114,0.113-0.114,0.297,0,0.411l0.965,0.965c-0.425,0.686-0.736,1.435-0.92,2.22h-1.364c-0.16,0-0.291,0.129-0.291,0.29v2.904
				c0,0.16,0.13,0.29,0.291,0.29h1.364c0.185,0.785,0.496,1.535,0.921,2.22l-0.966,0.965c-0.114,0.114-0.114,0.297,0,0.411
				l2.053,2.053c0.115,0.109,0.295,0.109,0.411,0l0.965-0.965c0.686,0.425,1.435,0.736,2.22,0.92v1.365c0,0.16,0.129,0.29,0.29,0.29
				h2.904c0.16,0,0.29-0.13,0.29-0.29v-1.365c0.785-0.185,1.535-0.496,2.22-0.921l0.965,0.965c0.114,0.113,0.297,0.113,0.411,0
				l2.053-2.053c0.114-0.113,0.114-0.297,0-0.411l-0.965-0.965c0.425-0.686,0.735-1.435,0.92-2.219h1.365
				c0.16,0,0.29-0.13,0.29-0.29v-2.904C116.547-22.112,116.417-22.242,116.257-22.242z M115.966-19.338h-1.306
				c-0.138,0-0.257,0.097-0.285,0.232c-0.177,0.874-0.522,1.705-1.016,2.447c-0.076,0.115-0.061,0.269,0.037,0.366l0.926,0.925
				l-1.643,1.643l-0.925-0.926c-0.097-0.097-0.25-0.112-0.366-0.037c-0.742,0.494-1.573,0.839-2.447,1.016
				c-0.135,0.028-0.232,0.147-0.232,0.285v1.306h-2.323v-1.306c0-0.138-0.097-0.256-0.232-0.285
				c-0.874-0.177-1.705-0.522-2.447-1.016c-0.115-0.076-0.268-0.061-0.366,0.037l-0.925,0.926l-1.643-1.642l0.926-0.926
				c0.098-0.097,0.113-0.25,0.037-0.365c-0.494-0.743-0.839-1.574-1.016-2.448c-0.027-0.135-0.146-0.232-0.284-0.232h-1.307v-2.323
				h1.307c0.138,0,0.257-0.097,0.285-0.232c0.177-0.874,0.522-1.705,1.016-2.447c0.076-0.115,0.061-0.268-0.037-0.366l-0.926-0.926
				l1.643-1.643l0.926,0.926c0.098,0.098,0.25,0.113,0.366,0.037c0.742-0.494,1.573-0.839,2.447-1.016
				c0.135-0.027,0.232-0.146,0.232-0.284v-1.307h2.323v1.307c0,0.138,0.097,0.257,0.232,0.285c0.874,0.177,1.705,0.522,2.447,1.016
				c0.115,0.076,0.268,0.061,0.366-0.037l0.925-0.925l1.643,1.643l-0.926,0.925c-0.097,0.098-0.112,0.25-0.037,0.366
				c0.494,0.742,0.839,1.573,1.016,2.447c0.028,0.135,0.147,0.232,0.285,0.232h1.306V-19.338z"/>
		</g>
	</g>
	<g display="inline">
		<g>
			<path fill="#212529" d="M107.547-23.694c-1.764,0-3.194,1.43-3.194,3.194s1.43,3.194,3.194,3.194s3.194-1.43,3.194-3.194
				C110.738-22.263,109.31-23.691,107.547-23.694z M107.547-17.887c-1.443,0-2.613-1.169-2.613-2.613s1.169-2.613,2.613-2.613
				s2.613,1.169,2.613,2.613C110.158-19.058,108.989-17.889,107.547-17.887z"/>
		</g>
	</g>
</g>
<g id="Layer_13">
	<path fill="#212529" d="M108.077-11.545h-1.129c-0.914,0-1.657-0.743-1.657-1.657v-0.382c-0.388-0.124-0.766-0.281-1.128-0.468
		l-0.271,0.271c-0.656,0.657-1.707,0.638-2.344,0l-0.798-0.798c-0.638-0.637-0.656-1.688,0-2.344l0.271-0.271
		c-0.188-0.363-0.345-0.74-0.468-1.128h-0.382c-0.914,0-1.657-0.744-1.657-1.657v-1.129c0-0.914,0.743-1.657,1.657-1.657h0.382
		c0.124-0.388,0.281-0.766,0.468-1.128l-0.271-0.271c-0.656-0.656-0.638-1.707,0-2.344l0.798-0.799c0.638-0.639,1.689-0.655,2.344,0
		l0.271,0.271c0.363-0.188,0.74-0.345,1.128-0.468v-0.382c0-0.914,0.744-1.657,1.657-1.657h1.129c0.914,0,1.657,0.743,1.657,1.657
		v0.382c0.388,0.124,0.766,0.281,1.128,0.468l0.271-0.271c0.656-0.657,1.707-0.638,2.344,0l0.798,0.798
		c0.638,0.637,0.656,1.688,0,2.344l-0.271,0.271c0.188,0.363,0.344,0.74,0.468,1.128h0.382c0.914,0,1.657,0.744,1.657,1.657v1.129
		c0,0.914-0.743,1.657-1.657,1.657h-0.382c-0.124,0.388-0.281,0.766-0.468,1.128l0.271,0.271c0.656,0.655,0.638,1.706,0,2.344
		l-0.798,0.798c-0.638,0.639-1.689,0.655-2.344,0l-0.271-0.27c-0.363,0.187-0.74,0.344-1.128,0.468v0.382
		C109.734-12.288,108.99-11.545,108.077-11.545z M104.338-15.16c0.503,0.297,1.045,0.523,1.611,0.669
		c0.233,0.06,0.396,0.27,0.396,0.511v0.778c0,0.332,0.271,0.603,0.603,0.603h1.129c0.332,0,0.603-0.271,0.603-0.603v-0.778
		c0-0.241,0.163-0.451,0.396-0.511c0.565-0.146,1.108-0.372,1.611-0.669c0.208-0.123,0.471-0.089,0.642,0.081l0.551,0.552
		c0.238,0.238,0.62,0.232,0.852,0l0.799-0.799c0.231-0.231,0.239-0.613,0-0.852l-0.552-0.551c-0.17-0.171-0.204-0.435-0.081-0.642
		c0.297-0.503,0.523-1.046,0.669-1.611c0.06-0.233,0.27-0.396,0.511-0.396h0.778c0.332,0,0.603-0.271,0.603-0.603v-1.129
		c0-0.332-0.271-0.603-0.603-0.603h-0.778c-0.241,0-0.451-0.163-0.511-0.396c-0.146-0.565-0.372-1.107-0.669-1.611
		c-0.123-0.208-0.089-0.471,0.081-0.642l0.552-0.552c0.238-0.238,0.231-0.62,0-0.852l-0.799-0.799c-0.232-0.231-0.614-0.238-0.852,0
		l-0.552,0.552c-0.171,0.17-0.435,0.203-0.642,0.081c-0.503-0.297-1.046-0.523-1.611-0.669c-0.233-0.06-0.396-0.27-0.396-0.511
		v-0.778c0-0.332-0.271-0.603-0.603-0.603h-1.129c-0.332,0-0.603,0.271-0.603,0.603v0.778c0,0.241-0.163,0.451-0.396,0.511
		c-0.565,0.146-1.107,0.372-1.611,0.669c-0.208,0.123-0.471,0.089-0.642-0.081l-0.552-0.552c-0.238-0.238-0.62-0.232-0.852,0
		l-0.799,0.799c-0.231,0.231-0.239,0.613,0,0.852l0.552,0.552c0.17,0.17,0.203,0.434,0.081,0.642
		c-0.297,0.503-0.523,1.045-0.669,1.611c-0.06,0.233-0.27,0.396-0.511,0.396h-0.778c-0.332,0-0.603,0.271-0.603,0.603v1.129
		c0,0.332,0.271,0.603,0.603,0.603h0.778c0.241,0,0.451,0.163,0.511,0.396c0.146,0.565,0.372,1.108,0.669,1.611
		c0.123,0.207,0.089,0.471-0.081,0.642l-0.552,0.551c-0.238,0.238-0.231,0.62,0,0.852l0.799,0.799c0.232,0.231,0.614,0.238,0.852,0
		l0.552-0.552C103.822-15.205,104.083-15.311,104.338-15.16L104.338-15.16z"/>
	<path fill="#212529" d="M107.512-16.629c-2.16,0-3.917-1.756-3.917-3.916s1.757-3.917,3.917-3.917s3.916,1.757,3.916,3.917
		S109.672-16.629,107.512-16.629z M107.512-23.407c-1.578,0-2.862,1.284-2.862,2.862c0,1.578,1.284,2.861,2.862,2.861
		c1.578,0,2.861-1.284,2.861-2.861C110.374-22.123,109.09-23.407,107.512-23.407L107.512-23.407z"/>
</g>
<g id="Layer_4">
	<g>
		<g>
			<path fill="#212529" d="M167.848-27.16h-1.523v-1.518c0-0.477-0.392-0.868-0.869-0.868h-11.1c-0.479,0-0.871,0.391-0.871,0.868
				v13.88c0,0.477,0.393,0.867,0.871,0.867h1.523v1.518c0,0.477,0.392,0.868,0.87,0.868h7.399c0.479,0,1.155-0.268,1.504-0.594
				l2.432-2.281c0.35-0.327,0.634-0.984,0.634-1.461l0.001-10.41C168.719-26.769,168.326-27.16,167.848-27.16z M155.879-26.292
				v11.711h-1.523c-0.118,0-0.218-0.099-0.218-0.216v-13.88c0-0.118,0.1-0.217,0.218-0.217h11.1c0.117,0,0.217,0.099,0.217,0.217
				v1.518h-8.923C156.271-27.159,155.879-26.769,155.879-26.292z M167.637-14.894l-2.432,2.28c-0.05,0.046-0.115,0.092-0.187,0.136
				v-1.995c0-0.149,0.061-0.283,0.16-0.382c0.101-0.099,0.234-0.16,0.384-0.16h2.178C167.706-14.969,167.672-14.927,167.637-14.894z
				 M168.065-15.882c0,0.064-0.012,0.139-0.03,0.216h-2.473c-0.66,0.001-1.195,0.535-1.196,1.193v2.251
				c-0.078,0.015-0.152,0.026-0.218,0.026h-7.399v0c-0.118,0-0.218-0.1-0.218-0.217v-13.879c0-0.117,0.1-0.216,0.218-0.216h11.099
				c0.118,0,0.218,0.099,0.218,0.216V-15.882z"/>
		</g>
	</g>
	<g>
		<g>
			<path fill="#212529" d="M165.455-24.123h-6.312c-0.181,0-0.327,0.146-0.327,0.325s0.146,0.325,0.327,0.325h6.312
				c0.18,0,0.326-0.146,0.326-0.325S165.635-24.123,165.455-24.123z"/>
		</g>
	</g>
	<g>
		<g>
			<path fill="#212529" d="M165.455-19.786h-6.312c-0.181,0-0.327,0.146-0.327,0.325s0.146,0.325,0.327,0.325h6.312
				c0.18,0,0.326-0.146,0.326-0.325S165.635-19.786,165.455-19.786z"/>
		</g>
	</g>
	<g>
		<g>
			<path fill="#212529" d="M162.625-17.617h-3.481c-0.181,0-0.327,0.146-0.327,0.325s0.146,0.325,0.327,0.325h3.481
				c0.181,0,0.326-0.146,0.326-0.325S162.806-17.617,162.625-17.617z"/>
		</g>
	</g>
	<g>
		<g>
			<path fill="#212529" d="M165.455-21.955h-6.312c-0.181,0-0.327,0.146-0.327,0.326c0,0.179,0.146,0.325,0.327,0.325h6.312
				c0.18,0,0.326-0.146,0.326-0.325C165.781-21.809,165.635-21.955,165.455-21.955z"/>
		</g>
	</g>
</g>
<g id="Layer_5">
	<path fill="#212529" d="M134.495-2.505c-4.963,0-9,4.038-9,9c0,4.962,4.038,9,9,9c4.962,0,9-4.038,9-9
		C143.495,1.532,139.458-2.505,134.495-2.505z M139.644,0.55l-5.149,5.149l-5.149-5.149c1.383-1.199,3.181-1.931,5.149-1.931
		C136.463-1.38,138.262-0.649,139.644,0.55z M126.62,6.495c0-1.969,0.731-3.767,1.931-5.15l5.149,5.15l-5.149,5.149
		C127.351,10.262,126.62,8.463,126.62,6.495z M129.345,12.439l5.15-5.148l5.149,5.148c-1.383,1.2-3.181,1.931-5.149,1.931
		C132.526,14.37,130.728,13.639,129.345,12.439L129.345,12.439z M140.439,11.644l-5.148-5.149l5.148-5.149
		c1.199,1.383,1.931,3.181,1.931,5.149C142.37,8.463,141.638,10.262,140.439,11.644L140.439,11.644z"/>
</g>
<g id="Layer_6">
	<path fill="#212529" d="M164.166,3.97c-0.255,0-0.459,0.189-0.459,0.423v7.984c0,0.232,0.204,0.422,0.459,0.422
		s0.46-0.189,0.46-0.422V4.393C164.627,4.159,164.421,3.97,164.166,3.97z"/>
	<path fill="#212529" d="M158.742,3.97c-0.255,0-0.46,0.189-0.46,0.423v7.984c0,0.232,0.205,0.422,0.46,0.422
		c0.254,0,0.459-0.189,0.459-0.422V4.393C159.201,4.159,158.996,3.97,158.742,3.97z"/>
	<path fill="#212529" d="M154.794,2.843v10.386c0,0.613,0.247,1.19,0.677,1.604c0.429,0.415,1.024,0.65,1.648,0.651h8.729
		c0.625-0.001,1.22-0.236,1.649-0.651c0.43-0.414,0.678-0.991,0.678-1.604V2.843c0.855-0.207,1.409-0.962,1.294-1.765
		c-0.114-0.802-0.861-1.401-1.747-1.401h-2.363v-0.527c0.003-0.444-0.188-0.869-0.532-1.182c-0.343-0.313-0.81-0.486-1.295-0.483
		h-4.095c-0.485-0.003-0.952,0.17-1.295,0.483c-0.345,0.313-0.534,0.738-0.532,1.182v0.527h-2.362c-0.886,0-1.634,0.6-1.748,1.401
		C153.384,1.88,153.938,2.636,154.794,2.843z M165.848,14.642h-8.729c-0.789,0-1.402-0.621-1.402-1.413V2.88h11.534v10.349
		C167.251,14.021,166.637,14.642,165.848,14.642z M158.531-0.851c-0.003-0.219,0.091-0.431,0.262-0.585
		c0.171-0.155,0.402-0.24,0.643-0.236h4.095c0.241-0.004,0.474,0.082,0.645,0.236c0.171,0.154,0.265,0.366,0.262,0.585v0.527h-5.905
		V-0.851z M155.246,0.52h12.476c0.458,0,0.83,0.339,0.83,0.758c0,0.419-0.372,0.759-0.83,0.759h-12.476
		c-0.458,0-0.83-0.34-0.83-0.759S154.786,0.52,155.246,0.52z"/>
	<path fill="#212529" d="M161.454,3.97c-0.254,0-0.459,0.189-0.459,0.423v7.984c0,0.232,0.205,0.422,0.459,0.422
		s0.459-0.189,0.459-0.422V4.393C161.913,4.159,161.708,3.97,161.454,3.97z"/>
</g>
<g id="Layer_7">
	<path fill="#212529" d="M190.5-11.545c-4.963,0-9-4.037-9-9s4.037-9,9-9s9,4.037,9,9S195.463-11.545,190.5-11.545z M190.5-28.42
		c-4.343,0-7.875,3.532-7.875,7.875s3.532,7.875,7.875,7.875s7.875-3.532,7.875-7.875S194.843-28.42,190.5-28.42z"/>
	<path fill="#212529" d="M194.438-19.982h-7.875c-0.311,0-0.563-0.252-0.563-0.563s0.252-0.563,0.563-0.563h7.875
		c0.311,0,0.563,0.252,0.563,0.563S194.748-19.982,194.438-19.982z"/>
	<path fill="#212529" d="M190.5-16.045c-0.311,0-0.563-0.252-0.563-0.563v-7.875c0-0.311,0.252-0.563,0.563-0.563
		s0.563,0.252,0.563,0.563v7.875C191.063-16.297,190.811-16.045,190.5-16.045z"/>
</g>
<g id="Layer_8">
	<g>
		<g>
			<path fill="#212529" d="M195.818,31.922h-11.591v-0.643c-0.003-2.484,2.133-4.5,4.77-4.503c1.946-0.001,3.7,1.112,4.429,2.814
				c0.145,0.328,0.543,0.484,0.891,0.35c0.345-0.135,0.512-0.504,0.374-0.831c-1.27-2.962-4.846-4.394-7.988-3.197
				c-2.32,0.885-3.84,3.008-3.838,5.367v0.643h-0.683c-0.376,0-0.682,0.288-0.682,0.643v10.283c0,0.355,0.306,0.643,0.682,0.643
				h13.637c0.377,0,0.682-0.287,0.682-0.643V32.564C196.5,32.209,196.195,31.922,195.818,31.922z M195.137,42.204h-12.272v-8.997
				h12.272V42.204z"/>
		</g>
	</g>
	<g>
		<g>
			<path fill="#212529" d="M190.93,36.412c-0.377-1.003-1.547-1.529-2.611-1.175c-1.064,0.355-1.623,1.457-1.247,2.46
				c0.207,0.55,0.664,0.982,1.247,1.176v1.403c0,0.354,0.305,0.644,0.682,0.644s0.683-0.289,0.683-0.644v-1.403
				C190.747,38.518,191.305,37.417,190.93,36.412z M189,37.706c-0.377,0-0.682-0.287-0.682-0.643s0.305-0.643,0.682-0.643
				s0.683,0.287,0.683,0.643S189.377,37.706,189,37.706z"/>
		</g>
	</g>
</g>
<g id="Layer_9">
	<path fill="#212529" d="M197.813-0.578h-14.625c-0.931,0-1.688,0.785-1.688,1.75v10.5c0,0.965,0.757,1.75,1.688,1.75h14.625
		c0.931,0,1.688-0.785,1.688-1.75v-10.5C199.5,0.207,198.743-0.578,197.813-0.578L197.813-0.578z M197.813,0.588
		c0.077,0,0.149,0.017,0.216,0.045L190.5,7.4l-7.528-6.767c0.066-0.029,0.139-0.045,0.216-0.045H197.813z M197.813,12.255h-14.625
		c-0.311,0-0.563-0.262-0.563-0.583V1.866l7.506,6.747c0.106,0.095,0.238,0.143,0.369,0.143s0.263-0.047,0.369-0.143l7.506-6.747
		v9.806C198.375,11.994,198.123,12.255,197.813,12.255z"/>
</g>
<g id="Layer_10">
	<g>
		<g>
			<path fill="#212529" d="M116.021,0.406l-2.455-2.457c-0.618-0.619-1.694-0.621-2.315,0.001L100.255,9.055
				c-0.048,0.049-0.083,0.109-0.103,0.176l-1.636,5.732c-0.041,0.143-0.001,0.297,0.104,0.402c0.078,0.078,0.182,0.12,0.289,0.12
				c0.038,0,0.076-0.005,0.112-0.016l5.727-1.638c0.066-0.019,0.127-0.054,0.176-0.104l11.096-11.006
				c0.309-0.31,0.479-0.721,0.479-1.158S116.33,0.715,116.021,0.406z M109.468,0.926l1.506,1.506l-7.862,7.862l-0.564-1.129
				c-0.069-0.139-0.211-0.226-0.366-0.226h-0.655L109.468,0.926z M99.505,14.479l0.533-1.865l1.333,1.333L99.505,14.479z
				 M104.228,13.13l-1.958,0.56l-1.975-1.975l0.559-1.958h1.075l0.705,1.41c0.04,0.079,0.104,0.143,0.183,0.183l1.411,0.706V13.13
				L104.228,13.13z M105.045,12.458v-0.655c0-0.155-0.087-0.296-0.226-0.366l-1.129-0.564l7.862-7.862l1.506,1.506L105.045,12.458z
				 M115.443,2.153L113.64,3.94l-3.596-3.596l1.787-1.802c0.309-0.31,0.848-0.31,1.157,0l2.454,2.455
				c0.155,0.154,0.24,0.36,0.24,0.578C115.682,1.794,115.597,1.999,115.443,2.153z"/>
		</g>
	</g>
</g>
<g id="Layer_3" display="none">
	<path display="inline" fill="#212529" d="M115.76,58.335h-0.747v-2.701h-8.546l-1.5-2.1h-5.635c-0.452,0-0.82,0.368-0.82,0.82
		V67.46h0.002c-0.001,0.169,0.051,0.334,0.156,0.473c0.147,0.192,0.37,0.303,0.611,0.303h13.428c0.347,0,0.653-0.234,0.735-0.545
		l3.068-8.412v-0.053C116.513,58.71,116.196,58.335,115.76,58.335z M114.413,56.234v2.101h-2.4v-0.9c0-0.166-0.134-0.301-0.3-0.301
		c-0.166,0-0.3,0.135-0.3,0.301v0.9h-1.5v-0.9c0-0.166-0.134-0.301-0.3-0.301c-0.166,0-0.3,0.135-0.3,0.301v0.9h-1.5v-0.9
		c0-0.166-0.134-0.301-0.3-0.301c-0.166,0-0.3,0.135-0.3,0.301v0.9h-1.5v-0.9c0-0.166-0.134-0.301-0.3-0.301
		c-0.166,0-0.3,0.135-0.3,0.301v0.9h-1.5v-0.9c0-0.166-0.134-0.301-0.3-0.301s-0.3,0.135-0.3,0.301v0.9h-0.681
		c-0.043,0-0.085,0.003-0.126,0.01c-0.292,0.049-0.536,0.262-0.608,0.533l-0.095,0.262l-1.489,4.082v-5.188h1.8v-1.8h5.083H114.413z
		 M100.437,57.435l0.776-0.775v0.775H100.437z M99.112,54.354c0-0.121,0.099-0.221,0.22-0.221h5.326l1.071,1.5h-4.341l-1.976,1.977
		v7.225l-0.3,0.819V54.354z M112.873,67.51c-0.02,0.073-0.087,0.125-0.164,0.125H99.282c-0.073,0-0.116-0.042-0.134-0.066
		c-0.019-0.024-0.048-0.077-0.037-0.122l0.302-0.828l0,0l2.748-7.534l0.008-0.024c0.02-0.074,0.087-0.125,0.164-0.125h12.681h0.747
		c0.114,0,0.143,0.164,0.15,0.246L112.873,67.51z"/>
</g>
<g id="Layer_11">
	<g>
		<g>
			<path fill="#212529" d="M116.378,57.263c-0.101-0.112-0.243-0.177-0.393-0.177h-2.058v-1.857c0-0.294-0.236-0.532-0.527-0.532
				h-9.05V54.06c0-0.294-0.236-0.532-0.528-0.532H99.04c-0.292,0-0.527,0.238-0.527,0.532l0,13.931
				c-0.001,0.123,0.04,0.243,0.118,0.34c0.1,0.124,0.25,0.197,0.409,0.197h15.81c0.269,0,0.495-0.205,0.524-0.475l1.135-10.375
				C116.526,57.527,116.478,57.375,116.378,57.263z M99.567,54.594h3.728v0.635c0,0.295,0.236,0.534,0.527,0.534h9.051v1.323
				h-11.724c-0.25,0-0.466,0.178-0.517,0.425l-1.065,5.242V54.594z M114.377,67.46h-14.69l1.892-9.308h13.817L114.377,67.46z"/>
		</g>
	</g>
</g>
<g id="Layer_12">
	<g id="surface1">
		<path fill="#212529" d="M108.716,25.647c-0.087-0.088-0.206-0.14-0.33-0.14H101c-1.363,0-2.488,1.065-2.488,2.36v13.278
			c0,1.296,1.125,2.361,2.488,2.361h10.024c1.363,0,2.488-1.065,2.488-2.361V30.604c0-0.113-0.055-0.222-0.132-0.305L108.716,25.647
			z M108.848,27.043l3.124,3.116h-2.031c-0.603,0-1.093-0.46-1.093-1.034V27.043z M111.024,42.638H101
			c-0.855,0-1.573-0.674-1.573-1.491V27.868c0-0.813,0.714-1.49,1.573-1.49h6.934v2.747c0,1.057,0.896,1.904,2.007,1.904h2.657
			v10.117C112.598,41.964,111.885,42.638,111.024,42.638z"/>
		<path fill="#212529" d="M109.776,39.639h-7.527c-0.252,0-0.457,0.195-0.457,0.435c0,0.238,0.205,0.435,0.457,0.435h7.532
			c0.251,0,0.458-0.196,0.458-0.435C110.238,39.834,110.032,39.639,109.776,39.639z"/>
		<path fill="#212529" d="M105.678,38.077c0.087,0.088,0.206,0.14,0.334,0.14s0.247-0.052,0.334-0.14l2.68-2.734
			c0.173-0.175,0.16-0.452-0.022-0.614c-0.184-0.164-0.476-0.151-0.646,0.022l-1.888,1.926v-4.746c0-0.24-0.206-0.436-0.458-0.436
			c-0.251,0-0.457,0.195-0.457,0.436v4.746l-1.884-1.926c-0.174-0.174-0.461-0.187-0.645-0.022c-0.183,0.166-0.196,0.44-0.022,0.614
			L105.678,38.077z"/>
	</g>
</g>
<g id="Layer_14">
	<path fill="#212529" d="M139.728-24.273l-0.795,0.796l2.415,2.415h-7.972v1.125h7.972l-2.415,2.415l0.795,0.795L143.5-20.5
		L139.728-24.273z"/>
	<path fill="#212529" d="M137.875-12.625h-11.25v-15.75h11.25v1.125H139v-1.688c0-0.311-0.251-0.563-0.562-0.563h-12.375
		c-0.311,0-0.563,0.251-0.563,0.563v16.875c0,0.312,0.251,0.563,0.563,0.563h12.375c0.311,0,0.562-0.251,0.562-0.563v-1.688h-1.125
		V-12.625z"/>
</g>
<g id="Layer_15">
	<path fill="#212529" d="M161.469,34.486c-2.521,0-4.571-2.019-4.571-4.501c0-2.481,2.051-4.5,4.571-4.5
		c2.521,0,4.571,2.019,4.571,4.5C166.04,32.468,163.99,34.486,161.469,34.486z M161.469,26.61c-1.89,0-3.428,1.514-3.428,3.375
		c0,1.86,1.538,3.375,3.428,3.375c1.891,0,3.428-1.515,3.428-3.375C164.896,28.124,163.359,26.61,161.469,26.61z"/>
	<path fill="#212529" d="M168.897,43.485h-14.856c-0.317,0-0.572-0.251-0.572-0.562v-3.873c0-0.581,0.302-1.127,0.787-1.426
		c4.291-2.635,10.138-2.635,14.426-0.001c0.486,0.3,0.787,0.846,0.787,1.427v3.873C169.469,43.234,169.214,43.485,168.897,43.485z
		 M154.612,42.361h13.714v-3.311c0-0.195-0.096-0.377-0.25-0.473c-3.923-2.411-9.288-2.412-13.214,0.001
		c-0.154,0.095-0.25,0.276-0.25,0.472V42.361z"/>
</g>
<g id="Layer_16">
	<path fill="#212529" d="M136.664,25.573c-0.059-0.057-0.139-0.088-0.222-0.088h-8.75c-1.208,0.001-2.186,0.94-2.188,2.1v13.801
		c0.001,1.159,0.98,2.099,2.188,2.1h10.625c1.208-0.001,2.186-0.94,2.188-2.1v-12c0-0.08-0.033-0.156-0.092-0.212L136.664,25.573z
		 M136.755,26.51l2.683,2.576h-1.121c-0.862-0.001-1.562-0.673-1.563-1.501V26.51z M127.693,26.086h8.438v1.499
		c0.001,1.159,0.979,2.099,2.187,2.101h1.563v8.4h-13.75V27.585C126.131,26.757,126.83,26.087,127.693,26.086z M138.317,42.886
		h-10.625c-0.863-0.001-1.562-0.672-1.563-1.5v-2.7h13.75v2.7C139.879,42.214,139.18,42.885,138.317,42.886z"/>
	<path fill="#212529" d="M132.38,41.686h-0.938v-2.1c0-0.166-0.14-0.3-0.312-0.3c-0.173,0-0.313,0.134-0.313,0.3v2.399
		c0,0.166,0.14,0.301,0.313,0.301h1.25c0.172,0,0.313-0.135,0.313-0.301S132.553,41.686,132.38,41.686z"/>
	<path fill="#212529" d="M130.02,39.317c-0.154-0.074-0.342-0.014-0.419,0.134l-0.345,0.664l-0.346-0.664
		c-0.079-0.147-0.267-0.206-0.42-0.131c-0.152,0.074-0.214,0.252-0.139,0.399l0.555,1.065l-0.555,1.066
		c-0.079,0.148-0.018,0.328,0.136,0.403s0.342,0.017,0.421-0.131c0-0.001,0.001-0.002,0.002-0.004l0.346-0.664l0.345,0.664
		c0.076,0.148,0.263,0.21,0.418,0.138c0.155-0.073,0.219-0.253,0.143-0.402c-0.001-0.002-0.001-0.003-0.002-0.004l-0.555-1.066
		l0.555-1.065C130.237,39.571,130.174,39.392,130.02,39.317z"/>
	<path fill="#212529" d="M137.52,39.317c-0.154-0.074-0.342-0.014-0.419,0.134l-0.346,0.664l-0.346-0.664
		c-0.078-0.147-0.266-0.206-0.42-0.131c-0.152,0.074-0.214,0.252-0.139,0.399l0.555,1.065l-0.555,1.066
		c-0.078,0.148-0.017,0.328,0.137,0.403s0.342,0.017,0.42-0.131c0.001-0.001,0.001-0.002,0.002-0.004l0.346-0.664l0.346,0.664
		c0.076,0.148,0.263,0.21,0.418,0.138c0.155-0.073,0.219-0.253,0.143-0.402c0-0.002-0.001-0.003-0.002-0.004l-0.555-1.066
		l0.555-1.065C137.736,39.571,137.674,39.392,137.52,39.317z"/>
	<path fill="#212529" d="M134.255,39.885h0.625c0.173,0,0.313-0.134,0.313-0.299c0-0.166-0.14-0.3-0.313-0.3h-0.625
		c-0.518,0-0.938,0.402-0.938,0.899s0.42,0.9,0.938,0.9c0.172,0,0.313,0.135,0.313,0.3c0,0.166-0.14,0.3-0.313,0.3h-0.625
		c-0.172,0-0.313,0.134-0.313,0.3s0.14,0.301,0.313,0.301h0.625c0.518,0,0.937-0.404,0.937-0.9c0-0.497-0.419-0.9-0.937-0.9
		c-0.173,0-0.313-0.134-0.313-0.3C133.943,40.021,134.083,39.885,134.255,39.885z"/>
	<path fill="#212529" d="M128.005,36.286h10c0.173,0,0.313-0.135,0.313-0.301v-5.4c0-0.165-0.14-0.299-0.313-0.299h-7.187v-1.501
		c0-0.166-0.14-0.3-0.313-0.3h-2.5c-0.172,0-0.312,0.134-0.312,0.3v7.2C127.693,36.151,127.833,36.286,128.005,36.286z
		 M135.192,33.885h-1.875v-1.199h1.875V33.885z M135.818,32.686h1.875v1.199h-1.875V32.686z M128.317,32.686h1.875v1.199h-1.875
		V32.686z M130.818,32.686h1.875v1.199h-1.875V32.686z M132.693,34.485v1.2h-1.875v-1.2H132.693z M133.317,34.485h1.875v1.2h-1.875
		V34.485z M133.317,32.086v-1.201h1.875v1.201H133.317z M132.693,32.086h-1.875v-1.201h1.875V32.086z M130.192,32.086h-1.875v-1.201
		h1.875V32.086z M128.317,34.485h1.875v1.2h-1.875V34.485z M135.818,35.686v-1.2h1.875v1.2H135.818z M137.693,32.086h-1.875v-1.201
		h1.875V32.086z M128.317,29.086h1.875v1.2h-1.875V29.086z"/>
</g>
</svg>
