<?xml version="1.0" encoding="utf-8"?>
<!-- Generator: Adobe Illustrator 16.0.0, SVG Export Plug-In . SVG Version: 6.00 Build 0)  -->
<!DOCTYPE svg PUBLIC "-//W3C//DTD SVG 1.1//EN" "http://www.w3.org/Graphics/SVG/1.1/DTD/svg11.dtd">
<svg version="1.1" xmlns="http://www.w3.org/2000/svg" xmlns:xlink="http://www.w3.org/1999/xlink" x="0px" y="0px" width="96px"
	 height="192px" viewBox="0 0 96 192" enable-background="new 0 0 96 192" xml:space="preserve">
<g id="Layer_1">
	<g id="Layer_1_2_">
		<g display="none">
			<rect x="0.027" y="0.002" display="inline" fill="#FFFAFA" width="24" height="24"/>
			<rect x="24.027" y="0.002" display="inline" fill="#FFFAFA" width="24" height="24"/>
			<rect x="48.027" y="0.002" display="inline" fill="#FFFAFA" width="24" height="24"/>
			<rect x="72.027" y="0.002" display="inline" fill="#FFFAFA" width="24" height="24"/>
		</g>
		<g display="none">
			<rect x="0.027" y="24.002" display="inline" fill="#FFFAFA" width="24" height="24"/>
			<rect x="24.027" y="24.002" display="inline" fill="#FFFAFA" width="24" height="24"/>
			<rect x="48.027" y="24.002" display="inline" fill="#FFFAFA" width="24" height="24"/>
			<rect x="72.027" y="24.002" display="inline" fill="#FFFAFA" width="24" height="24"/>
		</g>
		<g display="none">
			<rect x="0.027" y="48.001" display="inline" fill="#FFFAFA" width="24" height="24"/>
			<rect x="24.027" y="48.001" display="inline" fill="#FFFAFA" width="24" height="24"/>
			<rect x="48.027" y="48.001" display="inline" fill="#FFFAFA" width="24" height="24"/>
			<rect x="72.027" y="48.001" display="inline" fill="#FFFAFA" width="24" height="24"/>
		</g>
		<g display="none">
			<rect x="0.027" y="72.001" display="inline" fill="#FFFAFA" width="24" height="24"/>
			<rect x="24.027" y="72.001" display="inline" fill="#FFFAFA" width="24" height="24"/>
			<rect x="48.027" y="72.001" display="inline" fill="#FFFAFA" width="24" height="24"/>
			<rect x="72.027" y="72.001" display="inline" fill="#FFFAFA" width="24" height="24"/>
		</g>
		<g display="none">
			<rect x="0.111" y="96" display="inline" fill="#FFFAFA" width="24" height="24"/>
			<rect x="24.111" y="96" display="inline" fill="#FFFAFA" width="24" height="24"/>
			<rect x="48.111" y="96" display="inline" fill="#FFFAFA" width="24" height="24"/>
			<rect x="72.111" y="96" display="inline" fill="#FFFAFA" width="24" height="24"/>
		</g>
		<g display="none">
			<rect x="0.111" y="120" display="inline" fill="#FFFAFA" width="24" height="24"/>
			<rect x="24.111" y="120" display="inline" fill="#FFFAFA" width="24" height="24"/>
			<rect x="48.111" y="120" display="inline" fill="#FFFAFA" width="24" height="24"/>
			<rect x="72.111" y="120" display="inline" fill="#FFFAFA" width="24" height="24"/>
		</g>
		<g display="none">
			<rect x="0.027" y="144" display="inline" fill="#FFFAFA" width="24" height="24"/>
			<rect x="24.027" y="144" display="inline" fill="#FFFAFA" width="24" height="24"/>
			<rect x="48.027" y="144" display="inline" fill="#FFFAFA" width="24" height="24"/>
			<rect x="72.027" y="144" display="inline" fill="#FFFAFA" width="24" height="24"/>
		</g>
		<g display="none">
			<rect x="0.027" y="168" display="inline" fill="#FFFAFA" width="24" height="24"/>
			<rect x="24.027" y="168" display="inline" fill="#FFFAFA" width="24" height="24"/>
			<rect x="48.027" y="168" display="inline" fill="#FFFAFA" width="24" height="24"/>
			<rect x="72.027" y="168" display="inline" fill="#FFFAFA" width="24" height="24"/>
		</g>
		<g transform="translate(52,164)">
			<path fill="#282828" d="M-43.314-150.931L-40.91-148h-6.563v-8l2.771,3.38c1.357-1.396,3.112-2.237,5.027-2.237
				c3.243,0,6.021,2.411,7.201,5.714l-1.874,1.144c-0.879-2.733-2.935-4.48-5.326-4.571
				C-41.047-152.51-42.314-151.911-43.314-150.931z"/>
		</g>
		<g transform="translate(0,2172)">
			<path fill="#282828" d="M39.906-2158.93l-2.403,2.932h6.563v-8l-2.772,3.38c-1.358-1.396-3.112-2.237-5.026-2.237
				c-3.243,0-6.021,2.409-7.201,5.714l1.875,1.145c0.878-2.733,2.935-4.48,5.326-4.571
				C37.641-2160.509,38.906-2159.911,39.906-2158.93z"/>
		</g>
		<g transform="translate(0,934)">
			<path fill="#282828" d="M64.033-924.998v-1c0-2.5-1.934-4-4-4c-2.068,0-4,1.5-4,4v1h-0.5c-0.83,0-1.5,0.671-1.5,1.5v7
				c0,0.829,0.67,1.5,1.5,1.5h9c0.828,0,1.5-0.671,1.5-1.5v-7c0-0.829-0.672-1.5-1.5-1.5H64.033z M58.033-919.998
				c0-1.104,0.896-2,2-2c1.105,0,2,0.896,2,2c0,1.105-0.895,2-2,2C58.926-917.998,58.033-918.891,58.033-919.998z M58.033-924.998
				v-1c0-1,0.719-2,2-2s2,1,2,2v1H58.033z"/>
		</g>
		<g>
			<path fill="#282828" d="M90.014,10.502c0-0.829-0.672-1.5-1.5-1.5h-0.5v-1c0-2.5-1.932-4-4-4c-1.779,0-3.457,1.109-3.893,3.009
				c0.287,0,1.383,0,2.139,0c0.314-0.578,0.914-1.009,1.754-1.009c1.281,0,2,1,2,2v1h-3.5h-2.5h-0.5c-0.83,0-1.5,0.671-1.5,1.5v7
				c0,0.829,0.67,1.5,1.5,1.5h9c0.828,0,1.5-0.671,1.5-1.5V10.502L90.014,10.502z M81.693,13.902c0-1.104,0.896-2,2-2s2,0.896,2,2
				s-0.896,2-2,2C82.59,15.902,81.693,15.006,81.693,13.902z"/>
		</g>
		<g>
			<path fill="#282828" d="M12.091,30.654h6.478c0.258,0,0.466-0.213,0.466-0.477V29.7c0-0.264-0.208-0.477-0.466-0.477h-6.478
				c-0.258,0-0.466,0.213-0.466,0.477v0.477C11.625,30.441,11.833,30.654,12.091,30.654z"/>
			<path fill="#282828" d="M18.569,32.227h-5.604c-0.258,0-0.467,0.213-0.467,0.476v0.478c0,0.263,0.208,0.476,0.467,0.476h5.604
				c0.258,0,0.466-0.213,0.466-0.476v-0.478C19.033,32.44,18.825,32.227,18.569,32.227z"/>
			<path fill="#282828" d="M18.569,35.228H13.84c-0.258,0-0.467,0.213-0.467,0.478v0.477c0,0.264,0.208,0.477,0.467,0.477h4.729
				c0.258,0,0.466-0.213,0.466-0.477v-0.477C19.033,35.442,18.825,35.228,18.569,35.228z"/>
			<path fill="#282828" d="M18.569,38.563h-3.858c-0.257,0-0.465,0.214-0.465,0.479v0.477c0,0.265,0.208,0.478,0.465,0.478h3.857
				c0.258,0,0.466-0.213,0.466-0.478v-0.478C19.033,38.776,18.825,38.563,18.569,38.563z"/>
			<path fill="#282828" d="M18.569,41.565h-2.986c-0.256,0-0.465,0.213-0.465,0.478v0.478c0,0.264,0.208,0.479,0.465,0.479h2.985
				c0.258,0,0.466-0.213,0.466-0.479v-0.478C19.033,41.782,18.825,41.565,18.569,41.565z"/>
			<path fill="#282828" d="M5.169,32.839l0.328,0.337c0.088,0.089,0.206,0.14,0.329,0.14c0.124,0,0.241-0.05,0.328-0.14l1.601-1.64
				V42.28c0,0.265,0.209,0.478,0.465,0.478h0.465c0.257,0,0.466-0.213,0.466-0.478V31.537l1.6,1.64
				c0.089,0.089,0.206,0.14,0.329,0.14s0.24-0.05,0.329-0.14l0.328-0.337c0.183-0.187,0.183-0.486,0-0.674l-2.952-3.027
				c-0.088-0.089-0.205-0.14-0.329-0.14c-0.123,0-0.239,0.051-0.329,0.14l-2.951,3.027C4.987,32.352,4.987,32.653,5.169,32.839z"/>
		</g>
		<g>
			<path fill="#282828" d="M36.976,41.343h-6.478c-0.258,0-0.466,0.213-0.466,0.478v0.476c0,0.265,0.208,0.478,0.466,0.478h6.478
				c0.259,0,0.466-0.213,0.466-0.478V41.82C37.441,41.556,37.233,41.343,36.976,41.343z"/>
			<path fill="#282828" d="M30.498,39.77h5.604c0.256,0,0.465-0.213,0.465-0.477v-0.478c0-0.263-0.207-0.476-0.465-0.476h-5.604
				c-0.258,0-0.466,0.213-0.466,0.476v0.478C30.035,39.558,30.242,39.77,30.498,39.77z"/>
			<path fill="#282828" d="M30.498,36.769h4.729c0.258,0,0.467-0.213,0.467-0.477v-0.478c0-0.263-0.209-0.479-0.467-0.479h-4.729
				c-0.258,0-0.466,0.214-0.466,0.479v0.478C30.035,36.554,30.242,36.769,30.498,36.769z"/>
			<path fill="#282828" d="M30.498,33.434h3.857c0.257,0,0.465-0.213,0.465-0.477v-0.479c0-0.263-0.208-0.476-0.465-0.476h-3.857
				c-0.258,0-0.466,0.213-0.466,0.476v0.478C30.035,33.22,30.242,33.434,30.498,33.434z"/>
			<path fill="#282828" d="M30.498,30.431h2.985c0.256,0,0.465-0.213,0.465-0.478v-0.478c0-0.264-0.208-0.477-0.465-0.477h-2.985
				c-0.258,0-0.466,0.213-0.466,0.477v0.478C30.035,30.217,30.242,30.431,30.498,30.431z"/>
			<path fill="#282828" d="M43.898,39.159l-0.329-0.338c-0.087-0.088-0.205-0.14-0.328-0.14c-0.125,0-0.242,0.05-0.328,0.14
				l-1.601,1.64V29.717c0-0.264-0.209-0.478-0.465-0.478h-0.465c-0.259,0-0.468,0.214-0.468,0.478v10.742l-1.6-1.639
				c-0.088-0.09-0.205-0.141-0.328-0.141s-0.24,0.05-0.328,0.141l-0.33,0.338c-0.182,0.186-0.182,0.485,0,0.672l2.953,3.029
				c0.088,0.09,0.205,0.139,0.328,0.139s0.24-0.049,0.329-0.139l2.952-3.029C44.079,39.645,44.079,39.344,43.898,39.159z"/>
		</g>
		<g transform="translate(52,1540)">
			<polygon fill="#282828" points="1.033,-1511.001 1.033,-1509.834 7.033,-1502.834 7.033,-1497.001 9.033,-1498.167 
				9.033,-1502.834 15.033,-1509.834 15.033,-1511.001 			"/>
		</g>
		<g transform="translate(0,4182)">
			<path fill="#282828" d="M86.717-4153.001h-8.615c-0.592,0-1.076,0.45-1.076,1v3c0,0.55,0.484,1,1.076,1h8.615
				c0.592,0,1.076-0.45,1.076-1v-1h1.076v3h-7.537v8h2.154v-6h7.537v-6h-3.23v-1C87.795-4152.552,87.309-4153.001,86.717-4153.001z"
				/>
		</g>
		<g transform="translate(40,3908)">
			<path fill="#282828" d="M-23.499-3850.721c0-1.93-1.653-3.5-3.685-3.5h-5.789v12h6.579c1.884,0,3.421-1.46,3.421-3.25
				c0-1.301-0.81-2.41-1.969-2.93C-24.067-3848.981-23.499-3849.841-23.499-3850.721z M-27.71-3852.221
				c0.874,0,1.579,0.67,1.579,1.5s-0.705,1.5-1.579,1.5h-2.104v-3H-27.71z M-29.814-3844.221v-3h2.631c0.874,0,1.579,0.67,1.579,1.5
				s-0.705,1.5-1.579,1.5H-29.814z"/>
		</g>
		<g transform="translate(52,1734)">
			<polygon fill="#282828" points="-17.433,-1679.501 -17.433,-1677.501 -14.852,-1677.501 -18.514,-1669.501 -21.433,-1669.501 
				-21.433,-1667.501 -13.432,-1667.501 -13.432,-1669.501 -16.015,-1669.501 -12.352,-1677.501 -9.432,-1677.501 -9.432,-1679.501 
							"/>
		</g>
		<g transform="translate(26,2750)">
			<path fill="#282828" d="M35.033-2685.001c3.221,0,5.832-2.24,5.832-5v-7h-2.332v7c0,1.75-1.752,3-3.5,3c-1.75,0-3.5-1.241-3.5-3
				v-7h-2.334v7C29.199-2687.242,31.813-2685.001,35.033-2685.001z M28.033-2684.001v2h14v-2H28.033z"/>
		</g>
		<g>
			<rect x="77.014" y="65.999" fill="#282828" width="14" height="2"/>
			<path fill="#282828" d="M81.422,61.999h5.186l1.226,3h2.185l-4.902-12H82.93l-4.912,12h2.184L81.422,61.999z M84.018,55.669
				l1.771,4.33H82.25L84.018,55.669z"/>
		</g>
		<g>
			<g>
				<path fill="#282828" d="M18.339,86.728c0,0-1.663,1.908-1.663,3.084c0,0.974,0.744,1.761,1.663,1.761
					c0.918,0,1.664-0.788,1.664-1.761C20.004,88.635,18.339,86.728,18.339,86.728z"/>
				<path fill="#282828" d="M8.87,76.598l-1.178,1.247l1.978,2.097l-4.28,4.531c-0.487,0.516-0.487,1.354,0,1.868l4.576,4.845
					c0.241,0.258,0.561,0.386,0.883,0.386c0.32,0,0.642-0.127,0.882-0.387l4.576-4.845c0.488-0.514,0.488-1.352,0-1.868L8.87,76.598
					z M6.862,85.405l3.989-4.219l3.989,4.219H6.862z"/>
			</g>
		</g>
		<g>
			<path fill="#282828" d="M18.434,149H5.623c-0.328,0-0.596,0.268-0.596,0.598V162.4c0,0.328,0.268,0.603,0.596,0.603h12.78
				c0.326,0,0.594-0.271,0.623-0.565v-12.839C19.028,149.268,18.76,149,18.434,149z M17.839,150.162v2.111H6.189v-2.111H17.839z
				 M10.29,157.039v-3.572h3.447v3.572H10.29z M13.737,158.229v3.605h-3.446v-3.605H13.737z M9.102,157.039H6.189v-3.572h2.913
				V157.039L9.102,157.039z M14.926,153.467h2.913v3.572h-2.913V153.467z M6.189,158.229h2.913v3.605H6.189V158.229z
				 M14.926,161.832v-3.604h2.913v3.604H14.926L14.926,161.832z"/>
		</g>
		<g transform="translate(26,3666)">
			<path fill="#282828" d="M27.475-3574.915h10v-2h-10V-3574.915z M37.475-3584.914h-10v2h10V-3584.914z M27.475-3588.914v2h14v-2
				H27.475z M27.475-3578.915h14v-2h-14V-3578.915z"/>
		</g>
		<g transform="translate(20,3492)">
			<path fill="#282828" d="M59.035-3403v2h10v-2H59.035z M59.035-3410.999v2h10v-2H59.035z M57.035-3405h14v-2h-14V-3405z
				 M57.035-3414.999v2h14v-2H57.035z"/>
		</g>
		<g transform="translate(20,868)">
			<path fill="#282828" d="M61.014-752.99h10v-2h-10V-752.99z M57.014-756.99h14v-2h-14V-756.99z M57.014-766.99v2h14v-2H57.014z
				 M61.014-760.99h10v-2h-10V-760.99z"/>
		</g>
		<g>
			<g>
				<path fill="#282828" d="M44.566,112.219h-1.125v-8.938c0-0.896-0.673-1.625-1.5-1.625h-12c-0.827,0-1.501,0.729-1.501,1.625
					v8.938h-1.123c-0.208,0-0.376,0.184-0.376,0.406v0.406c0,0.896,0.674,1.625,1.5,1.625h15.001c0.825,0,1.5-0.729,1.5-1.625
					v-0.406C44.941,112.4,44.774,112.219,44.566,112.219z M41.942,112.219h-3.751c-0.058,0-0.116,0.016-0.167,0.043l-0.671,0.363
					H34.53l-0.671-0.363c-0.051-0.027-0.11-0.043-0.166-0.043h-3.75v-8.938h12L41.942,112.219L41.942,112.219z"/>
				<g>
					<path fill="#282828" d="M32.347,107.09c-0.092,0.107-0.199,0.186-0.324,0.246c-0.124,0.055-0.263,0.08-0.417,0.08
						c-0.139,0-0.267-0.021-0.385-0.07c-0.118-0.047-0.221-0.113-0.306-0.197c-0.086-0.084-0.154-0.184-0.205-0.295
						c-0.049-0.113-0.075-0.233-0.075-0.365c0-0.133,0.025-0.254,0.075-0.366c0.051-0.117,0.118-0.214,0.205-0.298
						c0.086-0.084,0.188-0.147,0.306-0.196c0.118-0.047,0.246-0.072,0.385-0.072c0.148,0,0.279,0.025,0.392,0.074
						c0.114,0.051,0.214,0.121,0.302,0.219l-0.246,0.229c-0.055-0.063-0.118-0.111-0.19-0.146c-0.071-0.035-0.156-0.057-0.255-0.057
						c-0.086,0-0.167,0.016-0.243,0.045c-0.076,0.025-0.142,0.068-0.198,0.123c-0.056,0.053-0.1,0.117-0.132,0.191
						c-0.033,0.076-0.049,0.16-0.049,0.254s0.016,0.18,0.049,0.252c0.032,0.076,0.076,0.141,0.132,0.192
						c0.057,0.054,0.122,0.095,0.198,0.123c0.075,0.029,0.157,0.043,0.243,0.043c0.104,0,0.196-0.02,0.276-0.063
						c0.08-0.039,0.152-0.099,0.214-0.173L32.347,107.09z"/>
					<path fill="#282828" d="M32.627,105.592h0.35v0.713h0.777v-0.713h0.351v1.785h-0.351v-0.752h-0.777v0.752h-0.35V105.592z"/>
					<path fill="#282828" d="M35.018,105.592h0.399l0.695,1.785h-0.384l-0.154-0.426H34.86l-0.154,0.426h-0.384L35.018,105.592z
						 M35.461,106.641l-0.166-0.445l-0.067-0.215h-0.021l-0.068,0.215l-0.165,0.445H35.461z"/>
					<path fill="#282828" d="M36.329,105.592h0.677c0.093,0,0.178,0.016,0.253,0.043c0.075,0.029,0.141,0.066,0.195,0.117
						c0.055,0.051,0.097,0.107,0.125,0.178c0.029,0.068,0.044,0.146,0.044,0.227c0,0.062-0.011,0.115-0.031,0.168
						c-0.021,0.052-0.049,0.103-0.086,0.144c-0.035,0.043-0.078,0.078-0.125,0.111c-0.048,0.03-0.099,0.059-0.154,0.075
						l-0.002,0.019l0.497,0.687v0.021h-0.4l-0.479-0.67H36.68v0.67h-0.349v-1.787L36.329,105.592L36.329,105.592z M37.002,106.398
						c0.079,0,0.145-0.022,0.195-0.069c0.05-0.046,0.077-0.105,0.077-0.179c0-0.028-0.007-0.063-0.018-0.094
						c-0.011-0.027-0.029-0.055-0.051-0.078c-0.022-0.022-0.051-0.039-0.084-0.057c-0.034-0.014-0.072-0.021-0.116-0.021h-0.328
						v0.496h0.325V106.398z"/>
					<path fill="#282828" d="M38.815,106.398h0.907c0.005,0.021,0.009,0.041,0.014,0.068c0.003,0.031,0.004,0.059,0.004,0.088
						c0,0.113-0.018,0.223-0.054,0.324c-0.036,0.1-0.093,0.191-0.17,0.27c-0.084,0.086-0.183,0.15-0.298,0.197
						c-0.115,0.047-0.247,0.068-0.396,0.068c-0.134,0-0.261-0.021-0.38-0.068c-0.118-0.047-0.222-0.111-0.31-0.195
						c-0.088-0.082-0.158-0.18-0.208-0.295c-0.053-0.113-0.079-0.235-0.079-0.371c0-0.137,0.026-0.258,0.079-0.375
						c0.05-0.11,0.121-0.211,0.208-0.295c0.088-0.082,0.191-0.146,0.31-0.19c0.12-0.05,0.246-0.07,0.38-0.07
						c0.149,0,0.283,0.025,0.402,0.076c0.119,0.047,0.22,0.117,0.305,0.205l-0.241,0.228c-0.061-0.063-0.128-0.107-0.202-0.142
						c-0.075-0.031-0.163-0.049-0.266-0.049c-0.085,0-0.165,0.016-0.242,0.043c-0.077,0.026-0.142,0.069-0.199,0.125
						c-0.056,0.053-0.102,0.114-0.136,0.19c-0.034,0.076-0.051,0.16-0.051,0.254c0,0.095,0.017,0.176,0.051,0.25
						c0.034,0.076,0.079,0.142,0.137,0.195c0.057,0.051,0.125,0.094,0.2,0.121c0.076,0.031,0.156,0.043,0.244,0.043
						c0.097,0,0.18-0.012,0.25-0.041c0.069-0.025,0.126-0.063,0.174-0.105c0.035-0.026,0.064-0.065,0.09-0.11
						c0.024-0.043,0.044-0.099,0.057-0.154h-0.582V106.4h0.002V106.398z"/>
					<path fill="#282828" d="M40.379,105.912v0.41h0.743v0.319h-0.743v0.414h0.826v0.32h-1.176v-1.783h1.176v0.32L40.379,105.912
						L40.379,105.912z"/>
					<path fill="#282828" d="M34.068,109.799c-0.092,0.107-0.199,0.186-0.324,0.244c-0.123,0.057-0.264,0.082-0.415,0.082
						c-0.139,0-0.269-0.021-0.386-0.07c-0.118-0.049-0.221-0.113-0.307-0.199c-0.085-0.082-0.154-0.182-0.204-0.295
						c-0.05-0.113-0.076-0.231-0.076-0.365c0-0.131,0.025-0.254,0.076-0.366c0.05-0.117,0.118-0.212,0.204-0.298
						c0.088-0.082,0.189-0.146,0.307-0.194c0.117-0.047,0.247-0.072,0.386-0.072c0.147,0,0.278,0.025,0.391,0.074
						c0.113,0.051,0.213,0.119,0.301,0.219l-0.245,0.229c-0.056-0.063-0.118-0.111-0.19-0.148c-0.071-0.033-0.156-0.055-0.255-0.055
						c-0.088,0-0.167,0.016-0.244,0.045c-0.077,0.025-0.142,0.068-0.197,0.123c-0.058,0.051-0.1,0.113-0.133,0.189
						c-0.032,0.075-0.049,0.162-0.049,0.254c0,0.096,0.018,0.18,0.049,0.252c0.033,0.076,0.076,0.143,0.133,0.194
						c0.056,0.054,0.121,0.095,0.197,0.123c0.075,0.027,0.156,0.043,0.244,0.043c0.104,0,0.195-0.02,0.274-0.063
						c0.081-0.039,0.152-0.099,0.213-0.173L34.068,109.799z"/>
					<path fill="#282828" d="M35.198,110.125c-0.138,0-0.266-0.023-0.384-0.072c-0.119-0.049-0.22-0.113-0.306-0.199
						c-0.088-0.082-0.155-0.182-0.203-0.295c-0.05-0.113-0.074-0.236-0.074-0.365s0.024-0.252,0.074-0.364
						c0.048-0.111,0.117-0.212,0.203-0.298c0.086-0.082,0.187-0.149,0.306-0.194c0.118-0.049,0.246-0.074,0.384-0.074
						c0.138,0,0.266,0.025,0.384,0.074c0.118,0.045,0.22,0.11,0.307,0.194c0.087,0.086,0.154,0.187,0.202,0.298
						c0.05,0.112,0.075,0.235,0.075,0.364s-0.025,0.25-0.075,0.365c-0.048,0.113-0.117,0.213-0.202,0.295
						c-0.087,0.086-0.188,0.15-0.307,0.199C35.465,110.102,35.336,110.125,35.198,110.125z M35.198,109.805
						c0.087,0,0.167-0.016,0.242-0.043c0.076-0.031,0.141-0.07,0.198-0.125c0.055-0.053,0.099-0.117,0.132-0.193
						c0.032-0.073,0.048-0.157,0.048-0.25c0-0.09-0.017-0.176-0.048-0.252c-0.033-0.071-0.077-0.139-0.132-0.19
						c-0.057-0.054-0.122-0.097-0.198-0.125c-0.075-0.027-0.155-0.043-0.242-0.043c-0.085,0-0.167,0.016-0.242,0.043
						c-0.075,0.028-0.141,0.071-0.197,0.125c-0.056,0.053-0.1,0.119-0.133,0.19c-0.031,0.076-0.047,0.162-0.047,0.252
						c0,0.093,0.017,0.177,0.047,0.25c0.03,0.076,0.075,0.142,0.133,0.193c0.056,0.055,0.122,0.094,0.197,0.125
						C35.031,109.789,35.112,109.805,35.198,109.805z"/>
					<path fill="#282828" d="M36.448,108.301h0.626c0.147,0,0.279,0.021,0.396,0.066c0.118,0.041,0.218,0.104,0.301,0.182
						c0.084,0.08,0.146,0.174,0.19,0.285c0.044,0.109,0.067,0.229,0.067,0.361c0,0.131-0.023,0.25-0.067,0.36
						c-0.044,0.109-0.106,0.203-0.19,0.283c-0.083,0.076-0.183,0.137-0.301,0.183c-0.116,0.043-0.248,0.063-0.396,0.063h-0.626
						V108.301z M37.059,109.764c0.102,0,0.191-0.012,0.269-0.039c0.078-0.027,0.143-0.063,0.193-0.115
						c0.053-0.049,0.092-0.11,0.117-0.182c0.026-0.07,0.04-0.146,0.04-0.234c0-0.086-0.013-0.166-0.04-0.233
						c-0.025-0.072-0.064-0.131-0.117-0.183c-0.051-0.051-0.117-0.09-0.193-0.116c-0.077-0.027-0.167-0.039-0.269-0.039h-0.261
						v1.146h0.261V109.764z"/>
					<path fill="#282828" d="M38.658,108.621v0.412h0.743v0.317h-0.743v0.414h0.826v0.32h-1.175v-1.783h1.175v0.318L38.658,108.621
						L38.658,108.621z"/>
				</g>
			</g>
		</g>
		<g>
			<path fill="#282828" d="M54.564,104.545h7.447c0.356,0,0.645-0.303,0.645-0.676c0-0.375-0.289-0.68-0.645-0.68h-7.447
				l1.475-1.552c0.25-0.264,0.25-0.69,0-0.955c-0.252-0.266-0.658-0.266-0.91,0l-2.572,2.703c-0.016,0.017-0.029,0.031-0.041,0.052
				c-0.008,0.008-0.012,0.018-0.02,0.022c-0.008,0.008-0.012,0.021-0.021,0.026c-0.004,0.013-0.01,0.021-0.018,0.027
				c-0.006,0.012-0.012,0.02-0.016,0.029c-0.006,0.01-0.01,0.02-0.015,0.031c-0.006,0.008-0.01,0.018-0.014,0.024
				c-0.002,0.011-0.009,0.021-0.013,0.031c-0.002,0.01-0.01,0.021-0.012,0.028c-0.002,0.013-0.006,0.021-0.01,0.031
				c-0.002,0.012-0.004,0.021-0.006,0.033c-0.002,0.01-0.002,0.023-0.008,0.037c0,0.008-0.002,0.02-0.002,0.025
				c-0.002,0.047-0.002,0.092,0,0.135c0,0.01,0.002,0.021,0.002,0.029c0.006,0.014,0.006,0.022,0.008,0.037
				c0.002,0.012,0.004,0.021,0.006,0.03c0.004,0.013,0.008,0.021,0.01,0.031s0.01,0.021,0.014,0.031
				c0.002,0.012,0.009,0.021,0.011,0.026c0.004,0.012,0.008,0.021,0.014,0.029c0.005,0.012,0.009,0.021,0.015,0.031
				c0.004,0.01,0.01,0.02,0.016,0.025c0.008,0.012,0.014,0.021,0.018,0.03c0.01,0.009,0.014,0.021,0.021,0.025
				c0.008,0.01,0.012,0.02,0.02,0.022c0.012,0.019,0.025,0.033,0.041,0.051l0,0l2.572,2.705c0.252,0.269,0.658,0.269,0.91,0
				c0.25-0.264,0.25-0.69,0-0.955L54.564,104.545z"/>
			<path fill="#282828" d="M68.217,109.518c0.008-0.006,0.012-0.014,0.018-0.02c0.007-0.014,0.015-0.021,0.021-0.031
				c0.004-0.01,0.014-0.021,0.018-0.029s0.013-0.018,0.019-0.024c0.004-0.013,0.008-0.021,0.015-0.031
				c0.004-0.008,0.01-0.019,0.014-0.026c0.002-0.011,0.006-0.021,0.01-0.029c0.006-0.012,0.01-0.021,0.012-0.033
				s0.008-0.02,0.01-0.029c0.002-0.012,0.004-0.023,0.006-0.031c0.002-0.014,0.006-0.022,0.009-0.037
				c0-0.01,0.004-0.021,0.004-0.028c0.002-0.043,0.002-0.086,0-0.136c0-0.008-0.004-0.02-0.004-0.026
				c-0.003-0.01-0.007-0.022-0.009-0.035c-0.002-0.01-0.004-0.021-0.006-0.032c-0.002-0.011-0.008-0.021-0.01-0.031
				c-0.002-0.008-0.006-0.021-0.012-0.029c-0.004-0.012-0.008-0.021-0.01-0.031c-0.004-0.01-0.01-0.02-0.014-0.029
				c-0.007-0.01-0.011-0.02-0.015-0.028c-0.006-0.011-0.015-0.019-0.019-0.023c-0.004-0.014-0.014-0.022-0.018-0.03
				c-0.008-0.011-0.016-0.021-0.021-0.027c-0.006-0.01-0.01-0.018-0.018-0.023c-0.014-0.016-0.027-0.033-0.041-0.049
				c0,0,0,0,0-0.004l-2.572-2.703c-0.252-0.264-0.66-0.264-0.91,0c-0.252,0.264-0.252,0.689,0,0.957l1.476,1.551h-7.448
				c-0.357,0-0.646,0.305-0.646,0.68c0,0.371,0.284,0.679,0.646,0.679h7.448l-1.476,1.549c-0.252,0.265-0.252,0.693,0,0.959
				c0.25,0.267,0.658,0.265,0.91,0l2.572-2.707l0,0C68.189,109.551,68.203,109.535,68.217,109.518z"/>
		</g>
		<g transform="translate(0,3512)">
			<polygon fill="#282828" points="19.514,-3377.6 17.764,-3376 12.514,-3380.799 7.264,-3376 5.514,-3377.6 12.514,-3384 			"/>
		</g>
		<g transform="translate(0,3512)">
			<polygon fill="#282828" points="29.36,-3382.4 31.11,-3384 36.36,-3379.199 41.61,-3384 43.36,-3382.4 36.36,-3376 			"/>
		</g>
		<g transform="translate(40,2528)">
			<g>
				<path fill="#282828" d="M20.004-2403.057c-1.402,0.01-2.57,0.799-2.838,1.844c-0.096,0.26-0.141,0.428-0.141,0.428
					s-0.055,0.215-0.06,0.234l-0.356,1.668h-1.168v0.836h1.084l-1.271,6.271c0,0-0.475,2.203-1.191,2.656
					c-0.399,0.25-0.881,0.287-1.028,0.252c0.424-0.06,0.743-0.406,0.743-0.836c0.002-0.021-0.002-0.099-0.008-0.117
					c-0.055-0.377-0.36-0.676-0.744-0.711c-0.012-0.004-0.022-0.004-0.034-0.004c-0.031,0-0.039,0-0.048,0
					c-0.459,0-0.832,0.373-0.832,0.834c0,0.022,0.002,0.051,0.002,0.074c0,0.032-0.002,0.069-0.002,0.106
					c0,0.217,0.035,0.416,0.104,0.596l0.027,0.058c0,0,0.282,0.811,1.547,0.811s1.877-0.797,2.334-1.682
					c0.271-0.524,0.474-1.313,0.588-1.865l0.104-0.553c0.009-0.062,0.015-0.088,0.015-0.088l1.112-5.805h2.5v-0.834H18.18
					l0.063-0.312l0.146-0.772c0.063-0.326,0.137-0.609,0.223-0.854c0.087-0.242,0.191-0.438,0.318-0.6
					c0.125-0.156,0.273-0.273,0.451-0.348c0.174-0.076,0.385-0.113,0.631-0.113c0.133,0,0.254,0.012,0.361,0.035
					c0.063,0.014,0.125,0.026,0.178,0.043c-0.068,0.121-0.109,0.262-0.109,0.412c0,0.461,0.373,0.836,0.834,0.836
					c0.382,0,0.703-0.259,0.804-0.607c0.021-0.047,0.03-0.119,0.03-0.229c0-0.654-0.424-1.222-1.041-1.494
					c-0.061-0.031-0.131-0.057-0.207-0.078c-0.194-0.063-0.405-0.098-0.627-0.098c-0.028,0-0.057,0.002-0.086,0.002
					C20.102-2403.055,20.053-2403.057,20.004-2403.057z"/>
				<path fill="#282828" d="M18.775-2392.205v0.834h2.504l-0.002-0.834h-0.502l1.959-2.086l1.041,2.086h-0.414l-0.002,0.834h2.707
					v-0.834H25.65c-0.229,0-0.492-0.17-0.584-0.383l-1.291-2.955l2.397-2.219c0.17-0.158,0.494-0.285,0.724-0.285h0.213v-0.836
					h-2.502l0.002,0.836h0.863l-2.111,1.918l-1.064-1.918h0.438v-0.836h-2.709v0.836h0.416c0.23,0,0.504,0.174,0.604,0.369
					l1.271,2.551l-2.428,2.619c-0.154,0.168-0.473,0.303-0.697,0.303H18.775L18.775-2392.205z"/>
			</g>
		</g>
		<g transform="translate(0,2018)">
			<polygon fill="#282828" points="80.111,-1887.125 84.111,-1883.125 88.111,-1887.125 			"/>
		</g>
		<g>
			<g id="group-25svg">
				<path id="path-1_16_" fill="#282828" stroke="#282828" stroke-width="0.5" stroke-miterlimit="10" d="M43.111,89.069
					c0,1.244-1.009,2.254-2.254,2.254h-9.491c-1.246,0-2.254-1.01-2.254-2.254v-9.493c0-1.245,1.009-2.254,2.254-2.254h9.491
					c1.245,0,2.254,1.009,2.254,2.254V89.069z M42.399,79.577c0-0.852-0.69-1.542-1.542-1.542h-9.491
					c-0.853,0-1.543,0.691-1.543,1.542v9.493c0,0.852,0.69,1.541,1.543,1.541h9.491c0.852,0,1.542-0.689,1.542-1.541V79.577z"/>
				<path id="path-2_16_" fill="#282828" stroke="#282828" stroke-width="0.5" stroke-miterlimit="10" d="M38.721,91.204
					c-0.197,0-0.356-0.158-0.356-0.355V77.797c0-0.197,0.159-0.356,0.356-0.356c0.196,0,0.356,0.159,0.356,0.356v13.052
					C39.077,91.046,38.917,91.204,38.721,91.204z"/>
				<path id="path-3_15_" fill="#282828" stroke="#282828" stroke-width="0.5" stroke-miterlimit="10" d="M34.688,91.204
					c-0.197,0-0.356-0.158-0.356-0.355V77.797c0-0.197,0.159-0.356,0.356-0.356c0.196,0,0.355,0.159,0.355,0.356v13.052
					C35.043,91.046,34.883,91.204,34.688,91.204z"/>
				<path id="path-4_11_" fill="#282828" stroke="#282828" stroke-width="0.5" stroke-miterlimit="10" d="M42.535,84.441h-3.797
					c-0.196,0-0.355-0.159-0.355-0.356c0-0.196,0.16-0.355,0.355-0.355h3.797c0.196,0,0.356,0.159,0.356,0.355
					C42.891,84.282,42.732,84.441,42.535,84.441z"/>
				<path id="path-5_6_" fill="#282828" stroke="#282828" stroke-width="0.5" stroke-miterlimit="10" d="M42.535,87.526h-3.797
					c-0.196,0-0.355-0.16-0.355-0.355c0-0.197,0.16-0.357,0.355-0.357h3.797c0.196,0,0.356,0.16,0.356,0.357
					C42.891,87.366,42.732,87.526,42.535,87.526z"/>
			</g>
		</g>
		<g>
			<path fill="#282828" d="M35.554,159.193c0.213,0.207,0.56,0.207,0.773,0l2.347-2.258c0.214-0.207,0.214-0.541,0-0.746
				c-0.214-0.205-0.561-0.205-0.774,0l-1.411,1.357v-3.811c0-0.291-0.246-0.525-0.548-0.525c-0.302,0-0.547,0.234-0.547,0.525v3.811
				l-1.411-1.357c-0.214-0.205-0.561-0.205-0.774,0s-0.214,0.539,0,0.746L35.554,159.193z"/>
			<path fill="#282828" d="M38.286,160.555h-4.691c-0.303,0-0.549,0.236-0.549,0.527s0.246,0.527,0.549,0.527h4.691
				c0.303,0,0.549-0.236,0.549-0.527S38.59,160.555,38.286,160.555z"/>
			<path fill="#282828" d="M41.219,147h-8.211c-0.146,0-0.285,0.055-0.388,0.152l-3.519,3.391c-0.103,0.098-0.161,0.232-0.161,0.373
				v12.426c0,0.914,0.772,1.658,1.722,1.658h10.557c0.946,0,1.722-0.738,1.722-1.658v-14.688C42.941,147.744,42.175,147,41.219,147z
				 M33.046,148.232v2.117c0,0.332-0.279,0.604-0.625,0.604h-2.197L33.046,148.232z M41.845,163.342
				c0,0.328-0.274,0.602-0.626,0.602H30.662c-0.346,0-0.626-0.27-0.626-0.602v-11.334h2.385c0.949,0,1.721-0.744,1.721-1.658v-2.297
				h7.077c0.341,0,0.626,0.266,0.626,0.604V163.342z"/>
		</g>
	</g>
	<g id="Layer_2">
		<path fill="#282828" stroke="#282828" stroke-width="0.3" stroke-miterlimit="10" d="M93.477,147.088v1.127v6.748H92.35v-5.85
			l-8.1,8.102l-0.9-0.902l8.103-8.098h-5.849v-1.127H93.477z M92.352,161.713h-13.5v-13.498h4.5v-1.127h-3.875
			c-0.963,0-1.75,0.787-1.75,1.75v12.25c0,0.961,0.787,1.75,1.75,1.75h12.25c0.963,0,1.75-0.789,1.75-1.75v-3.875H92.35v4.5H92.352z
			 M76.602,151.588h-1.125v11.904c0,1.236,0.515,1.596,1.752,1.596h11.748v-1.127H76.602V151.588z"/>
	</g>
	<g id="Layer_3">
		<g>
			<g>
				<path fill="#282828" stroke="#282828" stroke-width="0.2" stroke-miterlimit="10" d="M60.016,156.9H60.01
					c-0.195,0-0.352,0.156-0.352,0.353c0,0.192,0.156,0.349,0.352,0.349h0.006c0.193,0,0.353-0.154,0.353-0.349
					C60.367,157.057,60.211,156.9,60.016,156.9z"/>
			</g>
		</g>
		<g>
			<g>
				<path fill="#282828" stroke="#282828" stroke-width="0.3" stroke-miterlimit="10" d="M68.91,152.139l-3.754-3.729
					c-0.064-0.066-0.154-0.104-0.248-0.104h-0.01H51.365c-0.193,0-0.354,0.156-0.354,0.351v15.303c0,0.191,0.157,0.35,0.354,0.35
					H68.66c0.193,0,0.354-0.158,0.354-0.35v-11.572C69.012,152.295,68.977,152.205,68.91,152.139z M55.479,149.006h9.068v5.172
					h-9.068V149.006z M68.309,163.607h-1.195v-6.354c0-0.192-0.155-0.353-0.352-0.353h-5.563c-0.195,0-0.354,0.156-0.354,0.353
					c0,0.192,0.158,0.349,0.354,0.349h5.213v6.01H53.613v-6.01h5.215c0.195,0,0.354-0.154,0.354-0.349
					c0-0.195-0.158-0.353-0.354-0.353h-5.564c-0.195,0-0.354,0.156-0.354,0.353v6.354h-1.193v-14.602h3.057v5.52
					c0,0.193,0.158,0.351,0.354,0.351H64.9c0.192,0,0.354-0.156,0.354-0.351v-5.033l3.057,3.039v11.076H68.309z"/>
			</g>
		</g>
		<g>
			<g>
				<path fill="#282828" stroke="#282828" stroke-width="0.2" stroke-miterlimit="10" d="M64.23,158.789h-8.438
					c-0.192,0-0.353,0.154-0.353,0.348c0,0.194,0.156,0.35,0.353,0.35h8.438c0.194,0,0.354-0.153,0.354-0.35
					C64.584,158.943,64.426,158.789,64.23,158.789z"/>
			</g>
		</g>
		<g>
			<g>
				<path fill="#282828" stroke="#282828" stroke-width="0.2" stroke-miterlimit="10" d="M64.23,160.186h-1.726
					c-0.192,0-0.353,0.156-0.353,0.351s0.156,0.35,0.353,0.35h1.726c0.194,0,0.354-0.155,0.354-0.35S64.426,160.186,64.23,160.186z"
					/>
			</g>
		</g>
		<g>
			<g>
				<path fill="#282828" stroke="#282828" stroke-width="0.2" stroke-miterlimit="10" d="M61.352,160.186h-0.004
					c-0.195,0-0.352,0.156-0.352,0.351s0.156,0.35,0.352,0.35h0.004c0.195,0,0.354-0.155,0.354-0.35
					C61.703,160.342,61.547,160.186,61.352,160.186z"/>
			</g>
		</g>
		<g>
			<g>
				<path fill="#282828" stroke="#282828" stroke-width="0.2" stroke-miterlimit="10" d="M60.215,160.186h-4.42
					c-0.195,0-0.354,0.156-0.354,0.351s0.158,0.35,0.354,0.35h4.42c0.193,0,0.35-0.155,0.35-0.35S60.408,160.186,60.215,160.186z"/>
			</g>
		</g>
		<g>
			<g>
				<path fill="#282828" stroke="#282828" stroke-width="0.2" stroke-miterlimit="10" d="M64.23,161.582h-8.438
					c-0.192,0-0.353,0.156-0.353,0.352c0,0.191,0.156,0.35,0.353,0.35h8.438c0.194,0,0.354-0.155,0.354-0.35
					C64.584,161.738,64.426,161.582,64.23,161.582z"/>
			</g>
		</g>
		<g>
			<g>
				<path fill="#282828" d="M63.664,149.496H62.26c-0.195,0-0.354,0.154-0.354,0.35v3.492c0,0.193,0.158,0.35,0.354,0.35h1.404
					c0.193,0,0.354-0.154,0.354-0.35v-3.492C64.016,149.65,63.857,149.496,63.664,149.496z M63.313,152.988h-0.703v-2.795h0.703
					V152.988z"/>
			</g>
		</g>
	</g>
	<g>
		<g>
			<path fill="#282828" stroke="#282828" stroke-width="0.4" stroke-miterlimit="10" d="M14.515,180.236
				c-0.081-0.082-0.202-0.111-0.311-0.078c-0.069,0.02-0.127,0.029-0.179,0.029c-0.345,0-0.625-0.279-0.625-0.625
				c0-0.054,0.01-0.109,0.03-0.177c0.002-0.008-0.001-0.014,0-0.021c0.411-0.323,1.134-0.551,1.806-0.381
				c0.397,0.121,0.664,0.479,0.664,0.89c0,0.063-0.009,0.133-0.026,0.211c-0.023,0.104,0.009,0.215,0.084,0.289l0.658,0.659
				c0.062,0.062,0.142,0.091,0.222,0.091s0.159-0.029,0.221-0.091l1.875-1.875c0.122-0.122,0.122-0.319,0-0.442l-0.658-0.658
				c-0.076-0.075-0.188-0.106-0.29-0.084c-0.077,0.019-0.146,0.025-0.21,0.025c-0.518,0-0.938-0.42-0.938-0.938
				c0-0.065,0.01-0.139,0.031-0.225c0.026-0.104-0.005-0.215-0.08-0.293l-1.729-1.768c-0.945-0.943-2.2-1.465-3.535-1.465
				c-1.012,0-1.681,0.336-2.327,0.657c-0.13,0.063-0.198,0.211-0.165,0.353c0.033,0.141,0.16,0.24,0.305,0.24
				c1.433,0,1.97,0.536,2.591,1.159c0.46,0.459,0.068,1.679-0.313,2.058l-0.56,0.561l-3.281-3.281v-0.445
				c0-0.336-0.181-0.646-0.473-0.813l-1.873-1.069c-0.121-0.068-0.275-0.05-0.376,0.051l-0.938,0.938
				c-0.099,0.1-0.12,0.254-0.05,0.377l1.069,1.871c0.167,0.293,0.479,0.473,0.814,0.473h0.445l3.117,3.117l-0.403,0.252
				c-0.821,0.514-1.531,1.166-2.111,1.939c-0.666,0.887-1.472,1.648-2.395,2.264c-0.362,0.242-0.578,0.646-0.578,1.082
				c0,0.348,0.135,0.674,0.381,0.92l0.671,0.672c0.246,0.244,0.573,0.379,0.92,0.379c0.436,0,0.84-0.215,1.081-0.578
				c0.615-0.922,1.377-1.729,2.265-2.395c0.711-0.531,1.314-1.182,1.831-1.957c0.206,0.102,0.352,0.311,0.352,0.555
				c0,0.053-0.01,0.109-0.03,0.18c-0.034,0.109-0.004,0.23,0.078,0.312l3.977,3.978c0.344,0.344,0.802,0.535,1.288,0.535
				c0.485,0,0.943-0.191,1.287-0.535l0.366-0.365c0.345-0.344,0.534-0.801,0.534-1.289c0-0.486-0.189-0.943-0.534-1.287
				L14.515,180.236z M12.059,178.223c0.571-0.572,1.085-2.17,0.313-2.943c-0.457-0.457-0.958-0.957-1.846-1.196
				c0.295-0.088,0.62-0.146,1-0.146c1.168,0,2.267,0.455,3.098,1.287l1.604,1.641c-0.01,0.068-0.015,0.134-0.015,0.197
				c0,0.92,0.778,1.674,1.735,1.553l0.322,0.322l-1.433,1.435l-0.323-0.322c0.007-0.06,0.011-0.117,0.011-0.174
				c0-0.687-0.444-1.283-1.12-1.49c-0.854-0.215-1.742,0.041-2.298,0.443l-0.203-0.203c-0.254-0.254-0.627-0.347-0.969-0.279
				L12.059,178.223z M6.747,175.904c-0.059-0.06-0.138-0.092-0.221-0.092H5.951c-0.111,0-0.216-0.062-0.271-0.156l-0.951-1.666
				l0.6-0.601l1.665,0.951c0.098,0.058,0.158,0.16,0.158,0.271v0.574c0,0.084,0.032,0.164,0.091,0.223l3.686,3.685l-0.495,0.496
				L6.747,175.904z M8.968,183.59c-0.944,0.709-1.755,1.566-2.41,2.549c-0.226,0.338-0.752,0.389-1.038,0.102l-0.672-0.672
				c-0.127-0.127-0.197-0.297-0.197-0.477c0-0.227,0.112-0.436,0.3-0.563c0.981-0.652,1.839-1.463,2.548-2.408
				c0.533-0.713,1.188-1.313,1.942-1.785l0.525-0.328l0.023,0.023l-0.026,0.026c-0.202,0.201-0.313,0.47-0.313,0.755
				c0,0.284,0.11,0.555,0.313,0.756l0.448,0.446c0.018,0.019,0.042,0.023,0.063,0.035C10.051,182.637,9.548,183.156,8.968,183.59z
				 M18.05,186.348l-0.366,0.365c-0.453,0.451-1.239,0.451-1.692,0l-3.854-3.855c0.009-0.059,0.014-0.112,0.014-0.17
				c0-0.744-0.643-1.36-1.42-1.235l-0.326-0.326c-0.083-0.082-0.129-0.193-0.129-0.313c0-0.117,0.046-0.229,0.129-0.313l1.434-1.432
				c0.167-0.168,0.457-0.168,0.625,0l0.325,0.323c-0.009,0.06-0.013,0.115-0.013,0.171c0,0.745,0.643,1.358,1.419,1.237l3.855,3.854
				c0.226,0.227,0.351,0.526,0.351,0.846C18.401,185.82,18.276,186.121,18.05,186.348z"/>
		</g>
	</g>
	<g>
		<g>
			<path fill="#282828" stroke="#282828" stroke-width="0.1" stroke-miterlimit="10" d="M19.715,102.691
				c-0.209-0.26-0.46-0.391-0.755-0.391H5.093c-0.294,0-0.546,0.131-0.755,0.391c-0.208,0.263-0.312,0.574-0.312,0.943v9.334
				c0,0.367,0.104,0.682,0.312,0.941c0.209,0.262,0.46,0.391,0.755,0.391H18.96c0.294,0,0.546-0.129,0.755-0.391
				c0.208-0.26,0.312-0.574,0.312-0.941v-9.334C20.026,103.266,19.922,102.953,19.715,102.691z M18.96,112.969H5.093v-9.334H18.96
				V112.969z"/>
			<path fill="#282828" stroke="#282828" stroke-width="0.1" stroke-miterlimit="10" d="M6.293,111.635h0.8
				c0.088,0,0.133-0.055,0.133-0.166v-1.002c0-0.109-0.044-0.166-0.133-0.166h-0.8c-0.089,0-0.134,0.057-0.134,0.166v1.002
				C6.16,111.58,6.204,111.635,6.293,111.635z"/>
			<path fill="#282828" stroke="#282828" stroke-width="0.1" stroke-miterlimit="10" d="M6.293,108.967H8.16
				c0.089,0,0.134-0.055,0.134-0.166v-1c0-0.111-0.045-0.166-0.134-0.166H6.293c-0.089,0-0.134,0.055-0.134,0.166v1
				C6.16,108.912,6.204,108.967,6.293,108.967z"/>
			<path fill="#282828" stroke="#282828" stroke-width="0.1" stroke-miterlimit="10" d="M6.293,106.301h0.8
				c0.088,0,0.133-0.055,0.133-0.166v-1c0-0.111-0.044-0.166-0.133-0.166h-0.8c-0.089,0-0.134,0.055-0.134,0.166v1
				C6.16,106.246,6.204,106.301,6.293,106.301z"/>
			<path fill="#282828" stroke="#282828" stroke-width="0.1" stroke-miterlimit="10" d="M15.627,110.301H8.426
				c-0.088,0-0.133,0.057-0.133,0.166v1.002c0,0.109,0.044,0.166,0.133,0.166h7.2c0.089,0,0.133-0.055,0.133-0.166v-1.002
				C15.76,110.357,15.715,110.301,15.627,110.301z"/>
			<path fill="#282828" stroke="#282828" stroke-width="0.1" stroke-miterlimit="10" d="M9.359,108.801
				c0,0.111,0.045,0.166,0.134,0.166h0.8c0.089,0,0.133-0.055,0.133-0.166v-1c0-0.111-0.044-0.166-0.133-0.166h-0.8
				c-0.089,0-0.134,0.055-0.134,0.166V108.801L9.359,108.801z"/>
			<path fill="#282828" stroke="#282828" stroke-width="0.1" stroke-miterlimit="10" d="M8.426,106.301h0.8
				c0.089,0,0.133-0.055,0.133-0.166v-1c0-0.111-0.044-0.166-0.133-0.166h-0.8c-0.088,0-0.133,0.055-0.133,0.166v1
				C8.293,106.246,8.338,106.301,8.426,106.301z"/>
			<path fill="#282828" stroke="#282828" stroke-width="0.1" stroke-miterlimit="10" d="M11.493,108.801
				c0,0.111,0.044,0.166,0.133,0.166h0.8c0.089,0,0.134-0.055,0.134-0.166v-1c0-0.111-0.044-0.166-0.134-0.166h-0.8
				c-0.089,0-0.133,0.055-0.133,0.166V108.801L11.493,108.801z"/>
			<path fill="#282828" stroke="#282828" stroke-width="0.1" stroke-miterlimit="10" d="M10.56,106.301h0.8
				c0.089,0,0.133-0.055,0.133-0.166v-1c0-0.111-0.044-0.166-0.133-0.166h-0.8c-0.088,0-0.133,0.055-0.133,0.166v1
				C10.426,106.246,10.471,106.301,10.56,106.301z"/>
			<path fill="#282828" stroke="#282828" stroke-width="0.1" stroke-miterlimit="10" d="M13.627,108.801
				c0,0.111,0.044,0.166,0.133,0.166h0.799c0.089,0,0.133-0.055,0.133-0.166v-1c0-0.111-0.044-0.166-0.133-0.166H13.76
				c-0.089,0-0.133,0.055-0.133,0.166V108.801z"/>
			<path fill="#282828" stroke="#282828" stroke-width="0.1" stroke-miterlimit="10" d="M17.76,110.301h-0.8
				c-0.089,0-0.133,0.057-0.133,0.166v1.002c0,0.109,0.044,0.166,0.133,0.166h0.8c0.089,0,0.133-0.055,0.133-0.166v-1.002
				C17.893,110.357,17.85,110.301,17.76,110.301z"/>
			<path fill="#282828" stroke="#282828" stroke-width="0.1" stroke-miterlimit="10" d="M12.693,106.301h0.8
				c0.088,0,0.133-0.055,0.133-0.166v-1c0-0.111-0.045-0.166-0.133-0.166h-0.8c-0.089,0-0.133,0.055-0.133,0.166v1
				C12.56,106.246,12.604,106.301,12.693,106.301z"/>
			<path fill="#282828" stroke="#282828" stroke-width="0.1" stroke-miterlimit="10" d="M14.827,106.301h0.8
				c0.089,0,0.133-0.055,0.133-0.166v-1c0-0.111-0.044-0.166-0.133-0.166h-0.8c-0.089,0-0.134,0.055-0.134,0.166v1
				C14.693,106.246,14.738,106.301,14.827,106.301z"/>
			<path fill="#282828" stroke="#282828" stroke-width="0.1" stroke-miterlimit="10" d="M15.76,108.801
				c0,0.111,0.044,0.166,0.133,0.166h1.867c0.089,0,0.133-0.055,0.133-0.166v-3.666c0-0.111-0.043-0.166-0.133-0.166h-0.8
				c-0.089,0-0.133,0.055-0.133,0.166v2.5h-0.934c-0.088,0-0.133,0.055-0.133,0.166V108.801L15.76,108.801z"/>
		</g>
	</g>
</g>
<g id="Layer_2_1_">
	<g>
		<g>
			<path fill="#282828" d="M34.703,181.245c0-0.2-0.165-0.363-0.367-0.363h-1.278c-0.203,0-0.367,0.163-0.367,0.363v1.281
				c0,0.199,0.164,0.365,0.367,0.365h1.278c0.202,0,0.367-0.166,0.367-0.365V181.245L34.703,181.245z"/>
			<path fill="#282828" d="M37.899,181.245c0-0.2-0.165-0.363-0.367-0.363h-1.28c-0.201,0-0.367,0.163-0.367,0.363v1.281
				c0,0.199,0.166,0.365,0.367,0.365h1.28c0.202,0,0.367-0.166,0.367-0.365V181.245z"/>
			<path fill="#282828" d="M41.095,181.245c0-0.2-0.166-0.363-0.368-0.363h-1.278c-0.202,0-0.366,0.163-0.366,0.363v1.281
				c0,0.199,0.164,0.365,0.366,0.365h1.278c0.202,0,0.368-0.166,0.368-0.365V181.245z"/>
			<path fill="#282828" d="M34.703,184.443c0-0.204-0.165-0.366-0.367-0.366h-1.278c-0.203,0-0.367,0.162-0.367,0.366v1.276
				c0,0.203,0.164,0.367,0.367,0.367h1.278c0.202,0,0.367-0.164,0.367-0.367V184.443L34.703,184.443z"/>
			<path fill="#282828" d="M37.899,184.443c0-0.204-0.165-0.366-0.367-0.366h-1.28c-0.201,0-0.367,0.162-0.367,0.366v1.276
				c0,0.203,0.166,0.367,0.367,0.367h1.28c0.202,0,0.367-0.164,0.367-0.367V184.443z"/>
			<path fill="#282828" d="M41.095,184.443c0-0.204-0.166-0.366-0.368-0.366h-1.278c-0.202,0-0.366,0.162-0.366,0.366v1.276
				c0,0.203,0.164,0.367,0.366,0.367h1.278c0.202,0,0.368-0.164,0.368-0.367V184.443L41.095,184.443z"/>
			<path fill="#282828" d="M43.379,174.138v1.954c0,0.882-0.715,1.594-1.597,1.594h-1.008c-0.883,0-1.608-0.712-1.608-1.594v-1.959
				h-4.544v1.959c0,0.882-0.725,1.594-1.608,1.594h-1.009c-0.881,0-1.597-0.712-1.597-1.594v-1.954
				c-0.771,0.026-1.405,0.663-1.405,1.449v11.44c0,0.8,0.648,1.457,1.446,1.457h12.892c0.798,0,1.446-0.657,1.446-1.457v-11.44
				C44.785,174.801,44.151,174.164,43.379,174.138z M42.912,186.315c0,0.346-0.28,0.624-0.625,0.624H31.471
				c-0.345,0-0.625-0.278-0.625-0.624v-5.912c0-0.345,0.279-0.623,0.625-0.623h10.815c0.345,0,0.625,0.278,0.625,0.623V186.315
				L42.912,186.315z"/>
			<path fill="#282828" d="M32,176.64h0.999c0.302,0,0.546-0.246,0.546-0.55v-3.199c0-0.304-0.244-0.549-0.546-0.549H32
				c-0.301,0-0.546,0.245-0.546,0.549v3.199C31.454,176.394,31.699,176.64,32,176.64z"/>
			<path fill="#282828" d="M40.759,176.64h1c0.301,0,0.547-0.246,0.547-0.55v-3.199c0-0.304-0.246-0.549-0.547-0.549h-1
				c-0.301,0-0.546,0.245-0.546,0.549v3.199C40.213,176.394,40.458,176.64,40.759,176.64z"/>
		</g>
	</g>
</g>
</svg>
