<?xml version="1.0" encoding="utf-8"?>
<!-- Generator: Adobe Illustrator 16.0.0, SVG Export Plug-In . SVG Version: 6.00 Build 0)  -->
<!DOCTYPE svg PUBLIC "-//W3C//DTD SVG 1.1//EN" "http://www.w3.org/Graphics/SVG/1.1/DTD/svg11.dtd" [
	<!ENTITY ns_flows "http://ns.adobe.com/Flows/1.0/">
	<!ENTITY ns_extend "http://ns.adobe.com/Extensibility/1.0/">
	<!ENTITY ns_ai "http://ns.adobe.com/AdobeIllustrator/10.0/">
	<!ENTITY ns_graphs "http://ns.adobe.com/Graphs/1.0/">
	<!ENTITY ns_vars "http://ns.adobe.com/Variables/1.0/">
	<!ENTITY ns_imrep "http://ns.adobe.com/ImageReplacement/1.0/">
	<!ENTITY ns_sfw "http://ns.adobe.com/SaveForWeb/1.0/">
	<!ENTITY ns_custom "http://ns.adobe.com/GenericCustomNamespace/1.0/">
	<!ENTITY ns_adobe_xpath "http://ns.adobe.com/XPath/1.0/">
]>
<svg version="1.1" xmlns:x="&ns_extend;" xmlns:i="&ns_ai;" xmlns:graph="&ns_graphs;"
	 xmlns="http://www.w3.org/2000/svg" xmlns:xlink="http://www.w3.org/1999/xlink" xmlns:a="http://ns.adobe.com/AdobeSVGViewerExtensions/3.0/"
	 x="0px" y="0px" width="252px" height="75px" viewBox="0 0 252 75" enable-background="new 0 0 252 75" xml:space="preserve">
<metadata>
	<sfw  xmlns="&ns_sfw;">
		<slices></slices>
		<sliceSourceBounds  width="250.126" height="72.365" y="-108.271" x="1.204" bottomLeftOrigin="true"></sliceSourceBounds>
	</sfw>
</metadata>
<g id="Layer_1">
	<g id="Group_3_1_">
		<g id="Rounded_Rectangle_3">
			<g>
				<path fill="#2196F2" d="M69.03,1.406H5.532c-2.39,0-4.328,2.2-4.328,4.915V45.65c0,2.715,1.937,4.916,4.328,4.916H69.03
					c2.39,0,4.33-2.201,4.33-4.916V6.321C73.36,3.606,71.42,1.406,69.03,1.406z"/>
			</g>
		</g>
		<g id="Rectangle_5">
			<g>
				<path fill="#FFFFFF" d="M53.554,28.838c0.11-0.619,0-1.131,0-1.131V12.951h-4.919v13.117H32.239v-8.198L20.762,28.526
					l11.477,10.657v-8.197h18.035c1.999,0,2.818-0.821,3.139-1.64h0.141V28.838z"/>
			</g>
		</g>
		<g id="Clik.ai">
			<g>
				<path fill="#2196F2" d="M81.307,25.429C81.371,12.769,91.993,2.474,104.791,2.41c5.631,0,10.751,1.854,14.782,4.987
					c1.536,1.279,1.792,3.517,0.64,5.116c-1.28,1.598-3.648,1.854-5.12,0.704c-2.815-2.302-6.334-3.517-10.302-3.517
					c-4.415,0-8.51,1.79-11.518,4.604c-2.88,2.941-4.671,6.778-4.671,11.125c0,4.349,1.792,8.313,4.671,11.127
					c3.008,2.813,7.103,4.604,11.518,4.604c3.968,0,7.423-1.217,10.302-3.518c1.472-1.086,3.84-0.832,5.12,0.703
					c1.152,1.598,0.896,3.9-0.64,5.115c-4.031,3.133-9.151,4.988-14.782,4.988C91.993,48.449,81.371,38.154,81.307,25.429z"/>
				<path fill="#2196F2" d="M132.244,3.689c1.983,0,3.583,1.598,3.583,3.517v37.726c0,1.918-1.6,3.518-3.583,3.518
					c-1.92,0-3.52-1.6-3.52-3.518V7.206C128.725,5.288,130.324,3.689,132.244,3.689z"/>
				<path fill="#2196F2" d="M151.186,8.484c0,1.919-1.473,3.518-3.456,3.518c-1.92,0-3.456-1.599-3.456-3.518V7.142
					c0-1.918,1.536-3.453,3.456-3.453c1.983,0,3.456,1.534,3.456,3.453V8.484z M151.186,20.058v24.938
					c0,1.918-1.473,3.453-3.456,3.453c-1.92,0-3.456-1.535-3.456-3.453V20.058c0-2.046,1.536-3.517,3.456-3.517
					C149.713,16.542,151.186,18.012,151.186,20.058z"/>
				<path fill="#2196F2" d="M158.991,44.932V7.206c0-1.918,1.536-3.517,3.52-3.517c1.984,0,3.584,1.598,3.584,3.517v22.125
					l13.118-13.109c1.344-1.342,3.646-1.342,4.99,0c1.409,1.407,1.409,3.645,0,4.988l-9.599,9.591l9.855,11.83
					c1.216,1.535,1.023,3.771-0.513,4.986c-0.64,0.576-1.471,0.832-2.239,0.832c-1.024,0-2.047-0.449-2.688-1.279l-9.406-11.381
					l-3.52,3.516v5.627c0,1.918-1.6,3.518-3.584,3.518C160.527,48.449,158.991,46.85,158.991,44.932z"/>
				<path fill="#2196F2" d="M197.258,39.369c2.623,0,4.8,2.174,4.8,4.797c0,2.619-2.177,4.73-4.8,4.73s-4.735-2.111-4.735-4.73
					C192.522,41.543,194.635,39.369,197.258,39.369z"/>
				<path fill="#2196F2" d="M238.212,32.527v12.533c0,1.854-1.535,3.389-3.392,3.389c-1.664,0-2.943-1.215-3.327-2.75
					c-2.432,1.727-5.312,2.75-8.511,2.75c-4.352,0-8.128-1.791-10.879-4.668c-2.751-2.941-4.351-6.906-4.351-11.254
					c0-4.412,1.6-8.376,4.351-11.254c2.751-2.941,6.527-4.796,10.879-4.796c3.199,0,6.079,1.087,8.511,2.813
					c0.384-1.599,1.663-2.813,3.327-2.813c1.856,0,3.392,1.534,3.392,3.453V32.527z M231.429,32.527
					c0-2.686-0.959-4.987-2.495-6.586c-1.535-1.727-3.711-2.622-5.951-2.622c-2.304,0-4.479,0.895-5.951,2.622
					c-1.535,1.599-2.433,3.9-2.433,6.586c0,2.622,0.897,4.924,2.433,6.586c1.472,1.598,3.647,2.494,5.951,2.494
					c2.24,0,4.414-0.896,5.951-2.494C230.47,37.451,231.429,35.149,231.429,32.527z"/>
				<path fill="#2196F2" d="M251.33,8.484c0,1.919-1.473,3.518-3.456,3.518c-1.92,0-3.455-1.599-3.455-3.518V7.142
					c0-1.918,1.535-3.453,3.455-3.453c1.983,0,3.456,1.534,3.456,3.453V8.484z M251.33,20.058v24.938
					c0,1.918-1.473,3.453-3.456,3.453c-1.92,0-3.455-1.535-3.455-3.453V20.058c0-2.046,1.535-3.517,3.455-3.517
					C249.857,16.542,251.33,18.012,251.33,20.058z"/>
			</g>
		</g>
		<g id="Your_CRE_Analyst_on_Cloud">
			<g>
				<path fill="#6B6B6B" d="M8.663,69.592H6.765v-5.646L1.47,55.568h2.213l4.025,6.736l4.017-6.736h2.232l-5.295,8.377V69.592z"/>
				<path fill="#6B6B6B" d="M12.962,64.469c0-1.52,0.423-2.799,1.269-3.834c0.846-1.037,1.997-1.555,3.453-1.555
					c1.489,0,2.652,0.523,3.492,1.574c0.839,1.049,1.259,2.32,1.259,3.814c0,1.502-0.417,2.779-1.25,3.836
					c-0.833,1.055-2,1.582-3.501,1.582c-1.444,0-2.592-0.512-3.444-1.533C13.389,67.328,12.962,66.033,12.962,64.469z
					 M14.718,64.469c0,1.139,0.258,2.076,0.772,2.811c0.515,0.734,1.247,1.102,2.194,1.102c0.979,0,1.724-0.385,2.232-1.154
					c0.509-0.77,0.764-1.689,0.764-2.758c0-1.082-0.255-1.998-0.764-2.752s-1.253-1.131-2.232-1.131
					c-0.909,0-1.631,0.355-2.166,1.064C14.984,62.359,14.718,63.299,14.718,64.469z"/>
				<path fill="#6B6B6B" d="M25.037,59.375h1.717v6.783c0,0.75,0.17,1.311,0.511,1.684c0.34,0.371,0.828,0.557,1.464,0.557
					c0.884,0,1.574-0.311,2.07-0.938s0.744-1.447,0.744-2.457v-5.629h1.717v10.217h-1.622v-1.488L31.6,68.064
					c-0.648,1.217-1.73,1.822-3.244,1.822c-0.979,0-1.778-0.266-2.395-0.801c-0.616-0.533-0.925-1.322-0.925-2.365V59.375
					L25.037,59.375z"/>
				<path fill="#6B6B6B" d="M38.237,69.592H36.52V59.375h1.622v1.697h0.038c0.744-1.328,1.701-1.992,2.872-1.992
					c0.184,0,0.333,0.018,0.448,0.057v1.785h-0.639c-0.77,0-1.399,0.26-1.89,0.781c-0.49,0.521-0.734,1.17-0.734,1.945V69.592
					L38.237,69.592z"/>
				<path fill="#6B6B6B" d="M59.066,59.785c-0.21-0.953-0.651-1.678-1.321-2.17c-0.671-0.492-1.542-0.738-2.61-0.738
					c-1.38,0-2.489,0.5-3.329,1.502c-0.84,1-1.259,2.354-1.259,4.059c0,1.971,0.397,3.439,1.192,4.402
					c0.795,0.963,1.946,1.445,3.453,1.445c0.992,0,1.846-0.33,2.562-0.988c0.715-0.658,1.197-1.613,1.445-2.865h1.841
					c-0.248,1.799-0.932,3.172-2.051,4.117c-1.12,0.943-2.48,1.414-4.083,1.414c-1.915,0-3.446-0.656-4.594-1.973
					c-1.148-1.318-1.722-3.146-1.722-5.486c0-2.258,0.6-4.039,1.798-5.348c1.199-1.307,2.781-1.961,4.746-1.961
					c1.628,0,2.948,0.422,3.959,1.26c1.011,0.84,1.612,1.951,1.803,3.33H59.066L59.066,59.785z"/>
				<path fill="#6B6B6B" d="M66.027,69.592h-1.898V55.568h6.487c1.507,0,2.648,0.322,3.425,0.963
					c0.775,0.643,1.164,1.578,1.164,2.807c0,0.807-0.156,1.48-0.468,2.021c-0.312,0.541-0.802,0.986-1.469,1.336
					c0.572,0.209,0.985,0.504,1.241,0.883c0.254,0.379,0.4,0.965,0.438,1.76l0.125,2.613c0.012,0.432,0.081,0.736,0.205,0.91
					c0.125,0.176,0.297,0.314,0.52,0.416v0.314h-2.347c-0.121-0.348-0.206-0.881-0.257-1.592c-0.051-0.713-0.076-1.355-0.076-1.928
					c0-0.287-0.025-0.578-0.077-0.879c-0.05-0.297-0.162-0.568-0.333-0.811c-0.171-0.24-0.423-0.438-0.754-0.586
					s-0.776-0.225-1.335-0.225h-4.588L66.027,69.592L66.027,69.592z M66.027,61.951h4.388c1.018,0,1.748-0.209,2.189-0.625
					c0.442-0.416,0.663-1.016,0.663-1.799c0-0.713-0.19-1.279-0.572-1.703c-0.381-0.422-1.037-0.635-1.966-0.635h-4.702
					L66.027,61.951L66.027,61.951z"/>
				<path fill="#6B6B6B" d="M89.11,69.592H78.759V55.568h10.217v1.68h-8.318v4.293h7.67v1.68h-7.67v4.693h8.452V69.592z"/>
				<path fill="#6B6B6B" d="M99.664,65.51l-1.468,4.082H96.25l5.275-14.023h2.146l5.076,14.023h-2.07l-1.383-4.082H99.664z
					 M104.606,63.83l-2.07-6.172h-0.038l-2.251,6.172H104.606z"/>
				<path fill="#6B6B6B" d="M119.333,69.592h-1.717v-6.287c0-0.965-0.169-1.654-0.505-2.064c-0.337-0.41-0.897-0.615-1.679-0.615
					c-0.769,0-1.412,0.293-1.927,0.877c-0.515,0.586-0.772,1.426-0.772,2.518v5.572h-1.717V59.375h1.622v1.441h0.038
					c0.806-1.158,1.835-1.736,3.086-1.736c1.156,0,2.041,0.307,2.653,0.92c0.613,0.613,0.919,1.492,0.919,2.639V69.592
					L119.333,69.592z"/>
				<path fill="#6B6B6B" d="M122.402,62.484c0.038-1.15,0.411-2.006,1.121-2.564c0.709-0.561,1.74-0.84,3.096-0.84
					c1.081,0,1.987,0.244,2.718,0.734c0.731,0.488,1.098,1.195,1.098,2.117v5.887c0,0.4,0.182,0.6,0.543,0.6
					c0.146,0,0.335-0.025,0.563-0.076v1.25c-0.312,0.127-0.637,0.191-0.973,0.191c-0.586,0-1.021-0.127-1.308-0.377
					c-0.286-0.252-0.436-0.645-0.448-1.178c-0.979,1.105-2.209,1.658-3.692,1.658c-0.967,0-1.743-0.271-2.328-0.82
					c-0.585-0.547-0.878-1.258-0.878-2.137c0-0.896,0.255-1.621,0.763-2.174c0.51-0.555,1.25-0.887,2.224-1.002l3.034-0.371
					c0.546-0.084,0.819-0.488,0.819-1.213c0-0.533-0.198-0.943-0.595-1.23c-0.398-0.285-1.001-0.43-1.809-0.43
					c-0.719,0-1.271,0.16-1.655,0.477c-0.385,0.318-0.616,0.818-0.692,1.5h-1.603V62.484z M128.688,64.373
					c-0.127,0.135-0.377,0.242-0.748,0.326c-0.372,0.082-1.068,0.189-2.086,0.322c-0.75,0.09-1.301,0.275-1.655,0.555
					c-0.353,0.279-0.529,0.648-0.529,1.105c0,0.561,0.149,0.998,0.449,1.309c0.298,0.311,0.776,0.467,1.431,0.467
					c0.821,0,1.549-0.234,2.185-0.701s0.954-1.035,0.954-1.703V64.373z"/>
				<path fill="#6B6B6B" d="M135.611,69.592h-1.717V55.568h1.717V69.592z"/>
				<path fill="#6B6B6B" d="M145.215,59.375h1.87L143.432,69.4c-0.064,0.18-0.128,0.348-0.191,0.506
					c-0.554,1.477-1.03,2.488-1.431,3.039s-1.049,0.826-1.946,0.826c-0.471,0-0.855-0.051-1.154-0.154v-1.564
					c0.324,0.115,0.681,0.174,1.068,0.174c0.42,0,0.727-0.133,0.921-0.396c0.193-0.264,0.481-0.912,0.863-1.943l-3.796-10.512h1.936
					l2.738,8.318h0.037L145.215,59.375z"/>
				<path fill="#6B6B6B" d="M154.724,62.285c-0.026-0.611-0.244-1.049-0.653-1.318c-0.411-0.266-1.001-0.398-1.77-0.398
					c-0.561,0-1.039,0.123-1.437,0.371s-0.596,0.605-0.596,1.068c0,0.369,0.117,0.641,0.354,0.816
					c0.234,0.176,0.743,0.361,1.525,0.559l1.698,0.428c1.03,0.262,1.767,0.594,2.209,0.998c0.441,0.404,0.662,0.967,0.662,1.693
					c0,1.004-0.367,1.82-1.102,2.445c-0.734,0.627-1.715,0.939-2.943,0.939c-1.431,0-2.513-0.295-3.247-0.891
					c-0.734-0.594-1.108-1.49-1.122-2.686h1.661c0.025,0.705,0.259,1.23,0.701,1.574c0.441,0.344,1.104,0.516,1.988,0.516
					c0.719,0,1.289-0.143,1.713-0.43c0.423-0.285,0.635-0.684,0.635-1.193c0-0.361-0.137-0.652-0.411-0.867
					c-0.272-0.217-0.813-0.416-1.621-0.602l-1.993-0.486c-0.809-0.203-1.404-0.508-1.79-0.912c-0.384-0.402-0.576-0.926-0.576-1.568
					c0-1.004,0.358-1.799,1.077-2.385c0.719-0.584,1.657-0.877,2.814-0.877c1.233,0,2.181,0.299,2.839,0.9
					c0.657,0.602,1.006,1.369,1.044,2.305H154.724z"/>
				<path fill="#6B6B6B" d="M161.483,60.797v6.648c0,0.262,0.071,0.459,0.215,0.596s0.399,0.205,0.769,0.205h0.658v1.346
					c-0.623,0.09-1.054,0.133-1.289,0.133c-0.719,0-1.243-0.172-1.573-0.514c-0.332-0.344-0.496-0.9-0.496-1.67v-6.746h-1.383v-1.42
					h1.383v-2.852h1.717v2.852h1.642v1.42h-1.642V60.797z"/>
				<path fill="#6B6B6B" d="M170.397,64.469c0-1.52,0.423-2.799,1.27-3.834c0.846-1.037,1.996-1.555,3.452-1.555
					c1.489,0,2.652,0.523,3.492,1.574c0.839,1.049,1.26,2.32,1.26,3.814c0,1.502-0.417,2.779-1.249,3.836
					c-0.835,1.055-2.001,1.582-3.502,1.582c-1.444,0-2.592-0.512-3.444-1.533C170.824,67.328,170.397,66.033,170.397,64.469z
					 M172.152,64.469c0,1.139,0.258,2.076,0.774,2.811c0.515,0.734,1.246,1.102,2.193,1.102c0.979,0,1.723-0.385,2.232-1.154
					c0.508-0.77,0.763-1.689,0.763-2.758c0-1.082-0.255-1.998-0.763-2.752c-0.51-0.754-1.254-1.131-2.232-1.131
					c-0.909,0-1.631,0.355-2.165,1.064C172.42,62.359,172.152,63.299,172.152,64.469z"/>
				<path fill="#6B6B6B" d="M190.886,69.592h-1.717v-6.287c0-0.965-0.169-1.654-0.506-2.064s-0.896-0.615-1.679-0.615
					c-0.77,0-1.413,0.293-1.928,0.877c-0.515,0.586-0.772,1.426-0.772,2.518v5.572h-1.718V59.375h1.622v1.441h0.038
					c0.807-1.158,1.836-1.736,3.087-1.736c1.155,0,2.04,0.307,2.653,0.92c0.612,0.613,0.919,1.492,0.919,2.639V69.592
					L190.886,69.592z"/>
				<path fill="#6B6B6B" d="M209.53,59.785c-0.211-0.953-0.65-1.678-1.32-2.17c-0.672-0.492-1.542-0.738-2.61-0.738
					c-1.38,0-2.49,0.5-3.329,1.502c-0.84,1-1.261,2.354-1.261,4.059c0,1.971,0.398,3.439,1.193,4.402s1.946,1.445,3.454,1.445
					c0.992,0,1.846-0.33,2.561-0.988c0.716-0.658,1.197-1.613,1.445-2.865h1.841c-0.247,1.799-0.932,3.172-2.051,4.117
					c-1.119,0.943-2.48,1.414-4.083,1.414c-1.914,0-3.445-0.656-4.594-1.973c-1.147-1.318-1.721-3.146-1.721-5.486
					c0-2.258,0.6-4.039,1.798-5.348c1.198-1.307,2.78-1.961,4.746-1.961c1.628,0,2.947,0.422,3.959,1.26
					c1.012,0.84,1.612,1.951,1.803,3.33H209.53L209.53,59.785z"/>
				<path fill="#6B6B6B" d="M216.015,69.592h-1.717V55.568h1.717V69.592z"/>
				<path fill="#6B6B6B" d="M218.721,64.469c0-1.52,0.423-2.799,1.269-3.834c0.847-1.037,1.997-1.555,3.454-1.555
					c1.487,0,2.651,0.523,3.491,1.574c0.839,1.049,1.26,2.32,1.26,3.814c0,1.502-0.417,2.779-1.251,3.836
					c-0.833,1.055-1.999,1.582-3.5,1.582c-1.444,0-2.592-0.512-3.444-1.533C219.146,67.328,218.721,66.033,218.721,64.469z
					 M220.476,64.469c0,1.139,0.258,2.076,0.773,2.811s1.246,1.102,2.194,1.102c0.979,0,1.723-0.385,2.232-1.154
					c0.508-0.77,0.763-1.689,0.763-2.758c0-1.082-0.255-1.998-0.763-2.752c-0.51-0.754-1.254-1.131-2.232-1.131
					c-0.909,0-1.632,0.355-2.166,1.064S220.476,63.299,220.476,64.469z"/>
				<path fill="#6B6B6B" d="M230.796,59.375h1.716v6.783c0,0.75,0.171,1.311,0.512,1.684c0.34,0.371,0.828,0.557,1.464,0.557
					c0.884,0,1.574-0.311,2.069-0.938c0.497-0.627,0.744-1.447,0.744-2.457v-5.629h1.717v10.217h-1.62v-1.488l-0.038-0.039
					c-0.65,1.217-1.73,1.822-3.244,1.822c-0.979,0-1.777-0.266-2.395-0.801c-0.617-0.533-0.925-1.322-0.925-2.365V59.375
					L230.796,59.375z"/>
				<path fill="#6B6B6B" d="M250.835,69.592h-1.621v-1.402h-0.039c-0.648,1.133-1.631,1.697-2.947,1.697
					c-1.419,0-2.516-0.539-3.291-1.621c-0.776-1.08-1.164-2.441-1.164-4.082c0-1.514,0.385-2.744,1.154-3.688
					s1.804-1.416,3.101-1.416c1.278,0,2.296,0.578,3.053,1.736l0.038-0.115v-5.133h1.717V69.592z M243.547,64.449
					c0,1.268,0.251,2.242,0.754,2.926s1.17,1.023,2.003,1.023c0.796,0,1.46-0.291,1.994-0.877c0.534-0.584,0.801-1.438,0.801-2.557
					c0-1.438-0.227-2.52-0.682-3.248s-1.146-1.092-2.074-1.092c-0.885,0-1.571,0.289-2.062,0.867
					C243.792,62.072,243.547,63.057,243.547,64.449z"/>
			</g>
		</g>
	</g>
</g>
<g id="Layer_2">
</g>
</svg>
