<?xml version="1.0" encoding="utf-8"?>
<!-- Generator: Adobe Illustrator 16.0.0, SVG Export Plug-In . SVG Version: 6.00 Build 0)  -->
<!DOCTYPE svg PUBLIC "-//W3C//DTD SVG 1.1//EN" "http://www.w3.org/Graphics/SVG/1.1/DTD/svg11.dtd">
<svg version="1.1" id="Capa_1" xmlns="http://www.w3.org/2000/svg" xmlns:xlink="http://www.w3.org/1999/xlink" x="0px" y="0px"
	 width="90px" height="90px" viewBox="252.64 375.945 90 90" enable-background="new 252.64 375.945 90 90" xml:space="preserve">
<g>
	<g>
		<path fill="#FFFFFF" d="M327.986,376.056h-46.999c-3.832,0-7.017,2.442-7.688,6.164c-3.177,0.601-6.169,2.964-6.757,6.212
			c-3.642,0.688-6.902,3.749-6.902,7.668v60.858c0,4.415,4.496,8.993,8.814,8.993h46.999c3.832,0,7.016-3.324,7.688-7.047
			c3.177-0.601,6.116-3.404,6.706-6.652c3.641-0.687,6.848-4.189,6.848-8.106v-60.859
			C336.695,378.871,332.305,376.056,327.986,376.056z M320.888,457.662c0,2.652-2.353,5.293-4.948,5.293h-47.203
			c-2.596,0-5.145-2.641-5.145-5.293v-61.228c0-2.652,2.549-4.396,5.145-4.396h47.203c2.596,0,4.948,1.744,4.948,4.396V457.662z
			 M326.816,450.552c0,2.085-0.988,3.847-2.964,4.511V396.1c0-4.416-4.081-8.059-8.398-8.059H270.31
			c0.648-0.999,2.373-2.996,4.412-2.996h46.998c2.592,0,5.097,1.998,5.097,4.647V450.552z M332.743,444.146
			c0,2.085-0.987,3.847-2.964,4.51v-58.963c0-4.415-3.74-7.645-8.06-7.645h-45.144c0.649-1.997,2.372-2.996,4.412-2.996h46.999
			c2.591,0,4.757,1.586,4.757,4.234V444.146z"/>
		<path fill="#FFFFFF" d="M277.396,401.374l-2.215,2.265l3.133,3.203c0.306,0.312,0.707,0.468,1.108,0.468s0.802-0.156,1.108-0.468
			l7.833-8.008l-2.215-2.266l-6.725,6.876L277.396,401.374z"/>
		<path fill="#FFFFFF" d="M285.325,411.015h-12.842V398.03h9.879v-2.996h-10.773c-0.865,0-2.069,0.18-2.069,1.066v16.015
			c0,0.887,1.204,1.897,2.069,1.897h15.666c0.865,0,1.035-1.011,1.035-1.897v-7.093h-2.963V411.015z"/>
		<path fill="#FFFFFF" d="M277.396,423.794l-2.215,2.265l3.133,3.204c0.306,0.312,0.707,0.469,1.108,0.469s0.802-0.157,1.108-0.469
			l7.833-8.008l-2.215-2.265l-6.725,6.875L277.396,423.794z"/>
		<path fill="#FFFFFF" d="M285.325,432.99h-12.842v-11.986h9.879v-3.995h-10.773c-0.865,0-2.069,0.627-2.069,1.513v16.015
			c0,0.886,1.204,2.449,2.069,2.449h15.666c0.865,0,1.035-1.563,1.035-2.449v-7.539h-2.963V432.99z"/>
		<path fill="#FFFFFF" d="M277.396,446.216l-2.215,2.266l3.133,3.204c0.306,0.311,0.707,0.468,1.108,0.468s0.802-0.157,1.108-0.468
			l7.833-8.009l-2.215-2.266l-6.725,6.876L277.396,446.216z"/>
		<path fill="#FFFFFF" d="M285.325,455.963h-12.842v-12.985h9.879v-2.996h-10.773c-0.865,0-2.069,0.075-2.069,0.961v16.016
			c0,0.885,1.204,2.001,2.069,2.001h15.666c0.865,0,1.035-1.116,1.035-2.001v-7.987h-2.963V455.963z"/>
		<rect x="292.24" y="396.033" fill="#FFFFFF" width="21.733" height="3.995"/>
		<rect x="292.24" y="403.025" fill="#FFFFFF" width="21.733" height="2.996"/>
		<rect x="292.24" y="409.017" fill="#FFFFFF" width="21.733" height="3.996"/>
		<rect x="292.24" y="419.006" fill="#FFFFFF" width="21.733" height="2.996"/>
		<rect x="292.24" y="424.999" fill="#FFFFFF" width="21.733" height="3.996"/>
		<rect x="292.24" y="431.991" fill="#FFFFFF" width="21.733" height="2.996"/>
		<rect x="292.24" y="440.98" fill="#FFFFFF" width="21.733" height="3.996"/>
		<rect x="292.24" y="447.972" fill="#FFFFFF" width="21.733" height="2.996"/>
		<rect x="292.24" y="453.965" fill="#FFFFFF" width="21.733" height="2.996"/>
	</g>
</g>
</svg>
