<?xml version="1.0" encoding="utf-8"?>
<!-- Generator: Adobe Illustrator 16.0.0, SVG Export Plug-In . SVG Version: 6.00 Build 0)  -->
<!DOCTYPE svg PUBLIC "-//W3C//DTD SVG 1.1//EN" "http://www.w3.org/Graphics/SVG/1.1/DTD/svg11.dtd">
<svg version="1.1" id="Capa_1" xmlns="http://www.w3.org/2000/svg" xmlns:xlink="http://www.w3.org/1999/xlink" x="0px" y="0px"
	 width="50px" height="50px" viewBox="249.145 249.146 50 50" enable-background="new 249.145 249.146 50 50" xml:space="preserve">
<g>
	<g>
		<path fill="#01AB42" d="M292.383,261.12c-0.003-0.23-0.075-0.456-0.231-0.635l-9.636-11.004c-0.002-0.003-0.005-0.004-0.008-0.007
			c-0.057-0.064-0.123-0.117-0.193-0.163c-0.021-0.014-0.042-0.026-0.064-0.038c-0.063-0.034-0.126-0.061-0.192-0.081
			c-0.019-0.005-0.034-0.013-0.053-0.018c-0.073-0.017-0.148-0.028-0.227-0.028h-23.674c-1.081,0-1.96,0.879-1.96,1.96v46.044
			c0,1.08,0.879,1.958,1.96,1.958h32.328c1.081,0,1.96-0.878,1.96-1.958v-35.92C292.393,261.192,292.386,261.156,292.383,261.12z
			 M264.373,295.457l-0.853-1.704c-0.349-0.658-0.572-1.146-0.838-1.691h-0.028c-0.195,0.545-0.433,1.033-0.726,1.691l-0.783,1.704
			h-2.429l2.724-4.764l-2.625-4.65h2.444l0.825,1.719c0.279,0.573,0.488,1.032,0.712,1.563h0.027
			c0.224-0.602,0.405-1.019,0.642-1.563l0.797-1.719h2.43l-2.653,4.595l2.793,4.819H264.373L264.373,295.457z M273.854,295.457
			h-5.88v-9.414h2.137v7.625h3.743V295.457z M277.415,295.595c-1.074,0-2.137-0.277-2.667-0.572l0.433-1.76
			c0.572,0.294,1.453,0.587,2.359,0.587c0.979,0,1.494-0.404,1.494-1.02c0-0.585-0.445-0.921-1.577-1.326
			c-1.564-0.544-2.584-1.409-2.584-2.778c0-1.607,1.341-2.837,3.563-2.837c1.06,0,1.843,0.224,2.401,0.476l-0.475,1.719
			c-0.377-0.181-1.048-0.447-1.97-0.447c-0.921,0-1.368,0.419-1.368,0.908c0,0.601,0.53,0.865,1.745,1.326
			c1.662,0.615,2.442,1.48,2.442,2.808C281.213,294.256,279.998,295.595,277.415,295.595z M287.608,295.457l-0.853-1.704
			c-0.349-0.658-0.571-1.146-0.838-1.691h-0.027c-0.193,0.545-0.433,1.033-0.726,1.691l-0.783,1.704h-2.429l2.724-4.764l-2.626-4.65
			h2.444l0.824,1.719c0.278,0.573,0.488,1.032,0.711,1.563h0.028c0.224-0.602,0.405-1.019,0.644-1.563l0.796-1.719h2.43
			l-2.653,4.595l2.793,4.819H287.608L287.608,295.457z M258.105,282.414v-31.308h22.696v10.024c0,0.542,0.438,0.98,0.978,0.98h8.654
			l0.002,20.304H258.105L258.105,282.414z"/>
		<path fill="#01AB42" d="M277.621,261.721h-7.632h-8.613v3.674v0.49v3.184v0.49v3.185v0.489v3.674h8.124h0.49h7.632h0.49h8.123
			v-4.163v-3.185v-3.674v-0.49v-3.674H277.621z M277.621,269.069h-7.632v-3.184h7.632V269.069z M261.866,262.211h7.633v3.184h-7.633
			V262.211z M261.866,265.885h7.633v3.184h-7.633V265.885z M261.866,269.559h7.633v3.185h-7.633V269.559z M261.866,276.416v-3.184
			h7.633v3.184H261.866z M269.988,276.416v-3.184h7.632v3.184H269.988z M285.745,276.416h-7.634v-3.184h7.633L285.745,276.416
			L285.745,276.416z M285.745,269.069h-7.634v-3.184h7.633L285.745,269.069L285.745,269.069z M278.111,265.395v-3.184h7.633v3.184
			H278.111z"/>
	</g>
</g>
</svg>
