<?xml version="1.0" encoding="iso-8859-1"?>
<!-- Generator: Adobe Illustrator 16.0.0, SVG Export Plug-In . SVG Version: 6.00 Build 0)  -->
<!DOCTYPE svg PUBLIC "-//W3C//DTD SVG 1.1//EN" "http://www.w3.org/Graphics/SVG/1.1/DTD/svg11.dtd">
<svg version="1.1" id="Capa_1" xmlns="http://www.w3.org/2000/svg" xmlns:xlink="http://www.w3.org/1999/xlink" x="0px" y="0px"
	 width="234.287px" height="234.288px" viewBox="0 0 234.287 234.288" style="enable-background:new 0 0 234.287 234.288;"
	 xml:space="preserve">
<g>
	<g id="_x31_29_51_">
		<g>
			<path d="M161.269,148.48c-11.207,0-84.81,0-96.014,0c-8.082,0-8.082,13,0,13c11.205,0,84.807,0,96.014,0
				C169.348,161.48,169.348,148.48,161.269,148.48z"/>
			<path d="M161.269,182.35c-11.207,0-22.409,0-33.616,0c-8.082,0-8.082,13,0,13c11.207,0,22.409,0,33.616,0
				C169.348,195.35,169.348,182.35,161.269,182.35z"/>
			<path d="M65.254,104.142c-8.082,0-8.082,13,0,13c11.205,0,84.807,0,96.014,0c8.079,0,8.079-13,0-13
				C150.062,104.142,76.464,104.142,65.254,104.142z"/>
			<path d="M161.269,125.152c-11.207,0-84.81,0-96.014,0c-8.082,0-8.082,13,0,13c11.205,0,84.807,0,96.014,0
				C169.348,138.152,169.348,125.152,161.269,125.152z"/>
			<path d="M67.011,62.736c11.208,0,22.412,0,33.619,0c8.079,0,8.079-13,0-13c-11.207,0-22.411,0-33.619,0
				C58.938,49.736,58.938,62.736,67.011,62.736z"/>
			<path d="M67.011,83.749c11.208,0,22.412,0,33.619,0c8.079,0,8.079-13,0-13c-11.207,0-22.411,0-33.619,0
				C58.938,70.749,58.938,83.749,67.011,83.749z"/>
			<path d="M173.832,0H26.931v234.288h180.426V32.504L173.832,0z M191.757,218.683H42.53V15.6h123.269v24.75h25.958V218.683z"/>
		</g>
	</g>
</g>
<g>
</g>
<g>
</g>
<g>
</g>
<g>
</g>
<g>
</g>
<g>
</g>
<g>
</g>
<g>
</g>
<g>
</g>
<g>
</g>
<g>
</g>
<g>
</g>
<g>
</g>
<g>
</g>
<g>
</g>
</svg>
