<svg xmlns="http://www.w3.org/2000/svg" width="248" height="198" viewBox="0 0 248 198">
    <g fill="none" fill-rule="evenodd" transform="translate(0 -1)">
        <circle cx="133" cy="100" r="99" fill="#F8F8F8"/>
        <rect width="43" height="9" x="205" y="141" fill="#F8F8F8" rx="4.5"/>
        <rect width="67" height="11" x="23" y="38" fill="#F8F8F8" rx="5.5"/>
        <rect width="67" height="13" y="63" fill="#F8F8F8" rx="6.5"/>
        <circle cx="13" cy="42" r="5" fill="#F8F8F8"/>
        <g>
            <path fill="#FFF" stroke="#74C81D" stroke-linecap="round" stroke-width="2.5" d="M70.573 14.82l10.004 72.842.899 7.308c.289 2.355-1.388 4.497-3.746 4.786l-62.978 7.72c-2.358.29-4.504-1.385-4.794-3.739L.262 24.898c-.144-1.177.694-2.248 1.873-2.393l.022-.002 5.225-.585m4.225-.474l4.933-.552" transform="translate(86.811 42)"/>
            <path fill="#EBF3E3" d="M67.25 19l8.918 66.084.803 6.63c.258 2.136-1.218 4.077-3.298 4.336l-55.548 6.921c-2.08.26-3.976-1.262-4.234-3.398L5.239 28.075c-.132-1.094.645-2.089 1.739-2.225l6.996-.872" transform="translate(86.811 42)"/>
            <path fill="#FFF" stroke="#74C81D" stroke-width="2.5" d="M73.382 1.25H24c-.76 0-1.447.308-1.945.805-.497.498-.805 1.186-.805 1.945v82c0 .76.308 1.447.805 1.945.498.497 1.186.805 1.945.805h64c.76 0 1.447-.308 1.945-.805.497-.498.805-1.186.805-1.945V18.565c0-.73-.291-1.432-.809-1.948L75.323 2.052c-.515-.514-1.213-.802-1.94-.802z" transform="translate(86.811 42)"/>
            <path stroke="#74C81D" stroke-linecap="round" stroke-linejoin="round" stroke-width="2.5" d="M74.189 1.608v12.711c0 1.817 1.474 3.289 3.292 3.289h8.708" transform="translate(86.811 42)"/>
            <path stroke="#BAE78B" stroke-linecap="round" stroke-linejoin="round" stroke-width="2.5" d="M33.189 18.108h28m-28 13h46m-46 14h46m-46 14h46m-46 14h28" transform="translate(86.811 42)"/>
        </g>
        <path fill="#6583D3" fill-rule="nonzero" d="M59.84 8.84h5.043c.464 0 .84-.376.84-.84 0-.464-.376-.84-.84-.84H59.84V2.117c0-.464-.376-.84-.84-.84-.464 0-.84.376-.84.84V7.16h-5.043c-.464 0-.84.376-.84.84 0 .464.376.84.84.84h5.043v5.043c0 .464.376.84.84.84.464 0 .84-.376.84-.84V8.84z"/>
        <path fill="#F686A7" fill-rule="nonzero" d="M200 9c-3.314 0-6 2.686-6 6s2.686 6 6 6 6-2.686 6-6-2.686-6-6-6zm0 2c2.21 0 4 1.79 4 4s-1.79 4-4 4-4-1.79-4-4 1.79-4 4-4z"/>
        <path fill="#65D383" fill-rule="nonzero" d="M225.756 162.463h4.538c.418 0 .757-.338.757-.756s-.339-.756-.757-.756h-4.538v-4.538c0-.418-.338-.757-.756-.757s-.756.34-.756.757v4.538h-4.538c-.418 0-.757.338-.757.756s.339.756.757.756h4.538v4.538c0 .418.338.757.756.757s.756-.339.756-.757v-4.538z"/>
        <path stroke="#F09565" stroke-width="2" d="M35 163.5L42 157 50 163.5 58 158 64.5 163.5"/>
    </g>
</svg>
