<?xml version="1.0" encoding="utf-8"?>
<!-- Generator: Adobe Illustrator 16.0.0, SVG Export Plug-In . SVG Version: 6.00 Build 0)  -->
<!DOCTYPE svg PUBLIC "-//W3C//DTD SVG 1.1//EN" "http://www.w3.org/Graphics/SVG/1.1/DTD/svg11.dtd">
<svg version="1.1" id="Layer_1" xmlns="http://www.w3.org/2000/svg" xmlns:xlink="http://www.w3.org/1999/xlink" x="0px" y="0px"
	 width="90px" height="90px" viewBox="0 0 90 90" enable-background="new 0 0 90 90" xml:space="preserve">
<g>
	<g transform="translate(0.000000,512.000000) scale(0.100000,-0.100000)">
		<path fill="#FFFFFF" stroke="#FFFFFF" stroke-width="2" stroke-miterlimit="10" d="M77.954,5106.357
			c-31.455-7.749-59.126-36.099-65.64-67.725c-2.769-12.886-2.769-726.797,0-739.687c6.87-33.008,36.416-62.031,69.419-68.398
			c7.554-1.367,110.679-1.699,381.528-1.367l371.211,0.527l8.926,3.613c19.072,7.891,34.531,23.34,42.432,42.422l3.613,8.965
			l0.527,335.996c0.352,303.647,0.176,336.636-2.412,345.405c-8.066,27.847-29.746,47.944-57.393,53.276
			c-12.393,2.407-599.614,2.407-605.796,0c-4.99-1.89-9.966-11.865-8.252-16.675c0.503-1.704,2.568-4.814,4.468-6.87l3.438-3.965
			h298.506c337.197,0,310.049,1.206,324.824-13.574c15.117-15.103,13.906,17.891,13.408-356.758l-0.518-331.679l-3.76-6.914
			c-4.316-8.086-12.725-16.309-21.162-20.762c-5.83-3.105-18.555-3.281-378.936-3.281H83.423l-8.228,3.789
			c-11.514,5.313-24.395,18.203-29.897,29.531c-3.96,8.086-4.648,12.051-4.824,24.257c0,12.363,0.688,16.133,4.648,24.395
			c5.503,12.031,16.665,23.379,28.003,28.711c12.554,6.016,32.822,6.855,45.884,1.875c20.293-7.578,34.731-26.484,37.485-48.965
			c1.021-8.262,2.549-12.754,5.332-15.664c4.805-5.156,13.223-5.488,19.409-0.508l4.478,3.418v362.153
			c0,394.746,0.508,369.487-9.795,390.273c-6.187,12.373-22.515,28.711-35.923,35.742
			C121.084,5107.885,97.876,5111.157,77.954,5106.357z M121.44,5074.379c12.358-5.317,21.821-14.087,28.345-26.123l5.84-10.83
			l0.518-326.86l0.352-327.051l-10.664,6.855c-16.499,10.84-30.586,14.434-51.729,13.418c-18.911-1.035-30.264-4.473-43.32-13.242
			c-3.77-2.578-7.896-5.137-9.102-6.016c-1.719-1.035-2.061,62.578-1.719,325.005l0.513,326.196l4.824,9.624
			c7.544,15.635,22.69,28.013,39.863,32.651C93.418,5080.229,112.651,5078.33,121.44,5074.379z"/>
		<path fill="#FFFFFF" stroke="#FFFFFF" stroke-width="2" stroke-miterlimit="10" d="M253.413,4931.064
			c-2.915-1.387-5.85-3.613-6.523-5.332c-1.377-3.613-1.377-597.725,0-601.533c3.091-7.715,1.714-7.715,159.644-7.715
			c109.824,0,149.873,0.547,152.627,2.07c6.162,3.281,7.539,6.523,8.721,20.469c4.15,49.473,31.309,90.039,74.111,110.645
			c13.74,6.543,33.857,12.91,41.24,12.91c2.256,0,2.578-4.98,2.578-38.848c0-21.465,0.693-40.039,1.719-41.758
			c2.744-5.313,11.143-7.891,17.354-5.156c9.287,3.809,10.127,8.418,10.127,57.402c0,48.809-0.84,53.613-9.951,57.383
			c-6.025,2.598-30.078,0.352-47.598-4.453c-56.201-14.961-102.441-63.418-114.482-119.941c-2.041-9.492-3.945-18.242-4.277-19.277
			c-0.537-1.719-28.35-2.246-132.168-2.246h-131.47v117.715v117.734h141.782h141.973l4.111,4.336
			c4.277,4.121,4.277,4.297,4.277,39.531c0,35.215,0,35.391-4.277,39.531c-5.84,6.001-13.408,5.669-19.932-0.703l-4.971-5v-24.219
			v-24.238H406.533h-131.47v146.924v146.953h131.47h131.318l0.498-54.99c0.537-52.256,0.684-55,3.936-58.262
			c5.85-6.025,13.252-6.372,19.434-1.03l5.488,4.639l0.352,54.312l0.508,54.473h102.246h102.256l0.518-146.421l0.361-146.421
			l-40.576-0.527c-40.205-0.527-40.537-0.527-43.789-4.629c-5.01-6.172-4.336-16.152,1.191-20.645
			c4.287-3.438,6.699-3.613,43.818-3.613h39.355v-117.734v-117.695H689.57h-84.033l-3.945-4.297
			c-5.527-5.859-5.527-14.98-0.352-20.293l3.965-3.77h94.346h94.346l3.965,3.945l3.936,3.965v299.727v299.712l-3.936,3.96
			l-3.965,3.936l-267.578,0.347C304.453,4933.295,257.886,4932.944,253.413,4931.064z"/>
	</g>
</g>
</svg>
