<?xml version="1.0" encoding="UTF-8"?>
<svg width="32px" height="25px" viewBox="0 0 32 25" version="1.1" xmlns="http://www.w3.org/2000/svg" xmlns:xlink="http://www.w3.org/1999/xlink">
    <!-- Generator: Sketch 51.2 (57519) - http://www.bohemiancoding.com/sketch -->
    <title>Folder</title>
    <desc>Created with Sketch.</desc>
    <defs></defs>
    <g id="Doc-Repository" stroke="none" stroke-width="1" fill="none" fill-rule="evenodd">
        <g id="Clik_Deal-Creation_5-Copy" transform="translate(-740.000000, -188.000000)">
            <g id="DD-Card-Copy-12" transform="translate(724.000000, 171.000000)">
                <g id="Folder" transform="translate(12.000000, 11.000000)">
                    <rect id="Rectangle-21" x="0" y="0" width="40" height="40"></rect>
                    <g id="folder-(2)" transform="translate(4.444444, 6.666667)" fill-rule="nonzero">
                        <path d="M29.4536514,2.44658483 L15.5844754,2.44658483 L15.4601153,1.63931977 C15.3213478,0.737702326 14.4617807,0 13.5501442,0 L6.87885228,0 C5.96721577,0 5.10764871,0.737702326 4.96896537,1.63931977 L4.84460535,2.44658483 L4.37185189,2.44658483 C3.46029964,2.44658483 2.71439224,3.19305628 2.71439224,4.10529785 L2.71439224,21.9356196 C2.71439224,22.8479455 3.46029964,23.5943326 4.37185189,23.5943326 L29.4535672,23.5943326 C30.3651194,23.5943326 31.1111111,22.8479455 31.1111111,21.9356196 L31.1111111,4.10538217 C31.1112796,3.19305628 30.3652037,2.44658483 29.4536514,2.44658483 Z" id="Shape" fill="#FFA400"></path>
                        <rect id="Rectangle-path" fill="#FFFFFF" x="4.17598807" y="4.38478747" width="24.847129" height="16.7039523"></rect>
                        <path d="M28.3840189,7.69281193 C28.2394401,6.79208634 27.3761753,6.0551827 26.4656993,6.0551827 L1.41351417,6.0551827 C0.502954042,6.0551827 -0.12383448,6.79208634 0.0207442903,7.69281193 L2.30959958,21.9567034 C2.45417835,22.8574289 3.31744321,23.5943326 4.22791918,23.5943326 L29.2800202,23.5943326 C30.1904961,23.5943326 30.8172847,22.8574289 30.6727901,21.9567034 L28.3840189,7.69281193 Z" id="Shape" fill="#F6C65B"></path>
                    </g>
                </g>
            </g>
        </g>
    </g>
</svg>