<svg width="18" height="18" viewBox="0 0 18 18" fill="none" xmlns="http://www.w3.org/2000/svg">
<path d="M5.5 15.5V14C5.5 13.7239 5.72386 13.5 6 13.5H7.79289L9.90345 11.3894C10.0339 11.259 10.2257 11.211 10.4023 11.2646C11.2243 11.5141 12.0933 11.5677 12.9398 11.4209C13.7862 11.2741 14.5865 10.9311 15.2765 10.4193C15.9665 9.90751 16.527 9.24122 16.9131 8.47381C17.2992 7.70651 17.5002 6.85944 17.5 6.00048L5.5 15.5ZM5.5 15.5H4C3.72386 15.5 3.5 15.7239 3.5 16V17.5H1C0.867391 17.5 0.740214 17.4473 0.646446 17.3536C0.552679 17.2598 0.5 17.1326 0.5 17V14.4141C0.5 14.4141 0.5 14.414 0.5 14.414C0.500057 14.2814 0.55275 14.1543 0.6465 14.0606L0.646553 14.0606L6.61055 8.09655C6.74091 7.9662 6.78896 7.77469 6.73558 7.59823C6.50683 6.84199 6.44369 6.04535 6.55046 5.26252C6.65723 4.47968 6.9314 3.72904 7.35433 3.06169C7.77725 2.39434 8.33898 1.82593 9.0013 1.39517C9.66362 0.9644 10.411 0.681386 11.1925 0.565386C11.974 0.449386 12.7713 0.503124 13.5302 0.722942C14.2891 0.94276 14.9917 1.3235 15.5903 1.83924C16.1888 2.35498 16.6692 2.99362 16.9987 3.71169C17.3282 4.42966 17.4992 5.21018 17.5 6.00014L5.5 15.5ZM12 3.5C11.7978 3.5 11.6155 3.62182 11.5381 3.80866C11.4607 3.99549 11.5034 4.21055 11.6464 4.35355L13.6464 6.35355C13.7894 6.49655 14.0045 6.53933 14.1913 6.46194C14.3782 6.38455 14.5 6.20223 14.5 6C14.5 5.33696 14.2366 4.70107 13.7678 4.23223C13.2989 3.76339 12.663 3.5 12 3.5Z" stroke="black" stroke-opacity="0.54" stroke-linecap="round" stroke-linejoin="round"/>
</svg>
