<?xml version="1.0" encoding="iso-8859-1"?>
<!-- Generator: Adobe Illustrator 19.0.0, SVG Export Plug-In . SVG Version: 6.00 Build 0)  -->
<svg version="1.1" id="Capa_1" xmlns="http://www.w3.org/2000/svg" xmlns:xlink="http://www.w3.org/1999/xlink" x="0px" y="0px"
	 viewBox="0 0 384 384" style="enable-background:new 0 0 384 384;" xml:space="preserve">
<g>
	<g>
		<path d="M256,64c-23.342,0-45.158,6.349-64,17.264C173.158,70.349,151.342,64,128,64C57.309,64,0,121.308,0,192
			s57.309,128,128,128c23.342,0,45.158-6.349,64-17.264C210.842,313.651,232.658,320,256,320c70.691,0,128-57.308,128-128
			S326.691,64,256,64z M256,304c-28.465,0-55.953-11.346-75.672-29.43l-10.813,11.793c2.824,2.527,2.389,2.28,7.351,6.251
			C162.076,299.832,145.535,304,128,304c-61.758,0-112-50.243-112-112S66.242,80,128,80c17.578,0,34.16,4.185,48.981,11.434
			c0.062,0.03,0.117,0.074,0.18,0.106c-2.836,2.227-5.767,4.342-8.402,6.796l10.908,11.706c3.838-3.575,7.994-6.844,12.291-9.848
			c0.012,0.01,0.03,0.016,0.043,0.026C209.76,87.796,232.293,80,256,80c61.758,0,112,50.243,112,112S317.758,304,256,304z"/>
	</g>
</g>
<g>
	<g>
		<path d="M252.554,162.369c-0.016-0.067-0.034-0.138-0.049-0.206c-0.004-0.018-0.012-0.05-0.016-0.068
			c-0.004-0.013-0.006-0.023-0.006-0.023c-0.006-0.027-0.01-0.043-0.014-0.058c-0.004-0.015-0.008-0.03-0.012-0.045
			c-0.004-0.012-0.004-0.023-0.008-0.034l-15.554,3.744c1.302,5.415,2.206,10.987,2.687,16.562l15.942-1.373
			C254.981,174.559,253.979,168.382,252.554,162.369z"/>
	</g>
</g>
<g>
	<g>
		<path d="M245.902,142.084c-0.027-0.062-0.133-0.312-0.19-0.443c-3.951-9.147-3.512-6.73-7.711-15.129l-13.74,8.198
			c2.863,4.798,5.383,9.849,7.489,15.011l14.814-6.045C246.238,142.872,245.902,142.084,245.902,142.084z"/>
	</g>
</g>
<g>
	<g>
		<path d="M222.684,105.865c-2.851-3.113-5.592-5.882-8.959-8.922l-10.721,11.879c4.152,3.745,8.054,7.833,11.599,12.152
			l12.366-10.154C225.258,108.734,222.684,105.865,222.684,105.865z"/>
	</g>
</g>
<g>
	<g>
		<path d="M239.782,199.06c-0.348,5.591-1.118,11.186-2.29,16.63l15.645,3.366c0.004-0.025,0.01-0.054,0.016-0.079
			c0.002-0.012,0.004-0.023,0.008-0.036c0.004-0.016,0.008-0.035,0.012-0.052c0.002-0.012,0.004-0.023,0.008-0.036
			c0.004-0.019,0.008-0.041,0.012-0.061c0.002-0.009,0.004-0.017,0.004-0.017c0.008-0.037,0.014-0.062,0.019-0.091
			c0.002-0.01,0.004-0.022,0.004-0.022c0.006-0.026,0.012-0.052,0.016-0.067c0,0,0.004-0.022,0.006-0.034
			c0.006-0.028,0.01-0.053,0.018-0.081c0.006-0.028,0.012-0.063,0.019-0.092c0.004-0.025,0.016-0.072,0.019-0.097
			c0.01-0.05,0.102-0.498,0.102-0.498c1.203-5.873,1.981-11.762,2.351-17.742L239.782,199.06z"/>
	</g>
</g>
<g>
	<g>
		<path d="M232.738,231.766c-1.978,5.211-4.375,10.322-7.122,15.186l13.934,7.863c3.149-5.576,5.873-11.382,8.145-17.367
			L232.738,231.766z"/>
	</g>
</g>
<g>
	<g>
		<path d="M216.295,260.914c-3.442,4.402-7.245,8.582-11.303,12.427l11,11.617c3.061-2.898,6.18-6.21,7.141-7.322
			c0.16,0,5.527-6.561,5.625-6.686c0.047-0.061,0.094-0.121,0.141-0.182L216.295,260.914z"/>
	</g>
</g>
<g>
	<g>
		<path d="M144,192c0-2.677,0.094-5.331,0.278-7.961l-15.961-1.118c-0.32,4.577-0.402,9.248-0.234,13.718
			c0,0,0.267,4.898,0.313,5.466l15.95-1.246C144.117,197.937,144,194.982,144,192z"/>
	</g>
</g>
<g>
	<g>
		<path d="M136.674,145.589c-2.057,5.288-3.84,11.276-4.291,13.082c-0.191,0.671-0.801,3.046-1.297,5.269l15.614,3.492
			c1.218-5.445,2.862-10.841,4.885-16.039L136.674,145.589z"/>
	</g>
</g>
<g>
	<g>
		<path d="M155.738,112.422c-3.973,4.999-7.578,10.3-10.782,15.866l13.871,7.975c2.782-4.837,5.957-9.508,9.436-13.886
			L155.738,112.422z"/>
	</g>
</g>
<g>
	<g>
		<path d="M159.281,248.514l-13.806,8.087c1.584,2.704,3.264,5.345,5.037,7.918c1.824,2.638,3.703,5.178,5.871,7.862l12.446-10.056
			C165.312,257.976,162.102,253.329,159.281,248.514z"/>
	</g>
</g>
<g>
	<g>
		<path d="M146.898,217.446l-15.584,3.619c0.678,2.914,1.451,5.787,2.322,8.621c0.047,0.146,0.027,0.087,0.117,0.374
			c0.992,3.175,2.012,6.084,3.297,9.309l14.863-5.924C149.848,228.262,148.16,222.88,146.898,217.446z"/>
	</g>
</g>
<g>
</g>
<g>
</g>
<g>
</g>
<g>
</g>
<g>
</g>
<g>
</g>
<g>
</g>
<g>
</g>
<g>
</g>
<g>
</g>
<g>
</g>
<g>
</g>
<g>
</g>
<g>
</g>
<g>
</g>
</svg>
