<?xml version="1.0" encoding="utf-8"?>
<!-- Generator: Adobe Illustrator 16.0.0, SVG Export Plug-In . SVG Version: 6.00 Build 0)  -->
<!DOCTYPE svg PUBLIC "-//W3C//DTD SVG 1.1//EN" "http://www.w3.org/Graphics/SVG/1.1/DTD/svg11.dtd">
<svg version="1.1" id="Layer_1" xmlns="http://www.w3.org/2000/svg" xmlns:xlink="http://www.w3.org/1999/xlink" x="0px" y="0px"
	 width="300px" height="150px" viewBox="0 25 300 150" enable-background="new 0 25 300 150" xml:space="preserve">
<g>
	<path fill="#D1D1D1" d="M175.638,127.042H106.23c-0.525,0-1.049-0.209-1.469-0.63c-0.421-0.421-0.631-0.945-0.631-1.47V36.741
		c0-0.524,0.21-1.049,0.631-1.469c0.42-0.421,0.944-0.63,1.469-0.63h46.621v14.385c0,1.681,0.629,3.255,1.89,4.41
		c1.157,1.155,2.73,1.89,4.41,1.89h14.385v9.45c0,1.155,0.945,2.1,2.102,2.1c1.153,0,2.099-0.945,2.099-2.1v-11.13
		c0-0.84-0.314-1.68-0.945-2.31c-1.575-1.47-8.504-7.98-14.069-13.23l-7.245-6.826c-0.629-0.524-1.365-0.84-2.205-0.84h-47.04
		c-1.68,0-3.255,0.63-4.41,1.89c-1.26,1.155-1.89,2.73-1.89,4.41v88.201c0,1.681,0.63,3.255,1.89,4.41
		c1.155,1.261,2.73,1.891,4.41,1.891h69.406c1.155,0,2.101-0.945,2.101-2.102C177.738,127.986,176.791,127.042,175.638,127.042
		L175.638,127.042z M170.387,51.126h-11.235c-0.524,0-1.049-0.209-1.469-0.629c-0.421-0.419-0.631-0.945-0.631-1.47v-10.5
		C157.052,38.526,167.446,48.396,170.387,51.126z"/>
	<path fill="#D1D1D1" d="M175.638,71.812c-13.861,0-25.097,11.236-25.097,25.095c0,13.859,11.235,25.095,25.097,25.095
		c13.859,0,25.095-11.234,25.095-25.095C200.732,83.151,189.497,71.812,175.638,71.812z M175.638,117.802
		c-11.551,0-20.895-9.345-20.895-20.895s9.344-20.895,20.895-20.895c11.55,0,20.895,9.451,20.895,20.895
		C196.532,108.352,187.188,117.802,175.638,117.802z"/>
	<path fill="#D1D1D1" d="M175.742,94.807c-1.155,0-2.101,0.945-2.101,2.1v9.24c0,1.156,0.945,2.101,2.101,2.101s2.1-0.944,2.1-2.101
		v-9.24C177.842,95.751,176.897,94.807,175.742,94.807L175.742,94.807z"/>
	<path fill="#D1D1D1" d="M175.846,84.517c-0.104,0-0.208,0-0.208,0c-1.682,0.105-3.047,1.575-3.047,3.255
		c0,1.785,1.47,3.254,3.255,3.254c1.786,0,3.256-1.47,3.256-3.254S177.632,84.517,175.846,84.517z"/>
</g>
<g>
	<path fill="#AFAFAF" d="M15.686,169.676H13.98l-7.021-10.784h-0.07c0.094,1.266,0.141,2.426,0.141,3.48v7.304H5.65v-12.851h1.688
		l7.005,10.74h0.07c-0.013-0.158-0.038-0.666-0.079-1.524c-0.041-0.857-0.057-1.473-0.044-1.842v-7.374h1.397v12.851H15.686z"/>
	<path fill="#AFAFAF" d="M26.773,164.85c0,1.57-0.396,2.797-1.188,3.679c-0.791,0.883-1.884,1.322-3.277,1.322
		c-0.861,0-1.627-0.202-2.295-0.605c-0.668-0.404-1.184-0.984-1.547-1.74s-0.545-1.642-0.545-2.654c0-1.57,0.393-2.793,1.178-3.669
		s1.875-1.313,3.271-1.313c1.348,0,2.418,0.447,3.212,1.345C26.376,162.109,26.773,163.32,26.773,164.85z M19.436,164.85
		c0,1.23,0.246,2.168,0.737,2.813c0.492,0.645,1.216,0.967,2.171,0.967s1.68-0.321,2.176-0.962c0.494-0.644,0.742-1.581,0.742-2.817
		c0-1.225-0.248-2.154-0.742-2.79c-0.496-0.636-1.227-0.954-2.193-0.954c-0.955,0-1.676,0.313-2.162,0.94
		S19.436,163.607,19.436,164.85z"/>
	<path fill="#AFAFAF" d="M39.482,168.384h-0.078c-0.674,0.979-1.682,1.468-3.023,1.468c-1.26,0-2.24-0.431-2.939-1.292
		c-0.7-0.861-1.051-2.086-1.051-3.674s0.353-2.821,1.055-3.7c0.703-0.879,1.683-1.317,2.937-1.317c1.308,0,2.31,0.475,3.007,1.424
		h0.113l-0.063-0.694l-0.035-0.677v-3.92h1.459v13.676h-1.187L39.482,168.384z M36.564,168.63c0.996,0,1.719-0.271,2.168-0.813
		c0.447-0.541,0.672-1.416,0.672-2.623v-0.308c0-1.365-0.228-2.339-0.682-2.923c-0.453-0.582-1.179-0.874-2.175-0.874
		c-0.854,0-1.51,0.333-1.964,0.997c-0.454,0.666-0.682,1.604-0.682,2.816c0,1.23,0.227,2.159,0.678,2.786
		S35.691,168.63,36.564,168.63z"/>
	<path fill="#AFAFAF" d="M51.73,164.85c0,1.57-0.396,2.797-1.187,3.679c-0.791,0.883-1.884,1.322-3.278,1.322
		c-0.861,0-1.625-0.202-2.293-0.605c-0.668-0.404-1.185-0.984-1.548-1.74c-0.362-0.756-0.545-1.642-0.545-2.654
		c0-1.57,0.394-2.793,1.179-3.669c0.784-0.876,1.875-1.313,3.27-1.313c1.348,0,2.418,0.447,3.212,1.345
		C51.334,162.109,51.73,163.32,51.73,164.85z M44.393,164.85c0,1.23,0.246,2.168,0.738,2.813c0.492,0.645,1.217,0.967,2.171,0.967
		c0.955,0,1.681-0.321,2.175-0.962c0.496-0.644,0.744-1.581,0.744-2.817c0-1.225-0.248-2.154-0.744-2.79
		c-0.494-0.636-1.226-0.954-2.192-0.954c-0.955,0-1.677,0.313-2.162,0.94S44.393,163.607,44.393,164.85z"/>
	<path fill="#AFAFAF" d="M57.6,169.851c-1.396,0-2.475-0.429-3.24-1.287c-0.764-0.857-1.146-2.072-1.146-3.644
		c0-1.611,0.389-2.856,1.165-3.735s1.882-1.317,3.317-1.317c0.464,0,0.927,0.05,1.39,0.148s0.826,0.217,1.09,0.353l-0.448,1.238
		c-0.322-0.129-0.674-0.234-1.055-0.319s-0.718-0.128-1.011-0.128c-1.957,0-2.937,1.247-2.937,3.743
		c0,1.185,0.239,2.093,0.717,2.726c0.477,0.633,1.185,0.949,2.123,0.949c0.803,0,1.625-0.174,2.47-0.52v1.292
		C59.389,169.684,58.577,169.851,57.6,169.851z"/>
	<path fill="#AFAFAF" d="M63.148,160.043v6.249c0,0.785,0.18,1.371,0.537,1.758c0.356,0.387,0.916,0.58,1.678,0.58
		c1.009,0,1.746-0.275,2.211-0.826s0.699-1.45,0.699-2.698v-5.063h1.459v9.633h-1.205l-0.211-1.292h-0.078
		c-0.299,0.475-0.713,0.838-1.244,1.09s-1.135,0.378-1.814,0.378c-1.173,0-2.05-0.278-2.633-0.835s-0.875-1.447-0.875-2.672v-6.302
		H63.148L63.148,160.043z"/>
	<path fill="#AFAFAF" d="M84.564,169.676v-6.268c0-0.768-0.164-1.343-0.492-1.728c-0.327-0.383-0.838-0.575-1.528-0.575
		c-0.908,0-1.579,0.261-2.013,0.782s-0.65,1.324-0.65,2.408v5.379h-1.459v-6.268c0-0.768-0.164-1.343-0.492-1.728
		c-0.328-0.383-0.841-0.575-1.537-0.575c-0.914,0-1.584,0.274-2.009,0.821c-0.425,0.549-0.637,1.446-0.637,2.694v5.054h-1.459
		v-9.633h1.187l0.237,1.317h0.07c0.274-0.469,0.663-0.835,1.165-1.099c0.5-0.264,1.062-0.396,1.683-0.396
		c1.506,0,2.49,0.546,2.953,1.636h0.069c0.287-0.504,0.703-0.902,1.248-1.195s1.166-0.439,1.863-0.439
		c1.09,0,1.906,0.28,2.448,0.841c0.542,0.56,0.813,1.454,0.813,2.685v6.284h-1.461V169.676z"/>
	<path fill="#AFAFAF" d="M92.561,169.851c-1.425,0-2.549-0.434-3.371-1.301c-0.823-0.867-1.235-2.071-1.235-3.612
		c0-1.553,0.382-2.786,1.147-3.7c0.765-0.914,1.791-1.371,3.08-1.371c1.207,0,2.161,0.397,2.864,1.191s1.056,1.841,1.056,3.142
		v0.924h-6.636c0.029,1.131,0.315,1.988,0.856,2.574c0.543,0.587,1.306,0.88,2.291,0.88c1.037,0,2.063-0.218,3.076-0.65v1.301
		c-0.517,0.224-1.004,0.382-1.465,0.479C93.766,169.803,93.21,169.851,92.561,169.851z M92.163,161.089
		c-0.772,0-1.39,0.252-1.851,0.756c-0.459,0.504-0.73,1.201-0.813,2.092h5.036c0-0.92-0.205-1.624-0.615-2.114
		C93.511,161.334,92.925,161.089,92.163,161.089z"/>
	<path fill="#AFAFAF" d="M104.641,169.676v-6.231c0-0.785-0.18-1.371-0.537-1.758c-0.356-0.387-0.916-0.58-1.679-0.58
		c-1.008,0-1.745,0.272-2.215,0.817c-0.469,0.545-0.703,1.444-0.703,2.698v5.054h-1.459v-9.633h1.187l0.238,1.317h0.069
		c0.299-0.475,0.718-0.842,1.257-1.104c0.539-0.26,1.141-0.392,1.803-0.392c1.16,0,2.032,0.28,2.619,0.841
		c0.586,0.56,0.879,1.453,0.879,2.685v6.284L104.641,169.676L104.641,169.676z"/>
	<path fill="#AFAFAF" d="M111.667,168.646c0.258,0,0.506-0.019,0.746-0.058c0.24-0.037,0.432-0.077,0.57-0.118v1.116
		c-0.156,0.076-0.391,0.139-0.697,0.188c-0.309,0.05-0.584,0.074-0.83,0.074c-1.863,0-2.795-0.98-2.795-2.944v-5.729h-1.38v-0.703
		l1.38-0.605l0.614-2.058h0.845v2.232h2.795v1.134h-2.795v5.669c0,0.58,0.137,1.025,0.412,1.336S111.187,168.646,111.667,168.646z"
		/>
	<path fill="#AFAFAF" d="M118.382,157.432c0-0.334,0.082-0.578,0.246-0.733c0.164-0.154,0.369-0.232,0.615-0.232
		c0.234,0,0.438,0.079,0.605,0.237c0.17,0.157,0.256,0.4,0.256,0.729s-0.086,0.573-0.256,0.733c-0.17,0.162-0.371,0.241-0.605,0.241
		c-0.246,0-0.451-0.079-0.615-0.241C118.464,158.006,118.382,157.761,118.382,157.432z M119.964,169.676h-1.459v-9.633h1.459
		V169.676z"/>
	<path fill="#AFAFAF" d="M128.731,167.048c0,0.896-0.334,1.588-1.002,2.074c-0.668,0.485-1.604,0.729-2.813,0.729
		c-1.277,0-2.273-0.202-2.988-0.605v-1.354c0.463,0.234,0.959,0.419,1.49,0.554c0.529,0.136,1.041,0.202,1.533,0.202
		c0.762,0,1.348-0.121,1.758-0.364c0.41-0.242,0.615-0.613,0.615-1.111c0-0.375-0.162-0.695-0.486-0.962
		c-0.326-0.268-0.961-0.582-1.904-0.945c-0.895-0.334-1.533-0.625-1.91-0.875c-0.379-0.248-0.66-0.531-0.844-0.848
		c-0.186-0.316-0.277-0.694-0.277-1.135c0-0.784,0.318-1.403,0.957-1.857c0.641-0.454,1.516-0.683,2.629-0.683
		c1.037,0,2.051,0.212,3.041,0.634l-0.52,1.187c-0.967-0.397-1.842-0.598-2.627-0.598c-0.691,0-1.213,0.107-1.564,0.325
		c-0.352,0.217-0.527,0.516-0.527,0.896c0,0.258,0.066,0.479,0.197,0.659c0.133,0.182,0.346,0.354,0.639,0.519
		s0.854,0.401,1.688,0.713c1.143,0.415,1.914,0.835,2.314,1.257S128.731,166.409,128.731,167.048z"/>
	<path fill="#AFAFAF" d="M140.915,167.048c0,0.896-0.334,1.588-1.002,2.074c-0.668,0.485-1.605,0.729-2.813,0.729
		c-1.277,0-2.273-0.202-2.988-0.605v-1.354c0.463,0.234,0.959,0.419,1.488,0.554c0.531,0.136,1.043,0.202,1.535,0.202
		c0.762,0,1.348-0.121,1.758-0.364c0.41-0.242,0.615-0.613,0.615-1.111c0-0.375-0.164-0.695-0.488-0.962
		c-0.326-0.268-0.959-0.582-1.902-0.945c-0.896-0.334-1.533-0.625-1.91-0.875c-0.379-0.248-0.66-0.531-0.846-0.848
		s-0.275-0.694-0.275-1.135c0-0.784,0.318-1.403,0.957-1.857s1.516-0.683,2.629-0.683c1.037,0,2.051,0.212,3.041,0.634l-0.52,1.187
		c-0.967-0.397-1.844-0.598-2.629-0.598c-0.689,0-1.213,0.107-1.563,0.325c-0.352,0.217-0.527,0.516-0.527,0.896
		c0,0.258,0.066,0.479,0.197,0.659c0.133,0.182,0.344,0.354,0.637,0.519s0.855,0.401,1.689,0.713
		c1.143,0.415,1.914,0.835,2.314,1.257S140.915,166.409,140.915,167.048z"/>
	<path fill="#AFAFAF" d="M146.817,169.851c-1.424,0-2.547-0.434-3.369-1.301c-0.824-0.867-1.236-2.071-1.236-3.612
		c0-1.553,0.383-2.786,1.146-3.7c0.766-0.914,1.791-1.371,3.082-1.371c1.207,0,2.162,0.397,2.865,1.191s1.055,1.841,1.055,3.142
		v0.924h-6.637c0.029,1.131,0.314,1.988,0.857,2.574c0.541,0.587,1.305,0.88,2.289,0.88c1.037,0,2.063-0.218,3.076-0.65v1.301
		c-0.516,0.224-1.004,0.382-1.463,0.479C148.022,169.803,147.468,169.851,146.817,169.851z M146.423,161.089
		c-0.775,0-1.391,0.252-1.852,0.756s-0.73,1.201-0.813,2.092h5.037c0-0.92-0.205-1.624-0.615-2.114
		C147.771,161.334,147.185,161.089,146.423,161.089z"/>
	<path fill="#AFAFAF" d="M153.767,169.676h-1.459V156h1.459V169.676z"/>
	<path fill="#AFAFAF" d="M160.39,169.851c-1.424,0-2.549-0.434-3.371-1.301c-0.824-0.867-1.234-2.071-1.234-3.612
		c0-1.553,0.381-2.786,1.146-3.7c0.764-0.914,1.791-1.371,3.08-1.371c1.207,0,2.162,0.397,2.865,1.191s1.055,1.841,1.055,3.142
		v0.924h-6.635c0.029,1.131,0.314,1.988,0.855,2.574c0.543,0.587,1.307,0.88,2.291,0.88c1.035,0,2.063-0.218,3.074-0.65v1.301
		c-0.516,0.224-1.004,0.382-1.465,0.479C161.595,169.803,161.04,169.851,160.39,169.851z M159.993,161.089
		c-0.773,0-1.391,0.252-1.85,0.756c-0.461,0.504-0.73,1.201-0.813,2.092h5.035c0-0.92-0.205-1.624-0.615-2.114
		C161.341,161.334,160.755,161.089,159.993,161.089z"/>
	<path fill="#AFAFAF" d="M169.728,169.851c-1.395,0-2.475-0.429-3.238-1.287c-0.766-0.857-1.146-2.072-1.146-3.644
		c0-1.611,0.389-2.856,1.164-3.735s1.883-1.317,3.318-1.317c0.463,0,0.926,0.05,1.389,0.148s0.826,0.217,1.09,0.353l-0.447,1.238
		c-0.322-0.129-0.676-0.234-1.057-0.319s-0.717-0.128-1.01-0.128c-1.957,0-2.936,1.247-2.936,3.743c0,1.185,0.238,2.093,0.715,2.726
		c0.479,0.633,1.186,0.949,2.123,0.949c0.803,0,1.627-0.174,2.471-0.52v1.292C171.519,169.684,170.706,169.851,169.728,169.851z"/>
	<path fill="#AFAFAF" d="M177.019,168.646c0.258,0,0.508-0.019,0.748-0.058c0.24-0.037,0.43-0.077,0.57-0.118v1.116
		c-0.158,0.076-0.391,0.139-0.699,0.188c-0.307,0.05-0.584,0.074-0.83,0.074c-1.863,0-2.795-0.98-2.795-2.944v-5.729h-1.379v-0.703
		l1.379-0.605l0.615-2.058h0.844v2.232h2.795v1.134h-2.795v5.669c0,0.58,0.139,1.025,0.414,1.336S176.538,168.646,177.019,168.646z"
		/>
	<path fill="#AFAFAF" d="M183.792,169.851c-1.424,0-2.549-0.434-3.371-1.301c-0.824-0.867-1.234-2.071-1.234-3.612
		c0-1.553,0.381-2.786,1.146-3.7c0.764-0.914,1.791-1.371,3.08-1.371c1.207,0,2.162,0.397,2.865,1.191s1.055,1.841,1.055,3.142
		v0.924h-6.635c0.027,1.131,0.313,1.988,0.854,2.574c0.543,0.587,1.309,0.88,2.291,0.88c1.037,0,2.064-0.218,3.076-0.65v1.301
		c-0.516,0.224-1.004,0.382-1.465,0.479C184.997,169.803,184.442,169.851,183.792,169.851z M183.396,161.089
		c-0.773,0-1.391,0.252-1.85,0.756c-0.461,0.504-0.73,1.201-0.813,2.092h5.033c0-0.92-0.203-1.624-0.613-2.114
		C184.743,161.334,184.157,161.089,183.396,161.089z"/>
	<path fill="#AFAFAF" d="M195.837,168.384h-0.078c-0.674,0.979-1.682,1.468-3.023,1.468c-1.26,0-2.24-0.431-2.941-1.292
		c-0.699-0.861-1.049-2.086-1.049-3.674s0.352-2.821,1.055-3.7s1.684-1.317,2.938-1.317c1.307,0,2.309,0.475,3.006,1.424h0.113
		l-0.063-0.694l-0.035-0.677v-3.92h1.459v13.676h-1.188L195.837,168.384z M192.919,168.63c0.996,0,1.719-0.271,2.166-0.813
		c0.449-0.541,0.674-1.416,0.674-2.623v-0.308c0-1.365-0.229-2.339-0.682-2.923c-0.455-0.582-1.18-0.874-2.176-0.874
		c-0.855,0-1.512,0.333-1.967,0.997c-0.451,0.666-0.68,1.604-0.68,2.816c0,1.23,0.227,2.159,0.676,2.786
		C191.382,168.315,192.046,168.63,192.919,168.63z"/>
	<path fill="#AFAFAF" d="M208.249,161.177h-2.453v8.499h-1.459v-8.499h-1.723v-0.659l1.723-0.526v-0.536
		c0-2.367,1.035-3.552,3.105-3.552c0.51,0,1.105,0.104,1.793,0.309l-0.379,1.169c-0.564-0.183-1.045-0.272-1.441-0.272
		c-0.551,0-0.957,0.185-1.221,0.55c-0.266,0.366-0.396,0.953-0.396,1.763v0.624h2.453v1.132H208.249z"/>
	<path fill="#AFAFAF" d="M217.78,164.85c0,1.57-0.395,2.797-1.186,3.679c-0.791,0.883-1.885,1.322-3.279,1.322
		c-0.861,0-1.625-0.202-2.293-0.605c-0.668-0.404-1.184-0.984-1.547-1.74s-0.545-1.642-0.545-2.654c0-1.57,0.393-2.793,1.178-3.669
		s1.875-1.313,3.27-1.313c1.348,0,2.418,0.447,3.211,1.345C217.384,162.107,217.78,163.32,217.78,164.85z M210.442,164.85
		c0,1.23,0.246,2.168,0.738,2.813c0.492,0.645,1.215,0.967,2.17,0.967s1.68-0.321,2.176-0.962c0.494-0.644,0.742-1.581,0.742-2.817
		c0-1.225-0.248-2.154-0.742-2.79c-0.496-0.636-1.227-0.954-2.193-0.954c-0.955,0-1.676,0.313-2.162,0.94
		C210.687,162.674,210.442,163.607,210.442,164.85z"/>
	<path fill="#AFAFAF" d="M224.192,159.866c0.428,0,0.813,0.035,1.152,0.105l-0.203,1.354c-0.398-0.089-0.75-0.133-1.055-0.133
		c-0.779,0-1.445,0.316-2,0.949c-0.553,0.633-0.83,1.421-0.83,2.364v5.168h-1.459v-9.633h1.205l0.166,1.784h0.07
		c0.355-0.628,0.789-1.11,1.293-1.45S223.589,159.866,224.192,159.866z"/>
	<path fill="#AFAFAF" d="M235.224,169.851c-0.627,0-1.199-0.116-1.719-0.348c-0.518-0.23-0.953-0.587-1.305-1.067h-0.105
		c0.07,0.563,0.105,1.096,0.105,1.601V174h-1.459v-13.957h1.188l0.201,1.317h0.07c0.375-0.526,0.813-0.908,1.311-1.143
		c0.498-0.235,1.068-0.353,1.713-0.353c1.277,0,2.264,0.438,2.957,1.311c0.695,0.873,1.043,2.098,1.043,3.674
		c0,1.582-0.354,2.812-1.061,3.687C237.458,169.414,236.478,169.851,235.224,169.851z M235.013,161.105
		c-0.984,0-1.695,0.272-2.135,0.817c-0.441,0.545-0.666,1.412-0.678,2.602v0.325c0,1.354,0.227,2.322,0.678,2.905
		s1.174,0.874,2.17,0.874c0.832,0,1.484-0.337,1.955-1.011c0.473-0.675,0.709-1.604,0.709-2.786c0-1.201-0.236-2.122-0.709-2.766
		C236.532,161.428,235.868,161.105,235.013,161.105z"/>
	<path fill="#AFAFAF" d="M245.626,159.866c0.428,0,0.813,0.035,1.152,0.105l-0.203,1.354c-0.398-0.089-0.75-0.133-1.057-0.133
		c-0.777,0-1.443,0.316-2,0.949c-0.553,0.633-0.828,1.421-0.828,2.364v5.168h-1.459v-9.633h1.203l0.166,1.784h0.07
		c0.357-0.628,0.789-1.11,1.293-1.45S245.022,159.866,245.626,159.866z"/>
	<path fill="#AFAFAF" d="M252.108,169.851c-1.424,0-2.547-0.434-3.369-1.301c-0.824-0.867-1.236-2.071-1.236-3.612
		c0-1.553,0.383-2.786,1.148-3.7c0.764-0.914,1.791-1.371,3.08-1.371c1.207,0,2.162,0.397,2.865,1.191s1.055,1.841,1.055,3.142
		v0.924h-6.637c0.029,1.131,0.314,1.988,0.857,2.574c0.541,0.587,1.305,0.88,2.289,0.88c1.037,0,2.063-0.218,3.076-0.65v1.301
		c-0.518,0.224-1.004,0.382-1.463,0.479C253.313,169.803,252.759,169.851,252.108,169.851z M251.714,161.089
		c-0.773,0-1.391,0.252-1.85,0.756c-0.461,0.504-0.732,1.201-0.814,2.092h5.037c0-0.92-0.205-1.624-0.615-2.114
		C253.062,161.334,252.476,161.089,251.714,161.089z"/>
	<path fill="#AFAFAF" d="M259.708,169.676l-3.656-9.633h1.564l2.074,5.713c0.469,1.336,0.744,2.203,0.826,2.602h0.07
		c0.064-0.311,0.268-0.953,0.611-1.93c0.342-0.975,1.109-3.104,2.307-6.385h1.564l-3.656,9.633H259.708z"/>
	<path fill="#AFAFAF" d="M265.952,157.432c0-0.334,0.082-0.578,0.246-0.733c0.164-0.154,0.369-0.232,0.615-0.232
		c0.234,0,0.438,0.079,0.607,0.237c0.168,0.157,0.254,0.4,0.254,0.729s-0.084,0.573-0.254,0.733
		c-0.17,0.162-0.373,0.241-0.607,0.241c-0.246,0-0.451-0.079-0.615-0.241C266.034,158.006,265.952,157.761,265.952,157.432z
		 M267.534,169.676h-1.459v-9.633h1.459V169.676z"/>
	<path fill="#AFAFAF" d="M274.157,169.851c-1.424,0-2.547-0.434-3.369-1.301c-0.824-0.867-1.236-2.071-1.236-3.612
		c0-1.553,0.383-2.786,1.148-3.7c0.764-0.914,1.791-1.371,3.08-1.371c1.207,0,2.162,0.397,2.865,1.191s1.055,1.841,1.055,3.142
		v0.924h-6.637c0.029,1.131,0.314,1.988,0.857,2.574c0.541,0.587,1.305,0.88,2.289,0.88c1.037,0,2.063-0.218,3.076-0.65v1.301
		c-0.518,0.224-1.004,0.382-1.463,0.479C275.362,169.803,274.808,169.851,274.157,169.851z M273.763,161.089
		c-0.773,0-1.391,0.252-1.85,0.756c-0.461,0.504-0.732,1.201-0.814,2.092h5.037c0-0.92-0.205-1.624-0.615-2.114
		C275.11,161.334,274.524,161.089,273.763,161.089z"/>
	<path fill="#AFAFAF" d="M287.513,169.676l-1.766-5.651c-0.111-0.346-0.32-1.131-0.625-2.354h-0.07
		c-0.234,1.024-0.439,1.815-0.615,2.373l-1.818,5.634h-1.688l-2.629-9.633h1.529c0.621,2.42,1.096,4.263,1.42,5.527
		c0.326,1.267,0.512,2.118,0.559,2.559h0.07c0.064-0.334,0.168-0.767,0.313-1.297c0.143-0.529,0.268-0.95,0.373-1.262l1.766-5.527
		h1.582l1.723,5.527c0.328,1.009,0.551,1.854,0.668,2.54h0.07c0.023-0.211,0.086-0.536,0.189-0.976
		c0.102-0.439,0.713-2.804,1.832-7.093h1.512l-2.662,9.633H287.513z"/>
	<path fill="#AFAFAF" d="M292.897,168.744c0-0.394,0.088-0.689,0.268-0.894c0.178-0.201,0.436-0.303,0.77-0.303
		c0.342,0,0.605,0.102,0.797,0.303c0.188,0.203,0.283,0.5,0.283,0.894c0,0.381-0.096,0.674-0.289,0.879
		c-0.191,0.205-0.457,0.308-0.791,0.308c-0.299,0-0.547-0.093-0.74-0.276C292.995,169.469,292.897,169.166,292.897,168.744z"/>
</g>
</svg>
