<?xml version="1.0" encoding="utf-8"?>
<!-- Generator: Adobe Illustrator 16.0.0, SVG Export Plug-In . SVG Version: 6.00 Build 0)  -->
<!DOCTYPE svg PUBLIC "-//W3C//DTD SVG 1.1//EN" "http://www.w3.org/Graphics/SVG/1.1/DTD/svg11.dtd">
<svg version="1.1" id="Capa_1" xmlns="http://www.w3.org/2000/svg" xmlns:xlink="http://www.w3.org/1999/xlink" x="0px" y="0px"
	 width="50px" height="50px" viewBox="272.64 395.945 50 50" enable-background="new 272.64 395.945 50 50" xml:space="preserve">
<g>
	<path fill="#F03636" d="M316.902,406.436l-0.664-0.664l-8.689-8.689l-0.664-0.664c-0.3-0.3-0.717-0.473-1.143-0.473H280.76
		c-1.021,0-2.12,0.789-2.12,2.519v31.052v14.234v0.398c0,0.721,0.725,1.423,1.582,1.644c0.043,0.011,0.084,0.027,0.129,0.036
		c0.134,0.027,0.271,0.042,0.409,0.042h34.494c0.139,0,0.275-0.015,0.409-0.042c0.045-0.009,0.086-0.025,0.13-0.036
		c0.856-0.221,1.582-0.923,1.582-1.644v-0.398v-14.234v-21.539C317.375,407.317,317.296,406.83,316.902,406.436z M314.306,406.274
		h-7.261v-7.26L314.306,406.274z M280.76,444.149c-0.061,0-0.116-0.022-0.17-0.042c-0.134-0.064-0.228-0.198-0.228-0.356v-12.514
		h35.292v12.514c0,0.158-0.095,0.291-0.229,0.356c-0.055,0.02-0.109,0.042-0.171,0.042H280.76z M280.362,429.516v-31.052
		c0-0.187,0.028-0.797,0.398-0.797h24.613c-0.028,0.108-0.049,0.22-0.049,0.336v9.993h9.992c0.116,0,0.228-0.021,0.336-0.05
		c0,0.013,0.001,0.018,0.001,0.031v21.539H280.362z"/>
	<path fill="#F03636" d="M292.019,434.46c-0.287-0.235-0.61-0.413-0.971-0.53s-0.726-0.176-1.094-0.176h-2.495v8.673h1.413v-3.131
		h1.047c0.455,0,0.871-0.066,1.247-0.199c0.376-0.134,0.698-0.322,0.965-0.565c0.267-0.242,0.474-0.543,0.625-0.9
		c0.148-0.356,0.224-0.755,0.224-1.194c0-0.416-0.089-0.79-0.265-1.124C292.537,434.979,292.305,434.696,292.019,434.46z
		 M291.483,437.326c-0.087,0.239-0.2,0.425-0.341,0.558c-0.141,0.134-0.296,0.23-0.465,0.288c-0.169,0.06-0.34,0.09-0.512,0.09
		h-1.294v-3.437h1.059c0.36,0,0.651,0.058,0.871,0.17c0.22,0.114,0.39,0.256,0.512,0.425c0.122,0.168,0.201,0.345,0.241,0.528
		c0.039,0.185,0.059,0.347,0.059,0.488C291.612,436.79,291.569,437.086,291.483,437.326z"/>
	<path fill="#F03636" d="M300.55,435.025c-0.365-0.385-0.824-0.693-1.377-0.924c-0.554-0.23-1.195-0.347-1.924-0.347h-2.613v8.673
		h3.284c0.109,0,0.279-0.014,0.506-0.041c0.227-0.028,0.479-0.09,0.753-0.189c0.274-0.098,0.559-0.245,0.853-0.441
		c0.294-0.195,0.56-0.464,0.794-0.806c0.236-0.343,0.43-0.766,0.584-1.272c0.152-0.506,0.229-1.116,0.229-1.829
		c0-0.519-0.091-1.023-0.271-1.513C301.187,435.847,300.916,435.41,300.55,435.025z M299.521,440.473
		c-0.424,0.612-1.114,0.918-2.071,0.918h-1.4v-6.566h0.824c0.675,0,1.224,0.088,1.648,0.264c0.424,0.178,0.759,0.409,1.006,0.695
		c0.246,0.287,0.413,0.605,0.5,0.959c0.086,0.353,0.129,0.71,0.129,1.07C300.156,438.974,299.945,439.862,299.521,440.473z"/>
	<polygon fill="#F03636" points="303.687,442.427 305.123,442.427 305.123,438.52 308.748,438.52 308.748,437.555 305.123,437.555 
		305.123,434.825 309.112,434.825 309.112,433.754 303.687,433.754 	"/>
	<path fill="#F03636" d="M306.124,415.71c-0.792,0-1.763,0.103-2.892,0.308c-1.574-1.671-3.219-4.112-4.379-6.509
		c1.15-4.845,0.574-5.531,0.32-5.855c-0.27-0.344-0.65-0.903-1.085-0.903c-0.182,0-0.678,0.083-0.874,0.148
		c-0.496,0.166-0.763,0.548-0.977,1.046c-0.608,1.423,0.226,3.849,1.085,5.719c-0.734,2.92-1.966,6.416-3.261,9.253
		c-3.262,1.494-4.995,2.961-5.152,4.363c-0.057,0.51,0.064,1.257,0.96,1.93c0.246,0.183,0.533,0.28,0.833,0.28l0,0
		c0.753,0,1.514-0.577,2.395-1.813c0.642-0.902,1.332-2.133,2.051-3.659c2.305-1.008,5.157-1.919,7.599-2.429
		c1.36,1.306,2.578,1.967,3.625,1.967c0.771,0,1.432-0.354,1.91-1.025c0.499-0.698,0.613-1.323,0.337-1.859
		C308.288,416.025,307.471,415.71,306.124,415.71z M290.722,424.036c-0.403-0.31-0.38-0.517-0.371-0.595
		c0.053-0.479,0.803-1.329,2.643-2.362C291.599,423.654,290.85,423.995,290.722,424.036z M297.78,404.305
		c0.037-0.012,0.899,0.948,0.083,2.768C296.635,405.818,297.696,404.333,297.78,404.305z M296.001,418.1
		c0.874-2.083,1.687-4.381,2.302-6.511c0.966,1.737,2.128,3.422,3.29,4.772C299.756,416.792,297.8,417.401,296.001,418.1z
		 M307.106,417.688c-0.265,0.371-0.84,0.379-1.041,0.379c-0.459,0-0.631-0.273-1.332-0.813c0.578-0.074,1.124-0.092,1.559-0.092
		c0.766,0,0.906,0.112,1.012,0.169C307.284,417.393,307.234,417.508,307.106,417.688z"/>
</g>
</svg>
