<?xml version="1.0" encoding="utf-8"?>
<!-- Generator: Adobe Illustrator 16.0.0, SVG Export Plug-In . SVG Version: 6.00 Build 0)  -->
<!DOCTYPE svg PUBLIC "-//W3C//DTD SVG 1.1//EN" "http://www.w3.org/Graphics/SVG/1.1/DTD/svg11.dtd">
<svg version="1.1" id="Layer_1" xmlns="http://www.w3.org/2000/svg" xmlns:xlink="http://www.w3.org/1999/xlink" x="0px" y="0px"
	 width="90px" height="90px" viewBox="211 211 90 90" enable-background="new 211 211 90 90" xml:space="preserve">
<g id="Outline">
	<path fill="#FFFFFF" stroke="#FFFFFF" stroke-miterlimit="10" d="M285.288,234.841c0,0.195-0.008,0.394-0.022,0.588l2.945,0.214
		c0.019-0.266,0.029-0.535,0.029-0.802v-2.256h-2.952V234.841z"/>
	<path fill="#FFFFFF" stroke="#FFFFFF" stroke-miterlimit="10" d="M285.288,224.427v5.207h2.952v-5.207
		c-0.001-4.02-2.181-7.721-5.694-9.675l-5.395-2.998l-1.434,2.58l5.396,2.998C283.69,218.764,285.286,221.479,285.288,224.427z"/>
	<path fill="#FFFFFF" stroke="#FFFFFF" stroke-miterlimit="10" d="M255.482,239.355l3.247,1.804v28.314
		c0,0.518,0.271,0.997,0.717,1.267l7.377,4.425c0.467,0.282,1.051,0.282,1.519,0l7.378-4.425c0.443-0.27,0.717-0.749,0.717-1.267
		v-4.427c0-0.392-0.156-0.767-0.431-1.042l-1.911-1.909l1.911-1.908c0.574-0.575,0.574-1.511,0-2.085c0,0,0,0,0-0.001l-1.911-1.907
		l1.911-1.908c0.574-0.576,0.574-1.51,0-2.087l0,0l-1.911-1.908l1.911-1.908c0.274-0.277,0.431-0.652,0.431-1.044v-6.181
		l3.245-1.803c1.639-0.911,2.655-2.639,2.656-4.515v-10.414c-0.001-1.877-1.018-3.604-2.656-4.516l-9.591-5.329
		c-1.559-0.872-3.459-0.872-5.017,0l-9.591,5.329c-1.639,0.911-2.655,2.639-2.656,4.516v10.414
		C252.827,236.716,253.843,238.444,255.482,239.355z M273.484,246.729l-2.52,2.519c-0.577,0.576-0.577,1.51,0,2.086c0,0,0,0,0,0
		l1.907,1.906l-1.907,1.909c-0.577,0.576-0.577,1.51,0,2.086l0,0l1.907,1.908l-1.907,1.907c-0.577,0.577-0.577,1.511,0,2.087l0,0
		l2.52,2.521v2.979l-5.904,3.541l-5.901-3.541v-25.841l2.951,1.64v16.184h2.95v-15.282c0.88-0.001,1.743-0.227,2.51-0.655
		l3.395-1.886V246.729z M255.777,224.427c0-0.804,0.435-1.545,1.139-1.936l9.591-5.328c0.666-0.374,1.482-0.374,2.149,0l9.591,5.328
		c0.703,0.391,1.139,1.132,1.139,1.936v10.414c0,0.804-0.436,1.545-1.139,1.935l-9.591,5.328c-0.667,0.375-1.483,0.375-2.149,0
		l-9.591-5.328c-0.703-0.39-1.139-1.131-1.139-1.935V224.427z"/>
	<path fill="#FFFFFF" stroke="#FFFFFF" stroke-miterlimit="10" d="M267.58,229.634c2.446,0,4.427-1.982,4.427-4.427
		c0-2.445-1.98-4.427-4.427-4.427c-2.441,0-4.425,1.981-4.425,4.427C263.157,227.651,265.139,229.63,267.58,229.634z
		 M267.58,223.732c0.817,0,1.478,0.661,1.478,1.475c0,0.815-0.66,1.475-1.478,1.475c-0.813,0-1.474-0.66-1.474-1.475
		C266.107,224.393,266.768,223.732,267.58,223.732z"/>
	<path fill="#FFFFFF" stroke="#FFFFFF" stroke-miterlimit="10" d="M263.155,232.584h8.852v2.952h-8.852V232.584z"/>
	<path fill="#FFFFFF" stroke="#FFFFFF" stroke-miterlimit="10" d="M264.63,263.571h2.95v2.951h-2.95V263.571z"/>
	<path fill="#FFFFFF" stroke="#FFFFFF" stroke-miterlimit="10" d="M293.76,282.979c-0.529-1.362-1.589-2.45-2.937-3.015
		c-1.322-0.56-2.816-0.558-4.138,0.008l-9.54,4.052c0.292-2.84-1.771-5.378-4.611-5.67c-0.174-0.019-0.351-0.027-0.527-0.027
		h-11.443c-1.158-0.002-2.3-0.271-3.338-0.787c-4.787-2.389-10.064-3.634-15.416-3.642h-3.739c0-0.813-0.662-1.474-1.477-1.474
		h-19.182v2.95h17.707v17.709h-17.707v2.951h19.182c0.815,0,1.477-0.662,1.477-1.478v-0.563l11.016,4.576
		c6.005,2.451,12.719,2.526,18.778,0.208l22.794-8.693c1.35-0.512,2.437-1.547,3.013-2.87
		C294.27,285.87,294.301,284.344,293.76,282.979z M290.973,286.021c-0.262,0.603-0.754,1.071-1.367,1.309l-22.792,8.691
		c-5.358,2.05-11.293,1.985-16.605-0.181l-12.137-5.041v-13.949h3.739c4.894,0.006,9.718,1.146,14.097,3.329
		c1.445,0.719,3.039,1.098,4.656,1.1h11.443c1.224,0.002,2.213,0.992,2.211,2.215c-0.002,1.186-0.938,2.157-2.122,2.207
		c-0.06,0.001-0.119,0.004-0.178,0.004h-17.617v2.952h17.617c0.03,0,0.06-0.002,0.089-0.003v0.003c0.104,0,0.205-0.004,0.308-0.011
		c1.097-0.047,2.178-0.288,3.188-0.72l12.334-5.238c0.589-0.253,1.255-0.253,1.845-0.003c0.612,0.26,1.093,0.753,1.332,1.374
		C291.264,284.693,291.249,285.399,290.973,286.021L290.973,286.021z"/>
	<path fill="#FFFFFF" stroke="#FFFFFF" stroke-miterlimit="10" d="M229.218,287.182h2.95v2.95h-2.95V287.182z"/>
	<path fill="#FFFFFF" stroke="#FFFFFF" stroke-miterlimit="10" d="M252.826,244.39h2.951v19.182h-2.951V244.39z"/>
</g>
</svg>
