<?xml version="1.0" encoding="UTF-8"?>
<svg width="70px" height="85px" viewBox="0 0 70 85" version="1.1" xmlns="http://www.w3.org/2000/svg" xmlns:xlink="http://www.w3.org/1999/xlink">
    <!-- Generator: Sketch 51.2 (57519) - http://www.bohemiancoding.com/sketch -->
    <title>text-documents</title>
    <desc>Created with Sketch.</desc>
    <defs></defs>
    <g id="New-Project" stroke="none" stroke-width="1" fill="none" fill-rule="evenodd" opacity="0.0500000007">
        <g id="New-Project-Ideation-Copy-6" transform="translate(-675.000000, -494.000000)" fill="#000000" fill-rule="nonzero">
            <g id="Dropbox" transform="translate(74.000000, 294.000000)">
                <g id="text-documents" transform="translate(601.000000, 200.000000)">
                    <path d="M63.9941163,0 L17.4789983,0 C14.1677703,0 11.4731146,2.70513591 11.4731146,6.02729695 L11.4731146,9.8765912 L6.00570978,9.8765912 C2.69448178,9.8765912 0,12.5817271 0,15.9038881 L0,78.4848982 C0,81.8070592 2.69448178,84.5121951 6.00570978,84.5121951 L52.5223931,84.5121951 C55.8337951,84.5121951 58.5282769,81.8070592 58.5282769,78.4848982 L58.5282769,74.6356039 L63.9941163,74.6356039 C67.3058661,74.6356039 70,71.930468 70,68.6084815 L70,6.02729695 C70,2.70513591 67.3058661,0 63.9941163,0 Z M53.723883,78.4848982 C53.723883,79.1488766 53.1838387,79.6904972 52.5223931,79.6904972 L6.00570978,79.6904972 C5.34443818,79.6904972 4.8043939,79.148702 4.8043939,78.4848982 L4.8043939,15.9038881 C4.8043939,15.2393861 5.34443818,14.6982891 6.00570978,14.6982891 L11.4731146,14.6982891 L11.4731146,68.608307 C11.4731146,71.9302935 14.1677703,74.6354294 17.4789983,74.6354294 L53.723883,74.6354294 L53.723883,78.4848982 Z M65.1956061,68.6084815 C65.1956061,69.2722854 64.6567793,69.8140806 63.9941163,69.8140806 L17.4789983,69.8140806 C16.8161613,69.8140806 16.2778563,69.2722854 16.2778563,68.6084815 L16.2778563,6.02729695 C16.2778563,5.36296947 16.8163353,4.82169792 17.4789983,4.82169792 L63.9939424,4.82169792 C64.6567793,4.82169792 65.1954322,5.36314402 65.1954322,6.02729695 L65.1954322,68.6084815 L65.1956061,68.6084815 Z" id="Shape"></path>
                    <path d="M58.2027666,15.3658537 L22.8953172,15.3658537 C21.5658085,15.3658537 20.4878049,16.5135831 20.4878049,17.9266439 C20.4878049,19.3424859 21.5659827,20.4878049 22.8953172,20.4878049 L58.202418,20.4878049 C59.532101,20.4878049 60.609756,19.3423004 60.609756,17.9266439 C60.6101046,16.5137685 59.532101,15.3658537 58.2027666,15.3658537 Z" id="Shape"></path>
                    <path d="M58.2027666,26.4634146 L22.8953172,26.4634146 C21.5658085,26.4634146 20.4878049,27.6107732 20.4878049,29.0242048 C20.4878049,30.439676 21.5659827,31.5853659 22.8953172,31.5853659 L58.202418,31.5853659 C59.532101,31.5853659 60.609756,30.4394906 60.609756,29.0242048 C60.6101046,27.6109587 59.532101,26.4634146 58.2027666,26.4634146 Z" id="Shape"></path>
                    <path d="M58.2027666,37.5609756 L22.8953172,37.5609756 C21.5658085,37.5609756 20.4878049,38.7088489 20.4878049,40.1222293 C20.4878049,41.5374639 21.5659827,42.6829268 22.8953172,42.6829268 L58.202418,42.6829268 C59.532101,42.6829268 60.609756,41.5374639 60.609756,40.1222293 C60.6101046,38.7088489 59.532101,37.5609756 58.2027666,37.5609756 Z" id="Shape"></path>
                    <path d="M58.2027666,49.5121951 L22.8953172,49.5121951 C21.5658085,49.5121951 20.4878049,50.66011 20.4878049,52.0729853 C20.4878049,53.4891982 21.5659827,54.6341463 22.8953172,54.6341463 L58.202418,54.6341463 C59.532101,54.6341463 60.609756,53.4888273 60.609756,52.0729853 C60.6101046,50.66011 59.532101,49.5121951 58.2027666,49.5121951 Z" id="Shape"></path>
                </g>
            </g>
        </g>
    </g>
</svg>