<?xml version="1.0" encoding="utf-8"?>
<!-- Generator: Adobe Illustrator 16.0.0, SVG Export Plug-In . SVG Version: 6.00 Build 0)  -->
<!DOCTYPE svg PUBLIC "-//W3C//DTD SVG 1.1//EN" "http://www.w3.org/Graphics/SVG/1.1/DTD/svg11.dtd">
<svg version="1.1" id="Capa_1" xmlns="http://www.w3.org/2000/svg" xmlns:xlink="http://www.w3.org/1999/xlink" x="0px" y="0px"
	 width="90px" height="90px" viewBox="0 0 90 90" enable-background="new 0 0 90 90" xml:space="preserve">
<path fill="#FFFFFF" d="M86.934,89.729H31.021c-1.545,0-2.795-1.25-2.795-2.795v-25.16H3.066c-1.545,0-2.795-1.252-2.795-2.797
	V3.066c0-1.545,1.25-2.795,2.795-2.795h55.911c1.545,0,2.797,1.25,2.797,2.795v25.16h25.16c1.545,0,2.795,1.25,2.795,2.795v55.913
	C89.729,88.479,88.479,89.729,86.934,89.729z M33.817,84.137h50.32v-50.32h-25.16c-1.545,0-2.795-1.25-2.795-2.795V5.861H5.861
	v50.321h25.161c1.545,0,2.795,1.25,2.795,2.795V84.137L33.817,84.137z"/>
<g>
	<rect x="12.239" y="13.112" fill="#FFFFFF" width="9.305" height="5.68"/>
	<rect x="26.442" y="13.112" fill="#FFFFFF" width="12.407" height="5.68"/>
	<rect x="43.747" y="13.112" fill="#FFFFFF" width="5.794" height="5.68"/>
</g>
<g>
	<rect x="12.239" y="25.692" fill="#FFFFFF" width="9.305" height="5.68"/>
	<rect x="26.442" y="25.692" fill="#FFFFFF" width="12.407" height="5.68"/>
	<rect x="37.87" y="25.692" fill="#FFFFFF" width="11.673" height="5.68"/>
</g>
<g>
	<rect x="12.064" y="41.861" fill="#FFFFFF" width="9.306" height="5.68"/>
	<rect x="26.267" y="41.861" fill="#FFFFFF" width="12.407" height="5.68"/>
	<rect x="43.985" y="41.861" fill="#FFFFFF" width="18.75" height="5.68"/>
	<rect x="68.271" y="41.861" fill="#FFFFFF" width="8.791" height="5.68"/>
</g>
<g>
	<rect x="40.194" y="59.064" fill="#FFFFFF" width="9.304" height="5.68"/>
	<rect x="54.398" y="59.064" fill="#FFFFFF" width="12.408" height="5.68"/>
	<rect x="71.703" y="59.064" fill="#FFFFFF" width="5.795" height="5.68"/>
</g>
<g>
	<rect x="40.194" y="71.645" fill="#FFFFFF" width="9.304" height="5.679"/>
	<rect x="54.398" y="71.645" fill="#FFFFFF" width="12.408" height="5.679"/>
	<rect x="65.826" y="71.645" fill="#FFFFFF" width="11.672" height="5.679"/>
</g>
</svg>
