<?xml version="1.0"?>
<svg xmlns="http://www.w3.org/2000/svg" height="512px" version="1.1" viewBox="-25 0 512 512.00078" width="512px"><g><g id="surface1">
<path d="M 266.4375 104.960938 L 322.957031 104.960938 L 236.449219 13.957031 L 236.449219 74.855469 C 236.449219 91.351562 249.828125 104.960938 266.4375 104.960938 Z M 266.4375 104.960938 " data-original="#000000" class="active-path" data-old_color="#000000" fill="#2196F2"/>
<path d="M 172.667969 334.488281 L 72.433594 334.488281 C 67.359375 334.488281 63.207031 330.339844 63.207031 325.261719 C 63.207031 320.1875 67.359375 316.035156 72.433594 316.035156 L 178.78125 316.035156 C 184.660156 301.042969 192.503906 288.351562 202.195312 275.664062 L 72.433594 275.664062 C 67.359375 275.664062 63.207031 271.515625 63.207031 266.4375 C 63.207031 261.363281 67.359375 257.210938 72.433594 257.210938 L 219.726562 257.210938 C 247.40625 232.988281 284.085938 217.535156 324.109375 217.535156 C 327.914062 217.535156 331.03125 217.878906 335.644531 218.226562 L 335.644531 123.414062 L 266.4375 123.414062 C 239.679688 123.414062 217.996094 101.5 217.996094 74.855469 L 217.996094 0 L 41.0625 0 C 18.222656 0 0 18.683594 0 41.636719 L 0 393.660156 C 0 416.613281 18.222656 434.835938 41.0625 434.835938 L 180.046875 434.835938 C 172.089844 416.382812 167.707031 395.621094 167.707031 373.9375 C 167.589844 360.328125 169.4375 347.175781 172.667969 334.488281 Z M 72.433594 199.539062 L 189.277344 199.539062 C 194.351562 199.539062 198.503906 203.691406 198.503906 208.769531 C 198.503906 213.84375 194.351562 217.996094 189.277344 217.996094 L 72.433594 217.996094 C 67.359375 217.996094 63.207031 213.84375 63.207031 208.769531 C 63.207031 203.691406 67.359375 199.539062 72.433594 199.539062 Z M 72.433594 199.539062 " data-original="#000000" class="active-path" data-old_color="#000000" fill="#2196F2"/>
<path d="M 323.992188 236.335938 C 247.984375 236.335938 186.160156 298.15625 186.160156 374.167969 C 186.160156 450.175781 247.984375 512 323.992188 512 C 400.003906 512 461.828125 450.175781 461.828125 374.167969 C 461.828125 298.15625 400.003906 236.335938 323.992188 236.335938 Z M 397.699219 376.242188 C 395.96875 377.859375 393.660156 378.667969 391.46875 378.667969 C 389.046875 378.667969 386.625 377.628906 384.777344 375.78125 L 333.335938 320.417969 L 333.335938 452.136719 C 333.335938 457.214844 329.183594 461.367188 324.109375 461.367188 C 319.035156 461.367188 314.882812 457.214844 314.882812 452.136719 L 314.882812 320.304688 L 263.210938 375.667969 C 259.75 379.359375 253.75 379.589844 250.058594 376.128906 C 246.371094 372.667969 246.136719 366.785156 249.597656 363.09375 L 317.1875 290.542969 C 318.917969 288.699219 321.339844 287.660156 323.992188 287.660156 C 326.648438 287.660156 328.953125 288.699219 330.800781 290.542969 L 398.390625 363.09375 C 401.621094 366.902344 401.386719 372.785156 397.699219 376.242188 Z M 397.699219 376.242188 " data-original="#000000" class="active-path" data-old_color="#000000" fill="#2196F2"/>
</g></g> </svg>
